<?xml version="1.0" encoding="utf-8" standalone="no"?>
<!DOCTYPE svg PUBLIC "-//W3C//DTD SVG 1.1//EN" "http://www.w3.org/Graphics/SVG/1.1/DTD/svg11.dtd">
<svg width="3000px" height="3000px" version="1.1" xmlns="http://www.w3.org/2000/svg" xmlns:xlink="http://www.w3.org/1999/xlink">
<g id="ideograms">
<path d="M1500.000,250.000 A1250.000,1250.000 40.000 0,1 1552.345,251.096 L1556.532,151.184 A1350.000,1350.000 0.000 0,0 1500.000,150.000 Z" style="stroke-width:2.0;stroke:rgb(0,0,0);stroke-linecap:round;fill:rgb(153,102,0);"/>
<text x="1530.2" y="56.6" font-size="46.8px" font-family="CMUBright-Roman" style="text-anchor:middle;fill:rgb(0,0,0);" transform="rotate(361.2,1530.2,56.6)">v1</text>
<line x1='1500.0' y1='150.0' x2='1500.0' y2='130.0' style="stroke-width:3.0;stroke:rgb(0,0,0);stroke-linecap:round;fill:none;"/>
<text x="1512.0" y="125.1" font-size="31.2px" font-family="CMUBright-Roman" style="text-anchor:start;fill:rgb(0,0,0);" transform="rotate(270.0,1512.0,125.1)">0</text>
<line x1='1556.5' y1='151.2' x2='1557.4' y2='131.2' style="stroke-width:3.0;stroke:rgb(0,0,0);stroke-linecap:round;fill:none;"/>
<path d="M1500.000,250.000 A1250.000,1250.000 40.000 0,1 1552.345,251.096 L1556.532,151.184 A1350.000,1350.000 0.000 0,0 1500.000,150.000 Z" style="stroke-width:2.0;stroke:rgb(0,0,0);stroke-linecap:round;fill:none;"/>
<path d="M1656.667,259.857 A1250.000,1250.000 40.000 0,1 1708.461,267.505 L1725.138,168.905 A1350.000,1350.000 0.000 0,0 1669.200,160.645 Z" style="stroke-width:2.0;stroke:rgb(0,0,0);stroke-linecap:round;fill:rgb(102,102,0);"/>
<text x="1710.9" y="71.7" font-size="46.8px" font-family="CMUBright-Roman" style="text-anchor:middle;fill:rgb(0,0,0);" transform="rotate(368.4,1710.9,71.7)">v2</text>
<line x1='1669.2' y1='160.6' x2='1671.7' y2='140.8' style="stroke-width:3.0;stroke:rgb(0,0,0);stroke-linecap:round;fill:none;"/>
<text x="1684.2" y="137.4" font-size="31.2px" font-family="CMUBright-Roman" style="text-anchor:start;fill:rgb(0,0,0);" transform="rotate(277.2,1684.2,137.4)">0</text>
<line x1='1725.1' y1='168.9' x2='1728.5' y2='149.2' style="stroke-width:3.0;stroke:rgb(0,0,0);stroke-linecap:round;fill:none;"/>
<path d="M1656.667,259.857 A1250.000,1250.000 40.000 0,1 1708.461,267.505 L1725.138,168.905 A1350.000,1350.000 0.000 0,0 1669.200,160.645 Z" style="stroke-width:2.0;stroke:rgb(0,0,0);stroke-linecap:round;fill:none;"/>
<path d="M1810.862,289.271 A1250.000,1250.000 40.000 0,1 1861.290,303.351 L1890.193,207.619 A1350.000,1350.000 0.000 0,0 1835.731,192.413 Z" style="stroke-width:2.0;stroke:rgb(0,0,0);stroke-linecap:round;fill:rgb(153,153,30);"/>
<text x="1888.3" y="109.4" font-size="46.8px" font-family="CMUBright-Roman" style="text-anchor:middle;fill:rgb(0,0,0);" transform="rotate(375.6,1888.3,109.4)">v3</text>
<line x1='1835.7' y1='192.4' x2='1840.7' y2='173.0' style="stroke-width:3.0;stroke:rgb(0,0,0);stroke-linecap:round;fill:none;"/>
<text x="1853.6" y="171.2" font-size="31.2px" font-family="CMUBright-Roman" style="text-anchor:start;fill:rgb(0,0,0);" transform="rotate(284.4,1853.6,171.2)">0</text>
<line x1='1890.2' y1='207.6' x2='1896.0' y2='188.5' style="stroke-width:3.0;stroke:rgb(0,0,0);stroke-linecap:round;fill:none;"/>
<path d="M1810.862,289.271 A1250.000,1250.000 40.000 0,1 1861.290,303.351 L1890.193,207.619 A1350.000,1350.000 0.000 0,0 1835.731,192.413 Z" style="stroke-width:2.0;stroke:rgb(0,0,0);stroke-linecap:round;fill:none;"/>
<path d="M1960.156,337.779 A1250.000,1250.000 40.000 0,1 2008.421,358.068 L2049.094,266.714 A1350.000,1350.000 0.000 0,0 1996.968,244.802 Z" style="stroke-width:2.0;stroke:rgb(0,0,0);stroke-linecap:round;fill:rgb(204,0,0);"/>
<text x="2059.5" y="169.1" font-size="46.8px" font-family="CMUBright-Roman" style="text-anchor:middle;fill:rgb(0,0,0);" transform="rotate(382.8,2059.5,169.1)">v4</text>
<line x1='1997.0' y1='244.8' x2='2004.3' y2='226.2' style="stroke-width:3.0;stroke:rgb(0,0,0);stroke-linecap:round;fill:none;"/>
<text x="2017.3" y="226.0" font-size="31.2px" font-family="CMUBright-Roman" style="text-anchor:start;fill:rgb(0,0,0);" transform="rotate(291.6,2017.3,226.0)">0</text>
<line x1='2049.1' y1='266.7' x2='2057.2' y2='248.4' style="stroke-width:3.0;stroke:rgb(0,0,0);stroke-linecap:round;fill:none;"/>
<path d="M1960.156,337.779 A1250.000,1250.000 40.000 0,1 2008.421,358.068 L2049.094,266.714 A1350.000,1350.000 0.000 0,0 1996.968,244.802 Z" style="stroke-width:2.0;stroke:rgb(0,0,0);stroke-linecap:round;fill:none;"/>
<path d="M2102.192,404.617 A1250.000,1250.000 40.000 0,1 2147.534,430.795 L2199.336,345.258 A1350.000,1350.000 0.000 0,0 2150.367,316.986 Z" style="stroke-width:2.0;stroke:rgb(0,0,0);stroke-linecap:round;fill:rgb(255,0,0);"/>
<text x="2221.9" y="249.7" font-size="46.8px" font-family="CMUBright-Roman" style="text-anchor:middle;fill:rgb(0,0,0);" transform="rotate(390.0,2221.9,249.7)">v5</text>
<line x1='2150.4' y1='317.0' x2='2160.0' y2='299.5' style="stroke-width:3.0;stroke:rgb(0,0,0);stroke-linecap:round;fill:none;"/>
<text x="2172.9" y="300.9" font-size="31.2px" font-family="CMUBright-Roman" style="text-anchor:start;fill:rgb(0,0,0);" transform="rotate(298.8,2172.9,300.9)">0</text>
<line x1='2199.3' y1='345.3' x2='2209.7' y2='328.2' style="stroke-width:3.0;stroke:rgb(0,0,0);stroke-linecap:round;fill:none;"/>
<path d="M2102.192,404.617 A1250.000,1250.000 40.000 0,1 2147.534,430.795 L2199.336,345.258 A1350.000,1350.000 0.000 0,0 2150.367,316.986 Z" style="stroke-width:2.0;stroke:rgb(0,0,0);stroke-linecap:round;fill:none;"/>
<path d="M2234.732,488.729 A1250.000,1250.000 40.000 0,1 2276.435,520.383 L2338.550,442.014 A1350.000,1350.000 0.000 0,0 2293.510,407.827 Z" style="stroke-width:2.0;stroke:rgb(0,0,0);stroke-linecap:round;fill:rgb(255,0,204);"/>
<text x="2372.9" y="350.0" font-size="46.8px" font-family="CMUBright-Roman" style="text-anchor:middle;fill:rgb(0,0,0);" transform="rotate(397.2,2372.9,350.0)">v6</text>
<line x1='2293.5' y1='407.8' x2='2305.3' y2='391.6' style="stroke-width:3.0;stroke:rgb(0,0,0);stroke-linecap:round;fill:none;"/>
<text x="2317.9" y="394.7" font-size="31.2px" font-family="CMUBright-Roman" style="text-anchor:start;fill:rgb(0,0,0);" transform="rotate(306.0,2317.9,394.7)">0</text>
<line x1='2338.5' y1='442.0' x2='2351.0' y2='426.3' style="stroke-width:3.0;stroke:rgb(0,0,0);stroke-linecap:round;fill:none;"/>
<path d="M2234.732,488.729 A1250.000,1250.000 40.000 0,1 2276.435,520.383 L2338.550,442.014 A1350.000,1350.000 0.000 0,0 2293.510,407.827 Z" style="stroke-width:2.0;stroke:rgb(0,0,0);stroke-linecap:round;fill:none;"/>
<path d="M2355.684,588.789 A1250.000,1250.000 40.000 0,1 2393.091,625.421 L2464.538,555.454 A1350.000,1350.000 0.000 0,0 2424.139,515.892 Z" style="stroke-width:2.0;stroke:rgb(0,0,0);stroke-linecap:round;fill:rgb(255,204,204);"/>
<text x="2510.1" y="468.5" font-size="46.8px" font-family="CMUBright-Roman" style="text-anchor:middle;fill:rgb(0,0,0);" transform="rotate(404.4,2510.1,468.5)">v7</text>
<line x1='2424.1' y1='515.9' x2='2437.8' y2='501.3' style="stroke-width:3.0;stroke:rgb(0,0,0);stroke-linecap:round;fill:none;"/>
<text x="2450.0" y="505.9" font-size="31.2px" font-family="CMUBright-Roman" style="text-anchor:start;fill:rgb(0,0,0);" transform="rotate(313.2,2450.0,505.9)">0</text>
<line x1='2464.5' y1='555.5' x2='2478.8' y2='541.5' style="stroke-width:3.0;stroke:rgb(0,0,0);stroke-linecap:round;fill:none;"/>
<path d="M2355.684,588.789 A1250.000,1250.000 40.000 0,1 2393.091,625.421 L2464.538,555.454 A1350.000,1350.000 0.000 0,0 2424.139,515.892 Z" style="stroke-width:2.0;stroke:rgb(0,0,0);stroke-linecap:round;fill:none;"/>
<path d="M2463.142,703.220 A1250.000,1250.000 40.000 0,1 2495.662,744.251 L2575.315,683.791 A1350.000,1350.000 0.000 0,0 2540.193,639.478 Z" style="stroke-width:2.0;stroke:rgb(0,0,0);stroke-linecap:round;fill:rgb(255,153,0);"/>
<text x="2631.5" y="603.2" font-size="46.8px" font-family="CMUBright-Roman" style="text-anchor:middle;fill:rgb(0,0,0);" transform="rotate(411.6,2631.5,603.2)">v8</text>
<line x1='2540.2' y1='639.5' x2='2555.6' y2='626.7' style="stroke-width:3.0;stroke:rgb(0,0,0);stroke-linecap:round;fill:none;"/>
<text x="2567.1" y="632.8" font-size="31.2px" font-family="CMUBright-Roman" style="text-anchor:start;fill:rgb(0,0,0);" transform="rotate(320.4,2567.1,632.8)">0</text>
<line x1='2575.3' y1='683.8' x2='2591.2' y2='671.7' style="stroke-width:3.0;stroke:rgb(0,0,0);stroke-linecap:round;fill:none;"/>
<path d="M2463.142,703.220 A1250.000,1250.000 40.000 0,1 2495.662,744.251 L2575.315,683.791 A1350.000,1350.000 0.000 0,0 2540.193,639.478 Z" style="stroke-width:2.0;stroke:rgb(0,0,0);stroke-linecap:round;fill:none;"/>
<path d="M2555.410,830.217 A1250.000,1250.000 40.000 0,1 2582.532,875.000 L2669.134,825.000 A1350.000,1350.000 0.000 0,0 2639.843,776.634 Z" style="stroke-width:2.0;stroke:rgb(0,0,0);stroke-linecap:round;fill:rgb(255,204,0);"/>
<text x="2734.9" y="752.1" font-size="46.8px" font-family="CMUBright-Roman" style="text-anchor:middle;fill:rgb(0,0,0);" transform="rotate(418.8,2734.9,752.1)">v9</text>
<line x1='2639.8' y1='776.6' x2='2656.7' y2='765.9' style="stroke-width:3.0;stroke:rgb(0,0,0);stroke-linecap:round;fill:none;"/>
<text x="2667.3" y="773.4" font-size="31.2px" font-family="CMUBright-Roman" style="text-anchor:start;fill:rgb(0,0,0);" transform="rotate(327.6,2667.3,773.4)">0</text>
<line x1='2669.1' y1='825.0' x2='2686.5' y2='815.0' style="stroke-width:3.0;stroke:rgb(0,0,0);stroke-linecap:round;fill:none;"/>
<path d="M2555.410,830.217 A1250.000,1250.000 40.000 0,1 2582.532,875.000 L2669.134,825.000 A1350.000,1350.000 0.000 0,0 2639.843,776.634 Z" style="stroke-width:2.0;stroke:rgb(0,0,0);stroke-linecap:round;fill:none;"/>
<path d="M2631.034,967.776 A1250.000,1250.000 40.000 0,1 2652.329,1015.606 L2744.515,976.854 A1350.000,1350.000 0.000 0,0 2721.517,925.198 Z" style="stroke-width:2.0;stroke:rgb(0,0,0);stroke-linecap:round;fill:rgb(255,255,0);"/>
<text x="2818.9" y="912.8" font-size="46.8px" font-family="CMUBright-Roman" style="text-anchor:middle;fill:rgb(0,0,0);" transform="rotate(426.0,2818.9,912.8)">v10</text>
<line x1='2721.5' y1='925.2' x2='2739.6' y2='916.7' style="stroke-width:3.0;stroke:rgb(0,0,0);stroke-linecap:round;fill:none;"/>
<text x="2749.2" y="925.4" font-size="31.2px" font-family="CMUBright-Roman" style="text-anchor:start;fill:rgb(0,0,0);" transform="rotate(334.8,2749.2,925.4)">0</text>
<line x1='2744.5' y1='976.9' x2='2763.0' y2='969.1' style="stroke-width:3.0;stroke:rgb(0,0,0);stroke-linecap:round;fill:none;"/>
<path d="M2631.034,967.776 A1250.000,1250.000 40.000 0,1 2652.329,1015.606 L2744.515,976.854 A1350.000,1350.000 0.000 0,0 2721.517,925.198 Z" style="stroke-width:2.0;stroke:rgb(0,0,0);stroke-linecap:round;fill:none;"/>
<path d="M2688.821,1113.729 A1250.000,1250.000 40.000 0,1 2703.953,1163.850 L2800.269,1136.958 A1350.000,1350.000 0.000 0,0 2783.926,1082.827 Z" style="stroke-width:2.0;stroke:rgb(0,0,0);stroke-linecap:round;fill:rgb(204,255,0);"/>
<text x="2882.1" y="1082.7" font-size="46.8px" font-family="CMUBright-Roman" style="text-anchor:middle;fill:rgb(0,0,0);" transform="rotate(433.2,2882.1,1082.7)">v11</text>
<line x1='2783.9' y1='1082.8' x2='2802.9' y2='1076.6' style="stroke-width:3.0;stroke:rgb(0,0,0);stroke-linecap:round;fill:none;"/>
<text x="2811.4" y="1086.5" font-size="31.2px" font-family="CMUBright-Roman" style="text-anchor:start;fill:rgb(0,0,0);" transform="rotate(342.0,2811.4,1086.5)">0</text>
<line x1='2800.3' y1='1137.0' x2='2819.5' y2='1131.6' style="stroke-width:3.0;stroke:rgb(0,0,0);stroke-linecap:round;fill:none;"/>
<path d="M2688.821,1113.729 A1250.000,1250.000 40.000 0,1 2703.953,1163.850 L2800.269,1136.958 A1350.000,1350.000 0.000 0,0 2783.926,1082.827 Z" style="stroke-width:2.0;stroke:rgb(0,0,0);stroke-linecap:round;fill:none;"/>
<path d="M2727.859,1265.773 A1250.000,1250.000 40.000 0,1 2736.590,1317.396 L2835.518,1302.788 A1350.000,1350.000 0.000 0,0 2826.088,1247.035 Z" style="stroke-width:2.0;stroke:rgb(0,0,0);stroke-linecap:round;fill:rgb(0,255,0);"/>
<text x="2923.5" y="1259.2" font-size="46.8px" font-family="CMUBright-Roman" style="text-anchor:middle;fill:rgb(0,0,0);" transform="rotate(440.4,2923.5,1259.2)">v12</text>
<line x1='2826.1' y1='1247.0' x2='2845.7' y2='1243.3' style="stroke-width:3.0;stroke:rgb(0,0,0);stroke-linecap:round;fill:none;"/>
<text x="2852.8" y="1254.1" font-size="31.2px" font-family="CMUBright-Roman" style="text-anchor:start;fill:rgb(0,0,0);" transform="rotate(349.2,2852.8,1254.1)">0</text>
<line x1='2835.5' y1='1302.8' x2='2855.3' y2='1299.9' style="stroke-width:3.0;stroke:rgb(0,0,0);stroke-linecap:round;fill:none;"/>
<path d="M2727.859,1265.773 A1250.000,1250.000 40.000 0,1 2736.590,1317.396 L2835.518,1302.788 A1350.000,1350.000 0.000 0,0 2826.088,1247.035 Z" style="stroke-width:2.0;stroke:rgb(0,0,0);stroke-linecap:round;fill:none;"/>
<path d="M2747.533,1421.512 A1250.000,1250.000 40.000 0,1 2749.726,1473.822 L2849.704,1471.728 A1350.000,1350.000 0.000 0,0 2847.336,1415.233 Z" style="stroke-width:2.0;stroke:rgb(0,0,0);stroke-linecap:round;fill:rgb(53,128,0);"/>
<text x="2942.5" y="1439.5" font-size="46.8px" font-family="CMUBright-Roman" style="text-anchor:middle;fill:rgb(0,0,0);" transform="rotate(447.6,2942.5,1439.5)">v13</text>
<line x1='2847.3' y1='1415.2' x2='2867.3' y2='1414.0' style="stroke-width:3.0;stroke:rgb(0,0,0);stroke-linecap:round;fill:none;"/>
<text x="2873.0" y="1425.6" font-size="31.2px" font-family="CMUBright-Roman" style="text-anchor:start;fill:rgb(0,0,0);" transform="rotate(356.4,2873.0,1425.6)">0</text>
<line x1='2849.7' y1='1471.7' x2='2869.7' y2='1471.3' style="stroke-width:3.0;stroke:rgb(0,0,0);stroke-linecap:round;fill:none;"/>
<path d="M2747.533,1421.512 A1250.000,1250.000 40.000 0,1 2749.726,1473.822 L2849.704,1471.728 A1350.000,1350.000 0.000 0,0 2847.336,1415.233 Z" style="stroke-width:2.0;stroke:rgb(0,0,0);stroke-linecap:round;fill:none;"/>
<path d="M2747.533,1578.488 A1250.000,1250.000 40.000 0,1 2743.152,1630.661 L2842.605,1641.113 A1350.000,1350.000 0.000 0,0 2847.336,1584.767 Z" style="stroke-width:2.0;stroke:rgb(0,0,0);stroke-linecap:round;fill:rgb(0,0,204);"/>
<text x="2972.6" y="1623.7" font-size="46.8px" font-family="CMUBright-Roman" style="text-anchor:middle;fill:rgb(0,0,0);" transform="rotate(-85.2,2972.6,1623.7)">v14</text>
<line x1='2847.3' y1='1584.8' x2='2867.3' y2='1586.0' style="stroke-width:3.0;stroke:rgb(0,0,0);stroke-linecap:round;fill:none;"/>
<text x="2871.5" y="1598.3" font-size="31.2px" font-family="CMUBright-Roman" style="text-anchor:start;fill:rgb(0,0,0);" transform="rotate(3.6,2871.5,1598.3)">0</text>
<line x1='2842.6' y1='1641.1' x2='2862.5' y2='1643.2' style="stroke-width:3.0;stroke:rgb(0,0,0);stroke-linecap:round;fill:none;"/>
<path d="M2747.533,1578.488 A1250.000,1250.000 40.000 0,1 2743.152,1630.661 L2842.605,1641.113 A1350.000,1350.000 0.000 0,0 2847.336,1584.767 Z" style="stroke-width:2.0;stroke:rgb(0,0,0);stroke-linecap:round;fill:none;"/>
<path d="M2727.859,1734.227 A1250.000,1250.000 40.000 0,1 2716.974,1785.439 L2814.332,1808.274 A1350.000,1350.000 0.000 0,0 2826.088,1752.965 Z" style="stroke-width:2.0;stroke:rgb(0,0,0);stroke-linecap:round;fill:rgb(102,153,255);"/>
<text x="2946.4" y="1807.4" font-size="46.8px" font-family="CMUBright-Roman" style="text-anchor:middle;fill:rgb(0,0,0);" transform="rotate(-78.0,2946.4,1807.4)">v15</text>
<line x1='2826.1' y1='1753.0' x2='2845.7' y2='1756.7' style="stroke-width:3.0;stroke:rgb(0,0,0);stroke-linecap:round;fill:none;"/>
<text x="2848.3" y="1769.4" font-size="31.2px" font-family="CMUBright-Roman" style="text-anchor:start;fill:rgb(0,0,0);" transform="rotate(10.8,2848.3,1769.4)">0</text>
<line x1='2814.3' y1='1808.3' x2='2833.8' y2='1812.8' style="stroke-width:3.0;stroke:rgb(0,0,0);stroke-linecap:round;fill:none;"/>
<path d="M2727.859,1734.227 A1250.000,1250.000 40.000 0,1 2716.974,1785.439 L2814.332,1808.274 A1350.000,1350.000 0.000 0,0 2826.088,1752.965 Z" style="stroke-width:2.0;stroke:rgb(0,0,0);stroke-linecap:round;fill:none;"/>
<path d="M2688.821,1886.271 A1250.000,1250.000 40.000 0,1 2671.602,1935.715 L2765.331,1970.572 A1350.000,1350.000 0.000 0,0 2783.926,1917.173 Z" style="stroke-width:2.0;stroke:rgb(0,0,0);stroke-linecap:round;fill:rgb(153,204,255);"/>
<text x="2896.5" y="1986.3" font-size="46.8px" font-family="CMUBright-Roman" style="text-anchor:middle;fill:rgb(0,0,0);" transform="rotate(-70.8,2896.5,1986.3)">v16</text>
<line x1='2783.9' y1='1917.2' x2='2802.9' y2='1923.4' style="stroke-width:3.0;stroke:rgb(0,0,0);stroke-linecap:round;fill:none;"/>
<text x="2803.9" y="1936.3" font-size="31.2px" font-family="CMUBright-Roman" style="text-anchor:start;fill:rgb(0,0,0);" transform="rotate(18.0,2803.9,1936.3)">0</text>
<line x1='2765.3' y1='1970.6' x2='2784.1' y2='1977.5' style="stroke-width:3.0;stroke:rgb(0,0,0);stroke-linecap:round;fill:none;"/>
<path d="M2688.821,1886.271 A1250.000,1250.000 40.000 0,1 2671.602,1935.715 L2765.331,1970.572 A1350.000,1350.000 0.000 0,0 2783.926,1917.173 Z" style="stroke-width:2.0;stroke:rgb(0,0,0);stroke-linecap:round;fill:none;"/>
<path d="M2631.034,2032.224 A1250.000,1250.000 40.000 0,1 2607.754,2079.120 L2696.375,2125.450 A1350.000,1350.000 0.000 0,0 2721.517,2074.802 Z" style="stroke-width:2.0;stroke:rgb(0,0,0);stroke-linecap:round;fill:rgb(0,255,255);"/>
<text x="2823.6" y="2157.1" font-size="46.8px" font-family="CMUBright-Roman" style="text-anchor:middle;fill:rgb(0,0,0);" transform="rotate(-63.6,2823.6,2157.1)">v17</text>
<line x1='2721.5' y1='2074.8' x2='2739.6' y2='2083.3' style="stroke-width:3.0;stroke:rgb(0,0,0);stroke-linecap:round;fill:none;"/>
<text x="2739.0" y="2096.3" font-size="31.2px" font-family="CMUBright-Roman" style="text-anchor:start;fill:rgb(0,0,0);" transform="rotate(25.2,2739.0,2096.3)">0</text>
<line x1='2696.4' y1='2125.4' x2='2714.1' y2='2134.7' style="stroke-width:3.0;stroke:rgb(0,0,0);stroke-linecap:round;fill:none;"/>
<path d="M2631.034,2032.224 A1250.000,1250.000 40.000 0,1 2607.754,2079.120 L2696.375,2125.450 A1350.000,1350.000 0.000 0,0 2721.517,2074.802 Z" style="stroke-width:2.0;stroke:rgb(0,0,0);stroke-linecap:round;fill:none;"/>
<path d="M2555.410,2169.783 A1250.000,1250.000 40.000 0,1 2526.437,2213.392 L2608.551,2270.463 A1350.000,1350.000 0.000 0,0 2639.843,2223.366 Z" style="stroke-width:2.0;stroke:rgb(0,0,0);stroke-linecap:round;fill:rgb(204,255,255);"/>
<text x="2731.7" y="2318.3" font-size="46.8px" font-family="CMUBright-Roman" style="text-anchor:middle;fill:rgb(0,0,0);" transform="rotate(-56.4,2731.7,2318.3)">v18</text>
<line x1='2639.8' y1='2223.4' x2='2656.7' y2='2234.1' style="stroke-width:3.0;stroke:rgb(0,0,0);stroke-linecap:round;fill:none;"/>
<text x="2654.5" y="2246.9" font-size="31.2px" font-family="CMUBright-Roman" style="text-anchor:start;fill:rgb(0,0,0);" transform="rotate(32.4,2654.5,2246.9)">0</text>
<line x1='2608.6' y1='2270.5' x2='2625.0' y2='2281.9' style="stroke-width:3.0;stroke:rgb(0,0,0);stroke-linecap:round;fill:none;"/>
<path d="M2555.410,2169.783 A1250.000,1250.000 40.000 0,1 2526.437,2213.392 L2608.551,2270.463 A1350.000,1350.000 0.000 0,0 2639.843,2223.366 Z" style="stroke-width:2.0;stroke:rgb(0,0,0);stroke-linecap:round;fill:none;"/>
<path d="M2463.142,2296.780 A1250.000,1250.000 40.000 0,1 2428.931,2336.413 L2503.246,2403.326 A1350.000,1350.000 0.000 0,0 2540.193,2360.522 Z" style="stroke-width:2.0;stroke:rgb(0,0,0);stroke-linecap:round;fill:rgb(153,0,204);"/>
<text x="2619.4" y="2466.2" font-size="46.8px" font-family="CMUBright-Roman" style="text-anchor:middle;fill:rgb(0,0,0);" transform="rotate(-49.2,2619.4,2466.2)">v19</text>
<line x1='2540.2' y1='2360.5' x2='2555.6' y2='2373.3' style="stroke-width:3.0;stroke:rgb(0,0,0);stroke-linecap:round;fill:none;"/>
<text x="2551.8" y="2385.7" font-size="31.2px" font-family="CMUBright-Roman" style="text-anchor:start;fill:rgb(0,0,0);" transform="rotate(39.6,2551.8,2385.7)">0</text>
<line x1='2503.2' y1='2403.3' x2='2518.1' y2='2416.7' style="stroke-width:3.0;stroke:rgb(0,0,0);stroke-linecap:round;fill:none;"/>
<path d="M2463.142,2296.780 A1250.000,1250.000 40.000 0,1 2428.931,2336.413 L2503.246,2403.326 A1350.000,1350.000 0.000 0,0 2540.193,2360.522 Z" style="stroke-width:2.0;stroke:rgb(0,0,0);stroke-linecap:round;fill:none;"/>
<path d="M2355.684,2411.211 A1250.000,1250.000 40.000 0,1 2316.776,2446.244 L2382.118,2521.943 A1350.000,1350.000 0.000 0,0 2424.139,2484.108 Z" style="stroke-width:2.0;stroke:rgb(0,0,0);stroke-linecap:round;fill:rgb(204,51,255);"/>
<text x="2488.8" y="2598.2" font-size="46.8px" font-family="CMUBright-Roman" style="text-anchor:middle;fill:rgb(0,0,0);" transform="rotate(-42.0,2488.8,2598.2)">v20</text>
<line x1='2424.1' y1='2484.1' x2='2437.8' y2='2498.7' style="stroke-width:3.0;stroke:rgb(0,0,0);stroke-linecap:round;fill:none;"/>
<text x="2432.5" y="2510.5" font-size="31.2px" font-family="CMUBright-Roman" style="text-anchor:start;fill:rgb(0,0,0);" transform="rotate(46.8,2432.5,2510.5)">0</text>
<line x1='2382.1' y1='2521.9' x2='2395.2' y2='2537.1' style="stroke-width:3.0;stroke:rgb(0,0,0);stroke-linecap:round;fill:none;"/>
<path d="M2355.684,2411.211 A1250.000,1250.000 40.000 0,1 2316.776,2446.244 L2382.118,2521.943 A1350.000,1350.000 0.000 0,0 2424.139,2484.108 Z" style="stroke-width:2.0;stroke:rgb(0,0,0);stroke-linecap:round;fill:none;"/>
<path d="M2234.732,2511.271 A1250.000,1250.000 40.000 0,1 2191.739,2541.152 L2247.079,2624.444 A1350.000,1350.000 0.000 0,0 2293.510,2592.173 Z" style="stroke-width:2.0;stroke:rgb(0,0,0);stroke-linecap:round;fill:rgb(204,153,255);"/>
<text x="2343.4" y="2713.5" font-size="46.8px" font-family="CMUBright-Roman" style="text-anchor:middle;fill:rgb(0,0,0);" transform="rotate(-34.8,2343.4,2713.5)">v21</text>
<line x1='2293.5' y1='2592.2' x2='2305.3' y2='2608.4' style="stroke-width:3.0;stroke:rgb(0,0,0);stroke-linecap:round;fill:none;"/>
<text x="2298.5" y="2619.4" font-size="31.2px" font-family="CMUBright-Roman" style="text-anchor:start;fill:rgb(0,0,0);" transform="rotate(54.0,2298.5,2619.4)">0</text>
<line x1='2247.1' y1='2624.4' x2='2258.1' y2='2641.1' style="stroke-width:3.0;stroke:rgb(0,0,0);stroke-linecap:round;fill:none;"/>
<path d="M2234.732,2511.271 A1250.000,1250.000 40.000 0,1 2191.739,2541.152 L2247.079,2624.444 A1350.000,1350.000 0.000 0,0 2293.510,2592.173 Z" style="stroke-width:2.0;stroke:rgb(0,0,0);stroke-linecap:round;fill:none;"/>
<path d="M2102.192,2595.383 A1250.000,1250.000 40.000 0,1 2055.794,2619.640 L2100.257,2709.211 A1350.000,1350.000 0.000 0,0 2150.367,2683.014 Z" style="stroke-width:2.0;stroke:rgb(0,0,0);stroke-linecap:round;fill:rgb(102,102,102);"/>
<text x="2184.2" y="2808.7" font-size="46.8px" font-family="CMUBright-Roman" style="text-anchor:middle;fill:rgb(0,0,0);" transform="rotate(-27.6,2184.2,2808.7)">v22</text>
<line x1='2150.4' y1='2683.0' x2='2160.0' y2='2700.5' style="stroke-width:3.0;stroke:rgb(0,0,0);stroke-linecap:round;fill:none;"/>
<text x="2151.9" y="2710.7" font-size="31.2px" font-family="CMUBright-Roman" style="text-anchor:start;fill:rgb(0,0,0);" transform="rotate(61.2,2151.9,2710.7)">0</text>
<line x1='2100.3' y1='2709.2' x2='2109.2' y2='2727.1' style="stroke-width:3.0;stroke:rgb(0,0,0);stroke-linecap:round;fill:none;"/>
<path d="M2102.192,2595.383 A1250.000,1250.000 40.000 0,1 2055.794,2619.640 L2100.257,2709.211 A1350.000,1350.000 0.000 0,0 2150.367,2683.014 Z" style="stroke-width:2.0;stroke:rgb(0,0,0);stroke-linecap:round;fill:none;"/>
<path d="M1960.156,2662.221 A1250.000,1250.000 40.000 0,1 1911.083,2680.470 L1943.970,2774.908 A1350.000,1350.000 0.000 0,0 1996.968,2755.198 Z" style="stroke-width:2.0;stroke:rgb(0,0,0);stroke-linecap:round;fill:rgb(153,153,153);"/>
<text x="2015.1" y="2885.1" font-size="46.8px" font-family="CMUBright-Roman" style="text-anchor:middle;fill:rgb(0,0,0);" transform="rotate(-20.4,2015.1,2885.1)">v23</text>
<line x1='1997.0' y1='2755.2' x2='2004.3' y2='2773.8' style="stroke-width:3.0;stroke:rgb(0,0,0);stroke-linecap:round;fill:none;"/>
<text x="1995.0" y="2782.8" font-size="31.2px" font-family="CMUBright-Roman" style="text-anchor:start;fill:rgb(0,0,0);" transform="rotate(68.4,1995.0,2782.8)">0</text>
<line x1='1944.0' y1='2774.9' x2='1950.5' y2='2793.8' style="stroke-width:3.0;stroke:rgb(0,0,0);stroke-linecap:round;fill:none;"/>
<path d="M1960.156,2662.221 A1250.000,1250.000 40.000 0,1 1911.083,2680.470 L1943.970,2774.908 A1350.000,1350.000 0.000 0,0 1996.968,2755.198 Z" style="stroke-width:2.0;stroke:rgb(0,0,0);stroke-linecap:round;fill:none;"/>
<path d="M1810.862,2710.729 A1250.000,1250.000 40.000 0,1 1759.890,2722.685 L1780.681,2820.499 A1350.000,1350.000 0.000 0,0 1835.731,2807.587 Z" style="stroke-width:2.0;stroke:rgb(0,0,0);stroke-linecap:round;fill:rgb(204,204,153);"/>
<text x="1837.2" y="2937.7" font-size="46.8px" font-family="CMUBright-Roman" style="text-anchor:middle;fill:rgb(0,0,0);" transform="rotate(-13.2,1837.2,2937.7)">v24</text>
<line x1='1835.7' y1='2807.6' x2='1840.7' y2='2827.0' style="stroke-width:3.0;stroke:rgb(0,0,0);stroke-linecap:round;fill:none;"/>
<text x="1830.3" y="2834.7" font-size="31.2px" font-family="CMUBright-Roman" style="text-anchor:start;fill:rgb(0,0,0);" transform="rotate(75.6,1830.3,2834.7)">0</text>
<line x1='1780.7' y1='2820.5' x2='1784.8' y2='2840.1' style="stroke-width:3.0;stroke:rgb(0,0,0);stroke-linecap:round;fill:none;"/>
<path d="M1810.862,2710.729 A1250.000,1250.000 40.000 0,1 1759.890,2722.685 L1780.681,2820.499 A1350.000,1350.000 0.000 0,0 1835.731,2807.587 Z" style="stroke-width:2.0;stroke:rgb(0,0,0);stroke-linecap:round;fill:none;"/>
<path d="M1656.667,2740.143 A1250.000,1250.000 40.000 0,1 1604.597,2745.616 L1612.965,2845.265 A1350.000,1350.000 0.000 0,0 1669.200,2839.355 Z" style="stroke-width:2.0;stroke:rgb(0,0,0);stroke-linecap:round;fill:rgb(153,102,0);"/>
<text x="1654.5" y="2969.7" font-size="46.8px" font-family="CMUBright-Roman" style="text-anchor:middle;fill:rgb(0,0,0);" transform="rotate(-6.0,1654.5,2969.7)">v25</text>
<line x1='1669.2' y1='2839.4' x2='1671.7' y2='2859.2' style="stroke-width:3.0;stroke:rgb(0,0,0);stroke-linecap:round;fill:none;"/>
<text x="1660.4" y="2865.6" font-size="31.2px" font-family="CMUBright-Roman" style="text-anchor:start;fill:rgb(0,0,0);" transform="rotate(82.8,1660.4,2865.6)">0</text>
<line x1='1613.0' y1='2845.3' x2='1614.6' y2='2865.2' style="stroke-width:3.0;stroke:rgb(0,0,0);stroke-linecap:round;fill:none;"/>
<path d="M1656.667,2740.143 A1250.000,1250.000 40.000 0,1 1604.597,2745.616 L1612.965,2845.265 A1350.000,1350.000 0.000 0,0 1669.200,2839.355 Z" style="stroke-width:2.0;stroke:rgb(0,0,0);stroke-linecap:round;fill:none;"/>
<path d="M1500.000,2750.000 A1250.000,1250.000 40.000 0,1 1447.655,2748.904 L1443.468,2848.816 A1350.000,1350.000 0.000 0,0 1500.000,2850.000 Z" style="stroke-width:2.0;stroke:rgb(0,0,0);stroke-linecap:round;fill:rgb(102,102,0);"/>
<text x="1469.1" y="2977.4" font-size="46.8px" font-family="CMUBright-Roman" style="text-anchor:middle;fill:rgb(0,0,0);" transform="rotate(1.2,1469.1,2977.4)">v26</text>
<line x1='1500.0' y1='2850.0' x2='1500.0' y2='2870.0' style="stroke-width:3.0;stroke:rgb(0,0,0);stroke-linecap:round;fill:none;"/>
<text x="1488.0" y="2874.9" font-size="31.2px" font-family="CMUBright-Roman" style="text-anchor:start;fill:rgb(0,0,0);" transform="rotate(90.0,1488.0,2874.9)">0</text>
<line x1='1443.5' y1='2848.8' x2='1442.6' y2='2868.8' style="stroke-width:3.0;stroke:rgb(0,0,0);stroke-linecap:round;fill:none;"/>
<path d="M1500.000,2750.000 A1250.000,1250.000 40.000 0,1 1447.655,2748.904 L1443.468,2848.816 A1350.000,1350.000 0.000 0,0 1500.000,2850.000 Z" style="stroke-width:2.0;stroke:rgb(0,0,0);stroke-linecap:round;fill:none;"/>
<path d="M1343.333,2740.143 A1250.000,1250.000 40.000 0,1 1291.539,2732.495 L1274.862,2831.095 A1350.000,1350.000 0.000 0,0 1330.800,2839.355 Z" style="stroke-width:2.0;stroke:rgb(0,0,0);stroke-linecap:round;fill:rgb(153,153,30);"/>
<text x="1284.3" y="2960.9" font-size="46.8px" font-family="CMUBright-Roman" style="text-anchor:middle;fill:rgb(0,0,0);" transform="rotate(8.4,1284.3,2960.9)">v27</text>
<line x1='1330.8' y1='2839.4' x2='1328.3' y2='2859.2' style="stroke-width:3.0;stroke:rgb(0,0,0);stroke-linecap:round;fill:none;"/>
<text x="1339.6" y="2865.6" font-size="31.2px" font-family="CMUBright-Roman" style="text-anchor:end;fill:rgb(0,0,0);" transform="rotate(-82.8,1339.6,2865.6)">0</text>
<line x1='1274.9' y1='2831.1' x2='1271.5' y2='2850.8' style="stroke-width:3.0;stroke:rgb(0,0,0);stroke-linecap:round;fill:none;"/>
<path d="M1343.333,2740.143 A1250.000,1250.000 40.000 0,1 1291.539,2732.495 L1274.862,2831.095 A1350.000,1350.000 0.000 0,0 1330.800,2839.355 Z" style="stroke-width:2.0;stroke:rgb(0,0,0);stroke-linecap:round;fill:none;"/>
<path d="M1189.138,2710.729 A1250.000,1250.000 40.000 0,1 1138.710,2696.649 L1109.807,2792.381 A1350.000,1350.000 0.000 0,0 1164.269,2807.587 Z" style="stroke-width:2.0;stroke:rgb(0,0,0);stroke-linecap:round;fill:rgb(204,0,0);"/>
<text x="1102.6" y="2923.3" font-size="46.8px" font-family="CMUBright-Roman" style="text-anchor:middle;fill:rgb(0,0,0);" transform="rotate(15.6,1102.6,2923.3)">v28</text>
<line x1='1164.3' y1='2807.6' x2='1159.3' y2='2827.0' style="stroke-width:3.0;stroke:rgb(0,0,0);stroke-linecap:round;fill:none;"/>
<text x="1169.7" y="2834.7" font-size="31.2px" font-family="CMUBright-Roman" style="text-anchor:end;fill:rgb(0,0,0);" transform="rotate(-75.6,1169.7,2834.7)">0</text>
<line x1='1109.8' y1='2792.4' x2='1104.0' y2='2811.5' style="stroke-width:3.0;stroke:rgb(0,0,0);stroke-linecap:round;fill:none;"/>
<path d="M1189.138,2710.729 A1250.000,1250.000 40.000 0,1 1138.710,2696.649 L1109.807,2792.381 A1350.000,1350.000 0.000 0,0 1164.269,2807.587 Z" style="stroke-width:2.0;stroke:rgb(0,0,0);stroke-linecap:round;fill:none;"/>
<path d="M1039.844,2662.221 A1250.000,1250.000 40.000 0,1 991.579,2641.932 L950.906,2733.286 A1350.000,1350.000 0.000 0,0 1003.032,2755.198 Z" style="stroke-width:2.0;stroke:rgb(0,0,0);stroke-linecap:round;fill:rgb(255,0,0);"/>
<text x="927.3" y="2862.3" font-size="46.8px" font-family="CMUBright-Roman" style="text-anchor:middle;fill:rgb(0,0,0);" transform="rotate(22.8,927.3,2862.3)">v29</text>
<line x1='1003.0' y1='2755.2' x2='995.7' y2='2773.8' style="stroke-width:3.0;stroke:rgb(0,0,0);stroke-linecap:round;fill:none;"/>
<text x="1005.0" y="2782.8" font-size="31.2px" font-family="CMUBright-Roman" style="text-anchor:end;fill:rgb(0,0,0);" transform="rotate(-68.4,1005.0,2782.8)">0</text>
<line x1='950.9' y1='2733.3' x2='942.8' y2='2751.6' style="stroke-width:3.0;stroke:rgb(0,0,0);stroke-linecap:round;fill:none;"/>
<path d="M1039.844,2662.221 A1250.000,1250.000 40.000 0,1 991.579,2641.932 L950.906,2733.286 A1350.000,1350.000 0.000 0,0 1003.032,2755.198 Z" style="stroke-width:2.0;stroke:rgb(0,0,0);stroke-linecap:round;fill:none;"/>
<path d="M897.808,2595.383 A1250.000,1250.000 40.000 0,1 852.466,2569.205 L800.664,2654.742 A1350.000,1350.000 0.000 0,0 849.633,2683.014 Z" style="stroke-width:2.0;stroke:rgb(0,0,0);stroke-linecap:round;fill:rgb(255,0,204);"/>
<text x="761.1" y="2779.8" font-size="46.8px" font-family="CMUBright-Roman" style="text-anchor:middle;fill:rgb(0,0,0);" transform="rotate(30.0,761.1,2779.8)">v30</text>
<line x1='849.6' y1='2683.0' x2='840.0' y2='2700.5' style="stroke-width:3.0;stroke:rgb(0,0,0);stroke-linecap:round;fill:none;"/>
<text x="848.1" y="2710.7" font-size="31.2px" font-family="CMUBright-Roman" style="text-anchor:end;fill:rgb(0,0,0);" transform="rotate(-61.2,848.1,2710.7)">0</text>
<line x1='800.7' y1='2654.7' x2='790.3' y2='2671.8' style="stroke-width:3.0;stroke:rgb(0,0,0);stroke-linecap:round;fill:none;"/>
<path d="M897.808,2595.383 A1250.000,1250.000 40.000 0,1 852.466,2569.205 L800.664,2654.742 A1350.000,1350.000 0.000 0,0 849.633,2683.014 Z" style="stroke-width:2.0;stroke:rgb(0,0,0);stroke-linecap:round;fill:none;"/>
<path d="M765.268,2511.271 A1250.000,1250.000 40.000 0,1 723.565,2479.617 L661.450,2557.986 A1350.000,1350.000 0.000 0,0 706.490,2592.173 Z" style="stroke-width:2.0;stroke:rgb(0,0,0);stroke-linecap:round;fill:rgb(255,204,204);"/>
<text x="605.9" y="2677.9" font-size="46.8px" font-family="CMUBright-Roman" style="text-anchor:middle;fill:rgb(0,0,0);" transform="rotate(37.2,605.9,2677.9)">v31</text>
<line x1='706.5' y1='2592.2' x2='694.7' y2='2608.4' style="stroke-width:3.0;stroke:rgb(0,0,0);stroke-linecap:round;fill:none;"/>
<text x="701.5" y="2619.4" font-size="31.2px" font-family="CMUBright-Roman" style="text-anchor:end;fill:rgb(0,0,0);" transform="rotate(-54.0,701.5,2619.4)">0</text>
<line x1='661.5' y1='2558.0' x2='649.0' y2='2573.7' style="stroke-width:3.0;stroke:rgb(0,0,0);stroke-linecap:round;fill:none;"/>
<path d="M765.268,2511.271 A1250.000,1250.000 40.000 0,1 723.565,2479.617 L661.450,2557.986 A1350.000,1350.000 0.000 0,0 706.490,2592.173 Z" style="stroke-width:2.0;stroke:rgb(0,0,0);stroke-linecap:round;fill:none;"/>
<path d="M644.316,2411.211 A1250.000,1250.000 40.000 0,1 606.909,2374.579 L535.462,2444.546 A1350.000,1350.000 0.000 0,0 575.861,2484.108 Z" style="stroke-width:2.0;stroke:rgb(0,0,0);stroke-linecap:round;fill:rgb(255,153,0);"/>
<text x="466.1" y="2555.8" font-size="46.8px" font-family="CMUBright-Roman" style="text-anchor:middle;fill:rgb(0,0,0);" transform="rotate(44.4,466.1,2555.8)">v32</text>
<line x1='575.9' y1='2484.1' x2='562.2' y2='2498.7' style="stroke-width:3.0;stroke:rgb(0,0,0);stroke-linecap:round;fill:none;"/>
<text x="567.5" y="2510.5" font-size="31.2px" font-family="CMUBright-Roman" style="text-anchor:end;fill:rgb(0,0,0);" transform="rotate(-46.8,567.5,2510.5)">0</text>
<line x1='535.5' y1='2444.5' x2='521.2' y2='2458.5' style="stroke-width:3.0;stroke:rgb(0,0,0);stroke-linecap:round;fill:none;"/>
<path d="M644.316,2411.211 A1250.000,1250.000 40.000 0,1 606.909,2374.579 L535.462,2444.546 A1350.000,1350.000 0.000 0,0 575.861,2484.108 Z" style="stroke-width:2.0;stroke:rgb(0,0,0);stroke-linecap:round;fill:none;"/>
<path d="M536.858,2296.780 A1250.000,1250.000 40.000 0,1 504.338,2255.749 L424.685,2316.209 A1350.000,1350.000 0.000 0,0 459.807,2360.522 Z" style="stroke-width:2.0;stroke:rgb(0,0,0);stroke-linecap:round;fill:rgb(255,204,0);"/>
<text x="341.9" y="2417.9" font-size="46.8px" font-family="CMUBright-Roman" style="text-anchor:middle;fill:rgb(0,0,0);" transform="rotate(51.6,341.9,2417.9)">v33</text>
<line x1='459.8' y1='2360.5' x2='444.4' y2='2373.3' style="stroke-width:3.0;stroke:rgb(0,0,0);stroke-linecap:round;fill:none;"/>
<text x="448.2" y="2385.7" font-size="31.2px" font-family="CMUBright-Roman" style="text-anchor:end;fill:rgb(0,0,0);" transform="rotate(-39.6,448.2,2385.7)">0</text>
<line x1='424.7' y1='2316.2' x2='408.8' y2='2328.3' style="stroke-width:3.0;stroke:rgb(0,0,0);stroke-linecap:round;fill:none;"/>
<path d="M536.858,2296.780 A1250.000,1250.000 40.000 0,1 504.338,2255.749 L424.685,2316.209 A1350.000,1350.000 0.000 0,0 459.807,2360.522 Z" style="stroke-width:2.0;stroke:rgb(0,0,0);stroke-linecap:round;fill:none;"/>
<path d="M444.590,2169.783 A1250.000,1250.000 40.000 0,1 417.468,2125.000 L330.866,2175.000 A1350.000,1350.000 0.000 0,0 360.157,2223.366 Z" style="stroke-width:2.0;stroke:rgb(0,0,0);stroke-linecap:round;fill:rgb(255,255,0);"/>
<text x="236.0" y="2265.5" font-size="46.8px" font-family="CMUBright-Roman" style="text-anchor:middle;fill:rgb(0,0,0);" transform="rotate(58.8,236.0,2265.5)">v34</text>
<line x1='360.2' y1='2223.4' x2='343.3' y2='2234.1' style="stroke-width:3.0;stroke:rgb(0,0,0);stroke-linecap:round;fill:none;"/>
<text x="345.5" y="2246.9" font-size="31.2px" font-family="CMUBright-Roman" style="text-anchor:end;fill:rgb(0,0,0);" transform="rotate(-32.4,345.5,2246.9)">0</text>
<line x1='330.9' y1='2175.0' x2='313.5' y2='2185.0' style="stroke-width:3.0;stroke:rgb(0,0,0);stroke-linecap:round;fill:none;"/>
<path d="M444.590,2169.783 A1250.000,1250.000 40.000 0,1 417.468,2125.000 L330.866,2175.000 A1350.000,1350.000 0.000 0,0 360.157,2223.366 Z" style="stroke-width:2.0;stroke:rgb(0,0,0);stroke-linecap:round;fill:none;"/>
<path d="M368.966,2032.224 A1250.000,1250.000 40.000 0,1 347.671,1984.394 L255.485,2023.146 A1350.000,1350.000 0.000 0,0 278.483,2074.802 Z" style="stroke-width:2.0;stroke:rgb(0,0,0);stroke-linecap:round;fill:rgb(204,255,0);"/>
<text x="150.0" y="2101.1" font-size="46.8px" font-family="CMUBright-Roman" style="text-anchor:middle;fill:rgb(0,0,0);" transform="rotate(66.0,150.0,2101.1)">v35</text>
<line x1='278.5' y1='2074.8' x2='260.4' y2='2083.3' style="stroke-width:3.0;stroke:rgb(0,0,0);stroke-linecap:round;fill:none;"/>
<text x="261.0" y="2096.3" font-size="31.2px" font-family="CMUBright-Roman" style="text-anchor:end;fill:rgb(0,0,0);" transform="rotate(-25.2,261.0,2096.3)">0</text>
<line x1='255.5' y1='2023.1' x2='237.0' y2='2030.9' style="stroke-width:3.0;stroke:rgb(0,0,0);stroke-linecap:round;fill:none;"/>
<path d="M368.966,2032.224 A1250.000,1250.000 40.000 0,1 347.671,1984.394 L255.485,2023.146 A1350.000,1350.000 0.000 0,0 278.483,2074.802 Z" style="stroke-width:2.0;stroke:rgb(0,0,0);stroke-linecap:round;fill:none;"/>
<path d="M311.179,1886.271 A1250.000,1250.000 40.000 0,1 296.047,1836.150 L199.731,1863.042 A1350.000,1350.000 0.000 0,0 216.074,1917.173 Z" style="stroke-width:2.0;stroke:rgb(0,0,0);stroke-linecap:round;fill:rgb(0,255,0);"/>
<text x="85.3" y="1927.1" font-size="46.8px" font-family="CMUBright-Roman" style="text-anchor:middle;fill:rgb(0,0,0);" transform="rotate(73.2,85.3,1927.1)">v36</text>
<line x1='216.1' y1='1917.2' x2='197.1' y2='1923.4' style="stroke-width:3.0;stroke:rgb(0,0,0);stroke-linecap:round;fill:none;"/>
<text x="196.1" y="1936.3" font-size="31.2px" font-family="CMUBright-Roman" style="text-anchor:end;fill:rgb(0,0,0);" transform="rotate(-18.0,196.1,1936.3)">0</text>
<line x1='199.7' y1='1863.0' x2='180.5' y2='1868.4' style="stroke-width:3.0;stroke:rgb(0,0,0);stroke-linecap:round;fill:none;"/>
<path d="M311.179,1886.271 A1250.000,1250.000 40.000 0,1 296.047,1836.150 L199.731,1863.042 A1350.000,1350.000 0.000 0,0 216.074,1917.173 Z" style="stroke-width:2.0;stroke:rgb(0,0,0);stroke-linecap:round;fill:none;"/>
<path d="M272.141,1734.227 A1250.000,1250.000 40.000 0,1 263.410,1682.604 L164.482,1697.212 A1350.000,1350.000 0.000 0,0 173.912,1752.965 Z" style="stroke-width:2.0;stroke:rgb(0,0,0);stroke-linecap:round;fill:rgb(53,128,0);"/>
<text x="42.9" y="1746.4" font-size="46.8px" font-family="CMUBright-Roman" style="text-anchor:middle;fill:rgb(0,0,0);" transform="rotate(80.4,42.9,1746.4)">v37</text>
<line x1='173.9' y1='1753.0' x2='154.3' y2='1756.7' style="stroke-width:3.0;stroke:rgb(0,0,0);stroke-linecap:round;fill:none;"/>
<text x="151.7" y="1769.4" font-size="31.2px" font-family="CMUBright-Roman" style="text-anchor:end;fill:rgb(0,0,0);" transform="rotate(-10.8,151.7,1769.4)">0</text>
<line x1='164.5' y1='1697.2' x2='144.7' y2='1700.1' style="stroke-width:3.0;stroke:rgb(0,0,0);stroke-linecap:round;fill:none;"/>
<path d="M272.141,1734.227 A1250.000,1250.000 40.000 0,1 263.410,1682.604 L164.482,1697.212 A1350.000,1350.000 0.000 0,0 173.912,1752.965 Z" style="stroke-width:2.0;stroke:rgb(0,0,0);stroke-linecap:round;fill:none;"/>
<path d="M252.467,1578.488 A1250.000,1250.000 40.000 0,1 250.274,1526.178 L150.296,1528.272 A1350.000,1350.000 0.000 0,0 152.664,1584.767 Z" style="stroke-width:2.0;stroke:rgb(0,0,0);stroke-linecap:round;fill:rgb(0,0,204);"/>
<text x="23.5" y="1561.9" font-size="46.8px" font-family="CMUBright-Roman" style="text-anchor:middle;fill:rgb(0,0,0);" transform="rotate(87.6,23.5,1561.9)">v38</text>
<line x1='152.7' y1='1584.8' x2='132.7' y2='1586.0' style="stroke-width:3.0;stroke:rgb(0,0,0);stroke-linecap:round;fill:none;"/>
<text x="128.5" y="1598.3" font-size="31.2px" font-family="CMUBright-Roman" style="text-anchor:end;fill:rgb(0,0,0);" transform="rotate(-3.6,128.5,1598.3)">0</text>
<line x1='150.3' y1='1528.3' x2='130.3' y2='1528.7' style="stroke-width:3.0;stroke:rgb(0,0,0);stroke-linecap:round;fill:none;"/>
<path d="M252.467,1578.488 A1250.000,1250.000 40.000 0,1 250.274,1526.178 L150.296,1528.272 A1350.000,1350.000 0.000 0,0 152.664,1584.767 Z" style="stroke-width:2.0;stroke:rgb(0,0,0);stroke-linecap:round;fill:none;"/>
<path d="M252.467,1421.512 A1250.000,1250.000 40.000 0,1 256.848,1369.339 L157.395,1358.887 A1350.000,1350.000 0.000 0,0 152.664,1415.233 Z" style="stroke-width:2.0;stroke:rgb(0,0,0);stroke-linecap:round;fill:rgb(102,153,255);"/>
<text x="61.3" y="1379.2" font-size="46.8px" font-family="CMUBright-Roman" style="text-anchor:middle;fill:rgb(0,0,0);" transform="rotate(-85.2,61.3,1379.2)">v39</text>
<line x1='152.7' y1='1415.2' x2='132.7' y2='1414.0' style="stroke-width:3.0;stroke:rgb(0,0,0);stroke-linecap:round;fill:none;"/>
<text x="127.0" y="1425.6" font-size="31.2px" font-family="CMUBright-Roman" style="text-anchor:end;fill:rgb(0,0,0);" transform="rotate(3.6,127.0,1425.6)">0</text>
<line x1='157.4' y1='1358.9' x2='137.5' y2='1356.8' style="stroke-width:3.0;stroke:rgb(0,0,0);stroke-linecap:round;fill:none;"/>
<path d="M252.467,1421.512 A1250.000,1250.000 40.000 0,1 256.848,1369.339 L157.395,1358.887 A1350.000,1350.000 0.000 0,0 152.664,1415.233 Z" style="stroke-width:2.0;stroke:rgb(0,0,0);stroke-linecap:round;fill:none;"/>
<path d="M272.141,1265.773 A1250.000,1250.000 40.000 0,1 283.026,1214.561 L185.668,1191.726 A1350.000,1350.000 0.000 0,0 173.912,1247.035 Z" style="stroke-width:2.0;stroke:rgb(0,0,0);stroke-linecap:round;fill:rgb(153,204,255);"/>
<text x="87.8" y="1199.8" font-size="46.8px" font-family="CMUBright-Roman" style="text-anchor:middle;fill:rgb(0,0,0);" transform="rotate(-78.0,87.8,1199.8)">v40</text>
<line x1='173.9' y1='1247.0' x2='154.3' y2='1243.3' style="stroke-width:3.0;stroke:rgb(0,0,0);stroke-linecap:round;fill:none;"/>
<text x="147.2" y="1254.1" font-size="31.2px" font-family="CMUBright-Roman" style="text-anchor:end;fill:rgb(0,0,0);" transform="rotate(10.8,147.2,1254.1)">0</text>
<line x1='185.7' y1='1191.7' x2='166.2' y2='1187.2' style="stroke-width:3.0;stroke:rgb(0,0,0);stroke-linecap:round;fill:none;"/>
<path d="M272.141,1265.773 A1250.000,1250.000 40.000 0,1 283.026,1214.561 L185.668,1191.726 A1350.000,1350.000 0.000 0,0 173.912,1247.035 Z" style="stroke-width:2.0;stroke:rgb(0,0,0);stroke-linecap:round;fill:none;"/>
<path d="M311.179,1113.729 A1250.000,1250.000 40.000 0,1 328.398,1064.285 L234.669,1029.428 A1350.000,1350.000 0.000 0,0 216.074,1082.827 Z" style="stroke-width:2.0;stroke:rgb(0,0,0);stroke-linecap:round;fill:rgb(0,255,255);"/>
<text x="136.6" y="1025.2" font-size="46.8px" font-family="CMUBright-Roman" style="text-anchor:middle;fill:rgb(0,0,0);" transform="rotate(-70.8,136.6,1025.2)">v41</text>
<line x1='216.1' y1='1082.8' x2='197.1' y2='1076.6' style="stroke-width:3.0;stroke:rgb(0,0,0);stroke-linecap:round;fill:none;"/>
<text x="188.6" y="1086.5" font-size="31.2px" font-family="CMUBright-Roman" style="text-anchor:end;fill:rgb(0,0,0);" transform="rotate(18.0,188.6,1086.5)">0</text>
<line x1='234.7' y1='1029.4' x2='215.9' y2='1022.5' style="stroke-width:3.0;stroke:rgb(0,0,0);stroke-linecap:round;fill:none;"/>
<path d="M311.179,1113.729 A1250.000,1250.000 40.000 0,1 328.398,1064.285 L234.669,1029.428 A1350.000,1350.000 0.000 0,0 216.074,1082.827 Z" style="stroke-width:2.0;stroke:rgb(0,0,0);stroke-linecap:round;fill:none;"/>
<path d="M368.966,967.776 A1250.000,1250.000 40.000 0,1 392.246,920.880 L303.625,874.550 A1350.000,1350.000 0.000 0,0 278.483,925.198 Z" style="stroke-width:2.0;stroke:rgb(0,0,0);stroke-linecap:round;fill:rgb(204,255,255);"/>
<text x="206.8" y="858.1" font-size="46.8px" font-family="CMUBright-Roman" style="text-anchor:middle;fill:rgb(0,0,0);" transform="rotate(-63.6,206.8,858.1)">v42</text>
<line x1='278.5' y1='925.2' x2='260.4' y2='916.7' style="stroke-width:3.0;stroke:rgb(0,0,0);stroke-linecap:round;fill:none;"/>
<text x="250.8" y="925.4" font-size="31.2px" font-family="CMUBright-Roman" style="text-anchor:end;fill:rgb(0,0,0);" transform="rotate(25.2,250.8,925.4)">0</text>
<line x1='303.6' y1='874.6' x2='285.9' y2='865.3' style="stroke-width:3.0;stroke:rgb(0,0,0);stroke-linecap:round;fill:none;"/>
<path d="M368.966,967.776 A1250.000,1250.000 40.000 0,1 392.246,920.880 L303.625,874.550 A1350.000,1350.000 0.000 0,0 278.483,925.198 Z" style="stroke-width:2.0;stroke:rgb(0,0,0);stroke-linecap:round;fill:none;"/>
<path d="M444.590,830.217 A1250.000,1250.000 40.000 0,1 473.563,786.608 L391.449,729.537 A1350.000,1350.000 0.000 0,0 360.157,776.634 Z" style="stroke-width:2.0;stroke:rgb(0,0,0);stroke-linecap:round;fill:rgb(153,0,204);"/>
<text x="297.5" y="701.0" font-size="46.8px" font-family="CMUBright-Roman" style="text-anchor:middle;fill:rgb(0,0,0);" transform="rotate(-56.4,297.5,701.0)">v43</text>
<line x1='360.2' y1='776.6' x2='343.3' y2='765.9' style="stroke-width:3.0;stroke:rgb(0,0,0);stroke-linecap:round;fill:none;"/>
<text x="332.7" y="773.4" font-size="31.2px" font-family="CMUBright-Roman" style="text-anchor:end;fill:rgb(0,0,0);" transform="rotate(32.4,332.7,773.4)">0</text>
<line x1='391.4' y1='729.5' x2='375.0' y2='718.1' style="stroke-width:3.0;stroke:rgb(0,0,0);stroke-linecap:round;fill:none;"/>
<path d="M444.590,830.217 A1250.000,1250.000 40.000 0,1 473.563,786.608 L391.449,729.537 A1350.000,1350.000 0.000 0,0 360.157,776.634 Z" style="stroke-width:2.0;stroke:rgb(0,0,0);stroke-linecap:round;fill:none;"/>
<path d="M536.858,703.220 A1250.000,1250.000 40.000 0,1 571.069,663.587 L496.754,596.674 A1350.000,1350.000 0.000 0,0 459.807,639.478 Z" style="stroke-width:2.0;stroke:rgb(0,0,0);stroke-linecap:round;fill:rgb(204,51,255);"/>
<text x="407.1" y="556.6" font-size="46.8px" font-family="CMUBright-Roman" style="text-anchor:middle;fill:rgb(0,0,0);" transform="rotate(-49.2,407.1,556.6)">v44</text>
<line x1='459.8' y1='639.5' x2='444.4' y2='626.7' style="stroke-width:3.0;stroke:rgb(0,0,0);stroke-linecap:round;fill:none;"/>
<text x="432.9" y="632.8" font-size="31.2px" font-family="CMUBright-Roman" style="text-anchor:end;fill:rgb(0,0,0);" transform="rotate(39.6,432.9,632.8)">0</text>
<line x1='496.8' y1='596.7' x2='481.9' y2='583.3' style="stroke-width:3.0;stroke:rgb(0,0,0);stroke-linecap:round;fill:none;"/>
<path d="M536.858,703.220 A1250.000,1250.000 40.000 0,1 571.069,663.587 L496.754,596.674 A1350.000,1350.000 0.000 0,0 459.807,639.478 Z" style="stroke-width:2.0;stroke:rgb(0,0,0);stroke-linecap:round;fill:none;"/>
<path d="M644.316,588.789 A1250.000,1250.000 40.000 0,1 683.224,553.756 L617.882,478.057 A1350.000,1350.000 0.000 0,0 575.861,515.892 Z" style="stroke-width:2.0;stroke:rgb(0,0,0);stroke-linecap:round;fill:rgb(204,153,255);"/>
<text x="533.9" y="427.1" font-size="46.8px" font-family="CMUBright-Roman" style="text-anchor:middle;fill:rgb(0,0,0);" transform="rotate(-42.0,533.9,427.1)">v45</text>
<line x1='575.9' y1='515.9' x2='562.2' y2='501.3' style="stroke-width:3.0;stroke:rgb(0,0,0);stroke-linecap:round;fill:none;"/>
<text x="550.0" y="505.9" font-size="31.2px" font-family="CMUBright-Roman" style="text-anchor:end;fill:rgb(0,0,0);" transform="rotate(46.8,550.0,505.9)">0</text>
<line x1='617.9' y1='478.1' x2='604.8' y2='462.9' style="stroke-width:3.0;stroke:rgb(0,0,0);stroke-linecap:round;fill:none;"/>
<path d="M644.316,588.789 A1250.000,1250.000 40.000 0,1 683.224,553.756 L617.882,478.057 A1350.000,1350.000 0.000 0,0 575.861,515.892 Z" style="stroke-width:2.0;stroke:rgb(0,0,0);stroke-linecap:round;fill:none;"/>
<path d="M765.268,488.729 A1250.000,1250.000 40.000 0,1 808.261,458.848 L752.921,375.556 A1350.000,1350.000 0.000 0,0 706.490,407.827 Z" style="stroke-width:2.0;stroke:rgb(0,0,0);stroke-linecap:round;fill:rgb(102,102,102);"/>
<text x="676.0" y="314.5" font-size="46.8px" font-family="CMUBright-Roman" style="text-anchor:middle;fill:rgb(0,0,0);" transform="rotate(-34.8,676.0,314.5)">v46</text>
<line x1='706.5' y1='407.8' x2='694.7' y2='391.6' style="stroke-width:3.0;stroke:rgb(0,0,0);stroke-linecap:round;fill:none;"/>
<text x="682.1" y="394.7" font-size="31.2px" font-family="CMUBright-Roman" style="text-anchor:end;fill:rgb(0,0,0);" transform="rotate(54.0,682.1,394.7)">0</text>
<line x1='752.9' y1='375.6' x2='741.9' y2='358.9' style="stroke-width:3.0;stroke:rgb(0,0,0);stroke-linecap:round;fill:none;"/>
<path d="M765.268,488.729 A1250.000,1250.000 40.000 0,1 808.261,458.848 L752.921,375.556 A1350.000,1350.000 0.000 0,0 706.490,407.827 Z" style="stroke-width:2.0;stroke:rgb(0,0,0);stroke-linecap:round;fill:none;"/>
<path d="M897.808,404.617 A1250.000,1250.000 40.000 0,1 944.206,380.360 L899.743,290.789 A1350.000,1350.000 0.000 0,0 849.633,316.986 Z" style="stroke-width:2.0;stroke:rgb(0,0,0);stroke-linecap:round;fill:rgb(153,153,153);"/>
<text x="831.1" y="220.5" font-size="46.8px" font-family="CMUBright-Roman" style="text-anchor:middle;fill:rgb(0,0,0);" transform="rotate(-27.6,831.1,220.5)">v47</text>
<line x1='849.6' y1='317.0' x2='840.0' y2='299.5' style="stroke-width:3.0;stroke:rgb(0,0,0);stroke-linecap:round;fill:none;"/>
<text x="827.1" y="300.9" font-size="31.2px" font-family="CMUBright-Roman" style="text-anchor:end;fill:rgb(0,0,0);" transform="rotate(61.2,827.1,300.9)">0</text>
<line x1='899.7' y1='290.8' x2='890.8' y2='272.9' style="stroke-width:3.0;stroke:rgb(0,0,0);stroke-linecap:round;fill:none;"/>
<path d="M897.808,404.617 A1250.000,1250.000 40.000 0,1 944.206,380.360 L899.743,290.789 A1350.000,1350.000 0.000 0,0 849.633,316.986 Z" style="stroke-width:2.0;stroke:rgb(0,0,0);stroke-linecap:round;fill:none;"/>
<path d="M1039.844,337.779 A1250.000,1250.000 40.000 0,1 1088.917,319.530 L1056.030,225.092 A1350.000,1350.000 0.000 0,0 1003.032,244.802 Z" style="stroke-width:2.0;stroke:rgb(0,0,0);stroke-linecap:round;fill:rgb(204,204,153);"/>
<text x="996.7" y="146.8" font-size="46.8px" font-family="CMUBright-Roman" style="text-anchor:middle;fill:rgb(0,0,0);" transform="rotate(-20.4,996.7,146.8)">v48</text>
<line x1='1003.0' y1='244.8' x2='995.7' y2='226.2' style="stroke-width:3.0;stroke:rgb(0,0,0);stroke-linecap:round;fill:none;"/>
<text x="982.7" y="226.0" font-size="31.2px" font-family="CMUBright-Roman" style="text-anchor:end;fill:rgb(0,0,0);" transform="rotate(68.4,982.7,226.0)">0</text>
<line x1='1056.0' y1='225.1' x2='1049.5' y2='206.2' style="stroke-width:3.0;stroke:rgb(0,0,0);stroke-linecap:round;fill:none;"/>
<path d="M1039.844,337.779 A1250.000,1250.000 40.000 0,1 1088.917,319.530 L1056.030,225.092 A1350.000,1350.000 0.000 0,0 1003.032,244.802 Z" style="stroke-width:2.0;stroke:rgb(0,0,0);stroke-linecap:round;fill:none;"/>
<path d="M1189.138,289.271 A1250.000,1250.000 40.000 0,1 1240.110,277.316 L1219.319,179.501 A1350.000,1350.000 0.000 0,0 1164.269,192.413 Z" style="stroke-width:2.0;stroke:rgb(0,0,0);stroke-linecap:round;fill:rgb(153,102,0);"/>
<text x="1170.3" y="94.4" font-size="46.8px" font-family="CMUBright-Roman" style="text-anchor:middle;fill:rgb(0,0,0);" transform="rotate(-13.2,1170.3,94.4)">v49</text>
<line x1='1164.3' y1='192.4' x2='1159.3' y2='173.0' style="stroke-width:3.0;stroke:rgb(0,0,0);stroke-linecap:round;fill:none;"/>
<text x="1146.4" y="171.2" font-size="31.2px" font-family="CMUBright-Roman" style="text-anchor:end;fill:rgb(0,0,0);" transform="rotate(75.6,1146.4,171.2)">0</text>
<line x1='1219.3' y1='179.5' x2='1215.2' y2='159.9' style="stroke-width:3.0;stroke:rgb(0,0,0);stroke-linecap:round;fill:none;"/>
<path d="M1189.138,289.271 A1250.000,1250.000 40.000 0,1 1240.110,277.316 L1219.319,179.501 A1350.000,1350.000 0.000 0,0 1164.269,192.413 Z" style="stroke-width:2.0;stroke:rgb(0,0,0);stroke-linecap:round;fill:none;"/>
<path d="M1343.333,259.857 A1250.000,1250.000 40.000 0,1 1395.403,254.384 L1387.035,154.735 A1350.000,1350.000 0.000 0,0 1330.800,160.645 Z" style="stroke-width:2.0;stroke:rgb(0,0,0);stroke-linecap:round;fill:rgb(102,102,0);"/>
<text x="1349.1" y="64.2" font-size="46.8px" font-family="CMUBright-Roman" style="text-anchor:middle;fill:rgb(0,0,0);" transform="rotate(-6.0,1349.1,64.2)">v50</text>
<line x1='1330.8' y1='160.6' x2='1328.3' y2='140.8' style="stroke-width:3.0;stroke:rgb(0,0,0);stroke-linecap:round;fill:none;"/>
<text x="1315.8" y="137.4" font-size="31.2px" font-family="CMUBright-Roman" style="text-anchor:end;fill:rgb(0,0,0);" transform="rotate(82.8,1315.8,137.4)">0</text>
<line x1='1387.0' y1='154.7' x2='1385.4' y2='134.8' style="stroke-width:3.0;stroke:rgb(0,0,0);stroke-linecap:round;fill:none;"/>
<path d="M1343.333,259.857 A1250.000,1250.000 40.000 0,1 1395.403,254.384 L1387.035,154.735 A1350.000,1350.000 0.000 0,0 1330.800,160.645 Z" style="stroke-width:2.0;stroke:rgb(0,0,0);stroke-linecap:round;fill:none;"/>
</g>
<g id="track_0">
<path d="M 1525.5,281.5 L 1526.6,334.1 1531.7,385.1 1540.6,434.8 1552.7,483.3 1567.8,530.9 1585.6,577.7 1605.7,623.8 1627.8,669.4 1651.7,714.6 1677.0,759.5 1703.7,804.2 1731.4,848.7 1760.0,893.2 1789.3,937.6 1819.1,982.0 1849.3,1026.5 1879.9,1071.0 1910.6,1115.6 1941.5,1160.1 1972.4,1204.7 2003.5,1249.1 2034.5,1293.5 2065.6,1337.6 2096.7,1381.5 2128.0,1424.9 2159.4,1467.8 2191.1,1510.1 2223.2,1551.6 2255.8,1592.2 2289.0,1631.6 2323.0,1669.7 2358.0,1706.4 2394.3,1741.3 2431.9,1774.2 2471.3,1805.0 2512.5,1833.3 2556.0,1858.9 2602.1,1881.5 2651.0,1900.8  " style="stroke-opacity: 0.666667; stroke-width: 4.0; stroke: rgb(116,196,118); fill: none" />
<path d="M 1525.5,281.5 L 1522.6,378.2 1518.1,469.2 1512.3,554.9 1505.4,635.6 1497.6,711.5 1489.1,783.2 1480.2,850.7 1470.9,914.6 1461.4,975.0 1451.9,1032.4 1442.4,1087.0 1433.1,1139.1 1424.0,1189.0 1415.2,1237.0 1406.8,1283.5 1398.8,1328.8 1391.2,1373.0 1384.1,1416.6 1377.3,1459.9 1370.9,1503.0 1364.9,1546.3 1359.2,1590.1 1353.7,1634.7 1348.2,1680.3 1342.9,1727.2 1337.4,1775.8 1331.6,1826.2 1325.5,1878.8 1318.8,1933.7 1311.3,1991.4 1302.9,2052.0 1293.4,2115.8 1282.4,2183.1 1269.8,2254.1 1255.3,2329.1 1238.6,2408.3 1219.4,2492.0 1197.4,2580.4 1172.3,2673.9  " style="stroke-opacity: 0.666667; stroke-width: 4.0; stroke: rgb(116,196,118); fill: none" />
<path d="M 1525.5,281.5 L 1523.9,298.1 1519.9,313.9 1513.6,328.8 1505.2,343.0 1494.8,356.6 1482.6,369.5 1468.6,381.9 1453.0,393.9 1436.0,405.4 1417.6,416.5 1398.1,427.2 1377.4,437.5 1355.7,447.5 1333.2,457.2 1310.0,466.5 1286.2,475.6 1261.8,484.3 1237.1,492.6 1212.0,500.6 1186.8,508.3 1161.6,515.4 1136.3,522.2 1111.2,528.4 1086.3,534.1 1061.8,539.1 1037.7,543.5 1014.2,547.2 991.2,550.0 969.0,551.9 947.5,552.9 927.0,552.7 907.4,551.4 888.9,548.8 871.5,544.7 855.4,539.2 840.5,532.0 827.0,523.0 815.0,512.2 804.4,499.2  " style="stroke-opacity: 0.666667; stroke-width: 4.0; stroke: rgb(116,196,118); fill: none" />
<path d="M 1525.5,281.5 L 1524.2,296.4 1520.9,310.3 1515.7,323.5 1508.8,335.9 1500.3,347.6 1490.2,358.6 1478.7,369.1 1465.9,379.0 1451.8,388.4 1436.7,397.4 1420.6,405.8 1403.5,413.9 1385.6,421.5 1367.1,428.8 1347.9,435.6 1328.2,442.1 1308.0,448.2 1287.6,453.9 1266.9,459.2 1246.0,464.1 1225.1,468.6 1204.3,472.5 1183.5,476.0 1163.0,479.0 1142.8,481.4 1122.9,483.1 1103.5,484.2 1084.7,484.6 1066.4,484.2 1048.9,482.9 1032.1,480.8 1016.3,477.6 1001.3,473.3 987.4,467.9 974.5,461.2 962.8,453.2 952.3,443.7 943.2,432.6 935.4,419.9  " style="stroke-opacity: 0.666667; stroke-width: 4.0; stroke: rgb(116,196,118); fill: none" />
<path d="M 1678.0,294.3 L 1669.6,336.6 1657.1,377.1 1641.0,416.0 1621.6,453.6 1599.2,490.1 1574.0,525.7 1546.3,560.4 1516.4,594.6 1484.6,628.3 1451.0,661.6 1416.0,694.7 1379.6,727.5 1342.1,760.3 1303.6,793.1 1264.4,825.8 1224.6,858.5 1184.3,891.2 1143.6,923.9 1102.7,956.5 1061.6,989.1 1020.5,1021.5 979.4,1053.6 938.3,1085.4 897.4,1116.7 856.6,1147.4 815.9,1177.3 775.4,1206.4 735.1,1234.3 694.9,1260.9 654.8,1286.0 614.8,1309.3 574.7,1330.5 534.5,1349.5 494.2,1365.9 453.5,1379.4 412.5,1389.8 370.9,1396.5 328.6,1399.4 285.5,1398.0  " style="stroke-opacity: 0.666667; stroke-width: 4.0; stroke: rgb(116,196,118); fill: none" />
<path d="M 2109.4,444.5 L 2081.2,488.9 2050.4,529.9 2017.1,567.8 1981.6,603.1 1944.0,636.0 1904.6,666.8 1863.5,695.8 1821.0,723.4 1777.1,749.7 1732.2,774.9 1686.2,799.3 1639.5,823.0 1592.0,846.2 1543.9,869.1 1495.4,891.6 1446.5,914.0 1397.3,936.3 1347.9,958.5 1298.4,980.6 1248.9,1002.6 1199.3,1024.6 1149.8,1046.5 1100.4,1068.1 1051.0,1089.5 1001.8,1110.5 952.6,1130.9 903.6,1150.7 854.7,1169.5 805.8,1187.3 757.0,1203.9 708.1,1218.8 659.2,1232.0 610.1,1243.1 560.8,1251.8 511.2,1257.7 461.3,1260.6 410.8,1259.9 359.7,1255.4 307.9,1246.6  " style="stroke-opacity: 0.666667; stroke-width: 4.0; stroke: rgb(116,196,118); fill: none" />
<path d="M 2455.1,743.0 L 2435.0,761.5 2417.8,782.4 2403.3,805.6 2391.2,831.0 2381.4,858.4 2373.6,887.8 2367.6,919.0 2363.2,951.8 2360.1,986.2 2358.4,1022.1 2357.7,1059.2 2357.9,1097.4 2359.0,1136.7 2360.8,1176.9 2363.2,1217.9 2366.1,1259.4 2369.5,1301.4 2373.3,1343.7 2377.5,1386.3 2381.9,1428.8 2386.7,1471.3 2391.8,1513.5 2397.2,1555.3 2403.0,1596.5 2409.2,1637.0 2415.8,1676.7 2422.9,1715.4 2430.6,1752.9 2439.0,1789.0 2448.2,1823.7 2458.3,1856.7 2469.4,1888.0 2481.8,1917.2 2495.6,1944.3 2510.9,1969.1 2527.9,1991.5 2546.9,2011.1 2568.1,2028.0 2591.6,2041.9  " style="stroke-opacity: 0.666667; stroke-width: 4.0; stroke: rgb(116,196,118); fill: none" />
<path d="M 2542.5,868.7 L 2475.4,911.1 2412.9,954.0 2354.6,997.3 2300.0,1040.8 2248.9,1084.3 2200.8,1127.8 2155.5,1171.1 2112.5,1214.2 2071.6,1256.9 2032.5,1299.2 1995.0,1341.0 1958.7,1382.4 1923.4,1423.3 1889.0,1463.6 1855.2,1503.5 1821.9,1543.0 1788.8,1582.0 1755.9,1620.7 1723.0,1659.1 1690.0,1697.4 1656.8,1735.5 1623.3,1773.7 1589.5,1812.2 1555.4,1850.9 1520.9,1890.2 1485.9,1930.1 1450.7,1970.9 1415.0,2012.9 1379.1,2056.2 1343.0,2101.0 1306.7,2147.7 1270.4,2196.5 1234.2,2247.7 1198.2,2301.6 1162.6,2358.5 1127.5,2418.8 1093.2,2482.9 1059.9,2551.0 1027.7,2623.5  " style="stroke-opacity: 0.666667; stroke-width: 4.0; stroke: rgb(116,196,118); fill: none" />
<path d="M 2613.4,1004.3 L 2546.7,1035.8 2484.2,1069.0 2425.5,1103.5 2370.1,1139.2 2317.8,1175.7 2268.1,1213.1 2220.9,1250.9 2175.8,1289.2 2132.5,1327.8 2090.8,1366.5 2050.4,1405.3 2011.1,1444.0 1972.7,1482.6 1935.0,1521.0 1897.8,1559.2 1861.0,1597.2 1824.4,1635.0 1788.0,1672.5 1751.6,1709.9 1715.1,1747.1 1678.5,1784.3 1641.7,1821.5 1604.7,1858.9 1567.5,1896.5 1530.1,1934.4 1492.5,1972.9 1454.7,2012.1 1416.8,2052.2 1378.9,2093.4 1341.1,2136.0 1303.4,2180.1 1266.1,2226.0 1229.2,2274.0 1192.9,2324.4 1157.5,2377.5 1123.0,2433.6 1089.7,2493.0 1057.9,2556.2 1027.7,2623.5  " style="stroke-opacity: 0.666667; stroke-width: 4.0; stroke: rgb(116,196,118); fill: none" />
<path d="M 2666.7,1147.7 L 2646.9,1155.5 2628.7,1166.0 2612.0,1179.2 2596.7,1194.9 2582.7,1212.9 2569.8,1233.1 2557.9,1255.3 2546.8,1279.4 2536.6,1305.2 2527.1,1332.5 2518.2,1361.3 2509.9,1391.3 2502.0,1422.4 2494.6,1454.5 2487.6,1487.4 2481.1,1521.0 2474.8,1555.1 2468.9,1589.6 2463.4,1624.4 2458.3,1659.3 2453.5,1694.2 2449.1,1729.0 2445.2,1763.5 2441.8,1797.5 2439.0,1831.1 2436.8,1863.9 2435.3,1896.0 2434.6,1927.1 2434.8,1957.2 2436.1,1986.1 2438.4,2013.8 2442.0,2040.0 2447.0,2064.7 2453.5,2087.8 2461.7,2109.1 2471.8,2128.5 2484.0,2146.0 2498.3,2161.3 2515.1,2174.4  " style="stroke-opacity: 0.666667; stroke-width: 4.0; stroke: rgb(116,196,118); fill: none" />
<path d="M 2666.7,1147.7 L 2617.1,1165.0 2570.1,1185.6 2525.6,1209.4 2483.2,1236.0 2442.6,1265.1 2403.6,1296.4 2365.9,1329.8 2329.4,1364.9 2293.8,1401.5 2259.0,1439.5 2224.7,1478.7 2190.9,1518.8 2157.5,1559.7 2124.3,1601.3 2091.2,1643.4 2058.3,1685.9 2025.4,1728.7 1992.5,1771.7 1959.7,1814.9 1926.9,1858.1 1894.2,1901.3 1861.6,1944.5 1829.2,1987.7 1797.1,2030.9 1765.5,2074.0 1734.3,2117.2 1703.9,2160.4 1674.4,2203.7 1645.9,2247.3 1618.6,2291.0 1592.9,2335.2 1568.9,2379.8 1546.9,2425.1 1527.2,2471.1 1510.1,2518.0 1495.9,2566.0 1485.0,2615.3 1477.7,2666.0 1474.5,2718.5  " style="stroke-opacity: 0.666667; stroke-width: 4.0; stroke: rgb(116,196,118); fill: none" />
<path d="M 2692.1,1753.4 L 2677.4,1751.3 2663.0,1751.3 2649.0,1753.4 2635.4,1757.3 2622.0,1762.9 2609.0,1770.2 2596.1,1779.0 2583.6,1789.2 2571.2,1800.7 2559.1,1813.4 2547.1,1827.2 2535.4,1842.0 2523.9,1857.6 2512.6,1874.0 2501.5,1891.2 2490.7,1908.9 2480.2,1927.1 2469.9,1945.7 2460.0,1964.6 2450.5,1983.8 2441.4,2003.1 2432.8,2022.5 2424.6,2041.9 2417.1,2061.2 2410.1,2080.4 2403.9,2099.3 2398.4,2118.0 2393.7,2136.2 2389.9,2154.1 2387.2,2171.4 2385.5,2188.2 2385.0,2204.4 2385.7,2220.0 2387.8,2234.8 2391.4,2248.8 2396.5,2262.0 2403.3,2274.4 2412.0,2285.9 2422.6,2296.4  " style="stroke-opacity: 0.666667; stroke-width: 4.0; stroke: rgb(116,196,118); fill: none" />
<path d="M 2692.1,1753.4 L 2657.8,1748.3 2623.6,1747.4 2589.4,1750.3 2555.0,1756.8 2520.5,1766.5 2485.7,1779.1 2450.7,1794.4 2415.4,1812.0 2379.6,1831.7 2343.6,1853.3 2307.1,1876.5 2270.4,1901.2 2233.2,1927.1 2195.8,1954.0 2158.1,1981.8 2120.2,2010.4 2082.1,2039.5 2043.9,2069.1 2005.8,2099.0 1967.7,2129.2 1929.9,2159.5 1892.3,2189.9 1855.3,2220.3 1818.8,2250.7 1783.1,2281.1 1748.3,2311.4 1714.7,2341.6 1682.2,2371.8 1651.3,2402.0 1622.1,2432.1 1594.7,2462.4 1569.5,2492.8 1546.6,2523.4 1526.4,2554.4 1509.1,2585.8 1495.0,2617.8 1484.3,2650.4 1477.3,2683.9 1474.5,2718.5  " style="stroke-opacity: 0.666667; stroke-width: 4.0; stroke: rgb(116,196,118); fill: none" />
<path d="M 2692.1,1753.4 L 2649.5,1746.6 2607.2,1744.2 2565.1,1745.7 2523.1,1750.8 2481.1,1759.1 2439.0,1770.3 2396.8,1784.1 2354.3,1800.2 2311.7,1818.3 2268.8,1838.1 2225.5,1859.5 2182.0,1882.1 2138.2,1905.9 2094.2,1930.5 2049.8,1955.8 2005.3,1981.8 1960.6,2008.1 1915.7,2034.9 1870.9,2061.8 1826.1,2089.0 1781.4,2116.2 1736.9,2143.6 1692.8,2171.0 1649.2,2198.4 1606.2,2226.0 1564.0,2253.6 1522.7,2281.5 1482.4,2309.5 1443.5,2337.9 1406.0,2366.8 1370.2,2396.2 1336.3,2426.4 1304.5,2457.4 1275.1,2489.5 1248.2,2522.9 1224.2,2557.7 1203.4,2594.4 1186.0,2633.0 1172.3,2673.9  " style="stroke-opacity: 0.666667; stroke-width: 4.0; stroke: rgb(116,196,118); fill: none" />
<path d="M 2692.1,1753.4 L 2645.0,1745.6 2598.4,1742.2 2552.2,1742.7 2506.2,1746.8 2460.4,1754.1 2414.7,1764.1 2368.9,1776.7 2323.2,1791.5 2277.3,1808.2 2231.3,1826.6 2185.0,1846.3 2138.6,1867.3 2092.0,1889.2 2045.2,1911.9 1998.2,1935.3 1950.9,1959.2 1903.6,1983.4 1856.1,2007.9 1808.7,2032.6 1761.2,2057.4 1713.8,2082.3 1666.6,2107.3 1619.7,2132.3 1573.1,2157.5 1527.1,2182.8 1481.7,2208.3 1437.1,2234.0 1393.4,2260.2 1350.8,2286.9 1309.5,2314.2 1269.6,2342.3 1231.3,2371.5 1194.9,2401.8 1160.5,2433.6 1128.4,2467.1 1098.8,2502.5 1072.0,2540.2 1048.2,2580.4 1027.7,2623.5  " style="stroke-opacity: 0.666667; stroke-width: 4.0; stroke: rgb(116,196,118); fill: none" />
<path d="M 2692.1,1753.4 L 2608.6,1737.0 2528.7,1723.9 2452.3,1713.8 2379.1,1706.1 2309.0,1700.7 2241.7,1697.2 2177.0,1695.3 2114.7,1694.7 2054.7,1695.3 1996.7,1696.6 1940.5,1698.6 1886.0,1701.1 1832.9,1703.9 1781.0,1706.8 1730.2,1709.7 1680.2,1712.6 1630.9,1715.3 1582.1,1717.9 1533.5,1720.1 1485.0,1722.2 1436.4,1724.0 1387.5,1725.5 1338.2,1726.9 1288.1,1728.3 1237.3,1729.6 1185.3,1731.0 1132.2,1732.7 1077.6,1734.8 1021.5,1737.5 963.6,1741.0 903.7,1745.5 841.7,1751.3 777.4,1758.6 710.6,1767.7 641.2,1779.0 568.9,1792.7 493.6,1809.2 415.1,1829.0 333.3,1852.3  " style="stroke-opacity: 0.666667; stroke-width: 4.0; stroke: rgb(116,196,118); fill: none" />
<path d="M 2591.6,2041.9 L 2526.4,2007.6 2465.3,1971.9 2408.0,1934.9 2354.2,1897.0 2303.5,1858.2 2255.5,1818.9 2209.9,1779.0 2166.4,1738.9 2124.7,1698.5 2084.7,1658.1 2045.9,1617.7 2008.3,1577.4 1971.5,1537.2 1935.5,1497.2 1899.9,1457.5 1864.7,1418.0 1829.8,1378.7 1795.0,1339.7 1760.2,1300.8 1725.3,1262.1 1690.3,1223.4 1655.1,1184.7 1619.7,1145.8 1584.1,1106.7 1548.3,1067.2 1512.3,1027.2 1476.2,986.4 1440.0,944.8 1403.9,902.0 1367.9,857.9 1332.1,812.3 1296.7,764.9 1261.9,715.4 1227.7,663.5 1194.5,609.0 1162.4,551.5 1131.6,490.7 1102.5,426.2 1075.2,357.7  " style="stroke-opacity: 0.666667; stroke-width: 4.0; stroke: rgb(116,196,118); fill: none" />
<path d="M 2515.1,2174.4 L 2488.3,2159.1 2460.1,2147.6 2430.4,2139.5 2399.4,2134.5 2367.0,2132.4 2333.3,2132.9 2298.4,2135.6 2262.4,2140.5 2225.2,2147.2 2187.0,2155.5 2147.9,2165.2 2108.0,2176.2 2067.3,2188.2 2025.9,2201.1 1983.9,2214.9 1941.5,2229.2 1898.8,2244.1 1855.8,2259.5 1812.8,2275.2 1769.8,2291.2 1726.9,2307.4 1684.3,2323.9 1642.2,2340.5 1600.8,2357.4 1560.0,2374.4 1520.3,2391.6 1481.6,2409.1 1444.2,2426.9 1408.2,2445.1 1373.9,2463.8 1341.4,2483.0 1310.9,2502.9 1282.7,2523.6 1256.9,2545.2 1233.8,2568.0 1213.5,2592.0 1196.4,2617.6 1182.5,2644.8 1172.3,2673.9  " style="stroke-opacity: 0.666667; stroke-width: 4.0; stroke: rgb(116,196,118); fill: none" />
<path d="M 2422.6,2296.4 L 2405.4,2283.7 2386.8,2274.0 2366.7,2267.0 2345.3,2262.5 2322.5,2260.3 2298.6,2260.2 2273.4,2262.1 2247.2,2265.7 2220.0,2270.8 2191.8,2277.4 2162.7,2285.3 2132.9,2294.4 2102.4,2304.4 2071.4,2315.4 2039.9,2327.1 2008.0,2339.6 1975.8,2352.6 1943.5,2366.1 1911.2,2380.1 1878.9,2394.5 1846.9,2409.1 1815.2,2424.1 1784.0,2439.3 1753.4,2454.7 1723.6,2470.2 1694.7,2486.0 1666.8,2501.9 1640.2,2518.0 1614.9,2534.3 1591.1,2550.8 1569.0,2567.6 1548.8,2584.7 1530.6,2602.2 1514.6,2620.0 1501.1,2638.4 1490.1,2657.3 1481.8,2676.9 1476.6,2697.3 1474.5,2718.5  " style="stroke-opacity: 0.666667; stroke-width: 4.0; stroke: rgb(116,196,118); fill: none" />
<path d="M 2422.6,2296.4 L 2400.7,2280.0 2376.9,2267.0 2351.4,2257.2 2324.2,2250.1 2295.4,2245.6 2265.1,2243.4 2233.3,2243.4 2200.2,2245.2 2165.9,2248.6 2130.3,2253.6 2093.7,2259.9 2056.2,2267.3 2017.8,2275.7 1978.7,2285.0 1938.9,2295.1 1898.6,2305.7 1858.0,2316.9 1817.1,2328.6 1776.1,2340.6 1735.2,2353.0 1694.4,2365.6 1653.9,2378.6 1613.8,2391.7 1574.4,2405.1 1535.7,2418.7 1498.0,2432.7 1461.4,2446.9 1426.0,2461.5 1392.0,2476.5 1359.7,2492.0 1329.1,2508.2 1300.6,2525.0 1274.2,2542.6 1250.1,2561.2 1228.6,2580.9 1209.9,2601.8 1194.1,2624.1 1181.5,2648.1 1172.3,2673.9  " style="stroke-opacity: 0.666667; stroke-width: 4.0; stroke: rgb(116,196,118); fill: none" />
<path d="M 2422.6,2296.4 L 2397.9,2277.8 2371.3,2262.8 2342.9,2251.0 2312.7,2242.2 2280.9,2236.1 2247.4,2232.3 2212.5,2230.7 2176.1,2231.0 2138.4,2232.9 2099.5,2236.4 2059.5,2241.2 2018.4,2247.0 1976.5,2253.9 1933.9,2261.5 1890.5,2269.9 1846.7,2278.8 1802.4,2288.2 1757.8,2298.1 1713.2,2308.3 1668.5,2318.8 1623.9,2329.5 1579.6,2340.5 1535.8,2351.7 1492.5,2363.2 1450.0,2375.0 1408.4,2387.1 1367.8,2399.6 1328.4,2412.6 1290.5,2426.1 1254.1,2440.4 1219.4,2455.3 1186.7,2471.3 1156.1,2488.3 1127.8,2506.5 1102.0,2526.2 1078.9,2547.5 1058.7,2570.7 1041.6,2595.9 1027.7,2623.5  " style="stroke-opacity: 0.666667; stroke-width: 4.0; stroke: rgb(116,196,118); fill: none" />
<path d="M 2422.6,2296.4 L 2345.4,2228.8 2273.9,2164.5 2207.6,2103.3 2146.3,2045.2 2089.5,1990.1 2036.7,1937.9 1987.8,1888.3 1942.3,1841.4 1899.9,1797.0 1860.2,1754.9 1822.8,1715.0 1787.6,1677.1 1754.2,1641.1 1722.2,1606.8 1691.3,1573.9 1661.4,1542.4 1632.1,1511.9 1603.1,1482.3 1574.2,1453.4 1545.1,1424.9 1515.5,1396.6 1485.3,1368.2 1454.3,1339.5 1422.1,1310.2 1388.6,1280.1 1353.6,1248.8 1316.9,1216.2 1278.3,1181.7 1237.6,1145.3 1194.7,1106.4 1149.4,1064.9 1101.5,1020.4 1051.0,972.5 997.6,920.9 941.3,865.3 882.0,805.1 819.4,740.2 753.7,670.1 684.5,594.3  " style="stroke-opacity: 0.666667; stroke-width: 4.0; stroke: rgb(116,196,118); fill: none" />
<path d="M 2195.6,2500.8 L 2185.0,2487.8 2173.0,2477.0 2159.5,2468.0 2144.6,2460.8 2128.5,2455.3 2111.1,2451.2 2092.6,2448.6 2073.0,2447.3 2052.5,2447.1 2031.0,2448.1 2008.8,2450.0 1985.8,2452.8 1962.3,2456.5 1938.2,2460.9 1913.7,2465.9 1888.8,2471.6 1863.7,2477.8 1838.4,2484.6 1813.2,2491.7 1788.0,2499.4 1762.9,2507.4 1738.2,2515.7 1713.8,2524.4 1690.0,2533.5 1666.8,2542.8 1644.3,2552.5 1622.6,2562.5 1601.9,2572.8 1582.4,2583.5 1564.0,2594.6 1547.0,2606.1 1531.4,2618.1 1517.4,2630.5 1505.2,2643.4 1494.8,2657.0 1486.4,2671.2 1480.1,2686.1 1476.1,2701.9 1474.5,2718.5  " style="stroke-opacity: 0.666667; stroke-width: 4.0; stroke: rgb(116,196,118); fill: none" />
<path d="M 2195.6,2500.8 L 2166.5,2462.9 2134.9,2428.5 2100.8,2397.2 2064.5,2368.7 2026.2,2342.6 1985.9,2318.7 1944.0,2296.6 1900.5,2276.0 1855.6,2256.8 1809.5,2238.6 1762.3,2221.4 1714.1,2204.9 1665.1,2189.0 1615.4,2173.5 1565.1,2158.3 1514.4,2143.4 1463.3,2128.7 1411.9,2114.0 1360.4,2099.5 1308.8,2085.1 1257.2,2070.8 1205.7,2056.7 1154.4,2042.9 1103.2,2029.4 1052.4,2016.3 1001.8,2003.8 951.7,1992.0 901.9,1981.2 852.6,1971.5 803.8,1963.1 755.4,1956.3 707.6,1951.3 660.2,1948.5 613.4,1948.2 567.1,1950.6 521.3,1956.2 475.9,1965.3 431.1,1978.3 386.6,1995.7  " style="stroke-opacity: 0.666667; stroke-width: 4.0; stroke: rgb(116,196,118); fill: none" />
<path d="M 2195.6,2500.8 L 2144.6,2425.5 2098.2,2353.1 2055.9,2283.4 2017.2,2216.4 1981.9,2152.0 1949.6,2090.1 1919.9,2030.6 1892.4,1973.3 1867.0,1918.2 1843.3,1865.1 1821.0,1813.8 1799.9,1764.2 1779.7,1716.2 1760.2,1669.5 1741.3,1624.1 1722.6,1579.7 1704.2,1536.2 1685.7,1493.3 1667.2,1450.9 1648.4,1408.6 1629.3,1366.4 1609.7,1324.0 1589.7,1281.2 1569.2,1237.6 1548.1,1193.2 1526.5,1147.5 1504.3,1100.4 1481.6,1051.5 1458.4,1000.6 1434.8,947.4 1410.8,891.6 1386.6,832.9 1362.3,771.0 1337.9,705.6 1313.7,636.2 1289.8,562.7 1266.3,484.6 1243.6,401.7 1221.7,313.5  " style="stroke-opacity: 0.666667; stroke-width: 4.0; stroke: rgb(116,196,118); fill: none" />
<path d="M 2064.6,2580.1 L 2024.0,2505.3 1983.2,2435.4 1942.3,2370.0 1901.6,2308.8 1861.0,2251.3 1820.8,2197.2 1781.0,2146.1 1741.8,2097.8 1703.1,2051.9 1665.1,2008.1 1627.8,1966.0 1591.1,1925.6 1555.1,1886.4 1519.8,1848.3 1485.1,1811.1 1451.1,1774.4 1417.5,1738.1 1384.5,1702.1 1351.7,1666.1 1319.3,1630.1 1286.9,1593.8 1254.5,1557.1 1222.0,1520.0 1189.1,1482.3 1155.6,1443.9 1121.4,1404.8 1086.3,1364.9 1049.9,1324.2 1012.0,1282.7 972.4,1240.3 930.7,1197.0 886.8,1153.0 840.2,1108.1 790.6,1062.4 737.6,1016.1 681.0,969.1 620.2,921.7 555.0,873.8 484.9,825.6  " style="stroke-opacity: 0.666667; stroke-width: 4.0; stroke: rgb(116,196,118); fill: none" />
<path d="M 1778.3,2686.5 L 1771.8,2666.2 1762.5,2647.4 1750.3,2630.0 1735.6,2613.7 1718.5,2598.6 1699.2,2584.4 1677.8,2571.1 1654.5,2558.6 1629.4,2546.8 1602.7,2535.6 1574.5,2524.9 1545.1,2514.7 1514.5,2504.9 1483.0,2495.5 1450.6,2486.5 1417.5,2477.8 1383.8,2469.4 1349.7,2461.4 1315.3,2453.7 1280.8,2446.4 1246.3,2439.4 1211.9,2432.9 1177.7,2426.8 1143.9,2421.3 1110.6,2416.4 1078.0,2412.1 1046.1,2408.6 1015.0,2406.0 985.0,2404.3 956.0,2403.7 928.3,2404.3 901.9,2406.2 876.9,2409.7 853.5,2414.7 831.7,2421.6 811.7,2430.5 793.5,2441.5 777.3,2454.8 763.1,2470.8  " style="stroke-opacity: 0.666667; stroke-width: 4.0; stroke: rgb(116,196,118); fill: none" />
<path d="M 1474.5,2718.5 L 1474.2,2706.0 1472.9,2694.3 1470.6,2683.4 1467.4,2673.3 1463.3,2664.0 1458.4,2655.3 1452.7,2647.2 1446.3,2639.8 1439.2,2632.9 1431.6,2626.6 1423.4,2620.8 1414.7,2615.5 1405.6,2610.7 1396.1,2606.4 1386.2,2602.5 1376.0,2599.1 1365.6,2596.2 1355.1,2593.7 1344.3,2591.6 1333.5,2590.0 1322.6,2588.9 1311.8,2588.2 1301.0,2588.1 1290.3,2588.4 1279.7,2589.2 1269.4,2590.6 1259.2,2592.5 1249.4,2595.1 1239.9,2598.3 1230.7,2602.1 1222.0,2606.6 1213.7,2611.9 1206.0,2618.0 1198.7,2624.9 1192.1,2632.7 1186.1,2641.4 1180.8,2651.2 1176.1,2661.9 1172.3,2673.9  " style="stroke-opacity: 0.666667; stroke-width: 4.0; stroke: rgb(116,196,118); fill: none" />
<path d="M 1172.3,2673.9 L 1175.3,2659.2 1176.1,2644.9 1175.0,2630.8 1172.0,2617.0 1167.2,2603.3 1160.7,2589.8 1152.7,2576.5 1143.3,2563.3 1132.6,2550.2 1120.7,2537.3 1107.7,2524.5 1093.7,2511.9 1078.8,2499.4 1063.1,2487.1 1046.7,2475.0 1029.7,2463.1 1012.2,2451.4 994.3,2440.0 976.0,2429.0 957.5,2418.3 938.8,2408.0 919.9,2398.1 901.1,2388.8 882.3,2380.0 863.6,2371.9 845.1,2364.5 826.9,2357.8 808.9,2352.0 791.3,2347.1 774.2,2343.3 757.5,2340.5 741.4,2339.0 725.8,2338.7 710.9,2339.9 696.7,2342.6 683.2,2346.9 670.4,2352.9 658.4,2360.9 647.3,2370.8  " style="stroke-opacity: 0.666667; stroke-width: 4.0; stroke: rgb(116,196,118); fill: none" />
<path d="M 1172.3,2673.9 L 1177.7,2647.0 1179.3,2620.0 1177.4,2592.7 1172.2,2565.1 1164.0,2537.2 1153.1,2508.8 1139.6,2480.0 1123.9,2450.9 1106.1,2421.2 1086.5,2391.2 1065.2,2360.8 1042.5,2330.0 1018.6,2298.8 993.5,2267.3 967.5,2235.6 940.7,2203.8 913.3,2171.8 885.3,2139.7 857.0,2107.8 828.3,2076.0 799.5,2044.4 770.6,2013.3 741.6,1982.7 712.7,1952.7 683.9,1923.5 655.3,1895.3 626.8,1868.2 598.5,1842.4 570.5,1818.1 542.6,1795.4 515.0,1774.6 487.7,1756.0 460.5,1739.6 433.4,1725.7 406.4,1714.6 379.5,1706.6 352.6,1701.8 325.5,1700.6 298.3,1703.2  " style="stroke-opacity: 0.666667; stroke-width: 4.0; stroke: rgb(116,196,118); fill: none" />
<path d="M 1172.3,2673.9 L 1180.5,2636.0 1184.5,2598.0 1184.6,2559.9 1181.1,2521.4 1174.4,2482.7 1164.8,2443.6 1152.5,2404.1 1138.0,2364.1 1121.4,2323.8 1103.0,2282.9 1083.0,2241.7 1061.7,2200.0 1039.2,2157.9 1015.8,2115.4 991.6,2072.6 966.7,2029.5 941.3,1986.2 915.6,1942.8 889.5,1899.4 863.2,1856.0 836.8,1812.8 810.3,1769.8 783.7,1727.3 757.0,1685.3 730.3,1644.0 703.5,1603.6 676.6,1564.2 649.5,1525.9 622.2,1489.1 594.6,1453.9 566.5,1420.5 537.8,1389.1 508.5,1359.9 478.3,1333.3 447.1,1309.4 414.6,1288.5 380.8,1270.9 345.3,1256.8 307.9,1246.6  " style="stroke-opacity: 0.666667; stroke-width: 4.0; stroke: rgb(116,196,118); fill: none" />
<path d="M 1172.3,2673.9 L 1192.1,2597.0 1208.3,2522.9 1221.2,2451.4 1231.1,2382.4 1238.6,2315.7 1243.9,2251.1 1247.3,2188.4 1249.2,2127.7 1249.7,2068.5 1249.3,2010.9 1248.0,1954.7 1246.1,1899.7 1243.9,1845.8 1241.3,1792.8 1238.6,1740.6 1235.9,1689.0 1233.3,1637.9 1230.8,1587.2 1228.5,1536.7 1226.4,1486.2 1224.5,1435.6 1222.7,1384.9 1221.0,1333.7 1219.4,1282.1 1217.7,1229.9 1215.8,1176.8 1213.6,1122.9 1210.8,1068.0 1207.4,1011.8 1203.0,954.4 1197.5,895.5 1190.6,835.1 1181.9,773.0 1171.3,709.1 1158.2,643.2 1142.5,575.2 1123.7,505.1 1101.4,432.6 1075.2,357.7  " style="stroke-opacity: 0.666667; stroke-width: 4.0; stroke: rgb(116,196,118); fill: none" />
<path d="M 544.9,2257.0 L 554.3,2248.8 562.5,2240.4 569.4,2231.7 575.1,2222.8 579.7,2213.6 583.3,2204.3 585.9,2194.8 587.6,2185.1 588.4,2175.3 588.4,2165.4 587.6,2155.4 586.1,2145.3 584.0,2135.2 581.3,2125.1 577.9,2115.1 574.1,2105.1 569.7,2095.2 564.9,2085.5 559.7,2075.9 554.0,2066.5 547.9,2057.4 541.5,2048.7 534.8,2040.2 527.7,2032.2 520.3,2024.6 512.7,2017.5 504.7,2010.9 496.5,2004.9 488.0,1999.6 479.2,1995.0 470.1,1991.2 460.8,1988.2 451.1,1986.1 441.2,1984.9 431.0,1984.8 420.4,1985.7 409.5,1987.8 398.3,1991.1 386.6,1995.7  " style="stroke-opacity: 0.666667; stroke-width: 4.0; stroke: rgb(116,196,118); fill: none" />
<path d="M 544.9,2257.0 L 580.9,2225.7 613.2,2191.9 642.3,2156.0 668.5,2118.0 692.1,2078.1 713.5,2036.4 732.9,1993.1 750.7,1948.4 767.1,1902.4 782.2,1855.3 796.5,1807.1 809.9,1758.0 822.7,1708.1 835.1,1657.5 847.1,1606.4 858.8,1554.8 870.3,1502.9 881.6,1450.7 892.9,1398.3 904.0,1345.9 915.0,1293.6 925.9,1241.3 936.5,1189.1 946.8,1137.3 956.6,1085.7 965.9,1034.5 974.5,983.7 982.2,933.3 988.8,883.5 994.1,834.2 997.9,785.5 999.8,737.5 999.6,690.1 997.0,643.3 991.7,597.2 983.3,551.9 971.3,507.2 955.5,463.2 935.4,419.9  " style="stroke-opacity: 0.666667; stroke-width: 4.0; stroke: rgb(116,196,118); fill: none" />
<path d="M 307.9,1246.6 L 326.5,1249.1 345.0,1248.6 363.3,1245.4 381.5,1239.6 399.6,1231.5 417.7,1221.1 435.8,1208.7 453.9,1194.4 472.0,1178.4 490.1,1160.8 508.3,1141.8 526.4,1121.5 544.6,1100.1 562.7,1077.6 580.8,1054.4 598.8,1030.3 616.7,1005.7 634.3,980.6 651.8,955.0 668.9,929.2 685.7,903.3 702.0,877.2 717.8,851.2 733.0,825.3 747.4,799.6 761.1,774.2 773.8,749.2 785.5,724.6 795.9,700.5 805.1,677.0 812.9,654.1 819.1,631.8 823.5,610.4 826.0,589.7 826.5,569.8 824.8,550.8 820.7,532.7 813.9,515.5 804.4,499.2  " style="stroke-opacity: 0.666667; stroke-width: 4.0; stroke: rgb(116,196,118); fill: none" />
</g>
</svg>
