<?xml version="1.0" encoding="utf-8" standalone="no"?>
<!DOCTYPE svg PUBLIC "-//W3C//DTD SVG 1.1//EN" "http://www.w3.org/Graphics/SVG/1.1/DTD/svg11.dtd">
<svg width="3000px" height="3000px" version="1.1" xmlns="http://www.w3.org/2000/svg" xmlns:xlink="http://www.w3.org/1999/xlink">
<g id="ideograms">
<path d="M1500.000,250.000 A1250.000,1250.000 40.000 0,1 1944.563,331.726 L1980.129,238.264 A1350.000,1350.000 0.000 0,0 1500.000,150.000 Z" style="stroke-width:2.0;stroke:rgb(0,0,0);stroke-linecap:round;fill:rgb(153,102,0);"/>
<text x="1761.0" y="80.0" font-size="46.8px" font-family="CMUBright-Roman" style="text-anchor:middle;fill:rgb(0,0,0);" transform="rotate(370.4,1761.0,80.0)">length</text>
<line x1='1500.0' y1='150.0' x2='1500.0' y2='130.0' style="stroke-width:3.0;stroke:rgb(0,0,0);stroke-linecap:round;fill:none;"/>
<text x="1512.0" y="125.1" font-size="31.2px" font-family="CMUBright-Roman" style="text-anchor:start;fill:rgb(0,0,0);" transform="rotate(270.0,1512.0,125.1)">0</text>
<line x1='1980.1' y1='238.3' x2='1987.2' y2='219.6' style="stroke-width:3.0;stroke:rgb(0,0,0);stroke-linecap:round;fill:none;"/>
<path d="M1500.000,250.000 A1250.000,1250.000 40.000 0,1 1944.563,331.726 L1980.129,238.264 A1350.000,1350.000 0.000 0,0 1500.000,150.000 Z" style="stroke-width:2.0;stroke:rgb(0,0,0);stroke-linecap:round;fill:none;"/>
<path d="M2383.883,616.117 A1250.000,1250.000 40.000 0,1 2640.448,988.260 L2731.684,947.320 A1350.000,1350.000 0.000 0,0 2454.594,545.406 Z" style="stroke-width:2.0;stroke:rgb(0,0,0);stroke-linecap:round;fill:rgb(102,102,0);"/>
<text x="2688.6" y="680.5" font-size="46.8px" font-family="CMUBright-Roman" style="text-anchor:middle;fill:rgb(0,0,0);" transform="rotate(415.4,2688.6,680.5)">diameter</text>
<line x1='2454.6' y1='545.4' x2='2468.7' y2='531.3' style="stroke-width:3.0;stroke:rgb(0,0,0);stroke-linecap:round;fill:none;"/>
<text x="2480.7" y="536.3" font-size="31.2px" font-family="CMUBright-Roman" style="text-anchor:start;fill:rgb(0,0,0);" transform="rotate(315.0,2480.7,536.3)">0</text>
<line x1='2731.7' y1='947.3' x2='2749.9' y2='939.1' style="stroke-width:3.0;stroke:rgb(0,0,0);stroke-linecap:round;fill:none;"/>
<path d="M2383.883,616.117 A1250.000,1250.000 40.000 0,1 2640.448,988.260 L2731.684,947.320 A1350.000,1350.000 0.000 0,0 2454.594,545.406 Z" style="stroke-width:2.0;stroke:rgb(0,0,0);stroke-linecap:round;fill:none;"/>
<path d="M2750.000,1500.000 A1250.000,1250.000 40.000 0,1 2668.274,1944.563 L2761.736,1980.129 A1350.000,1350.000 0.000 0,0 2850.000,1500.000 Z" style="stroke-width:2.0;stroke:rgb(0,0,0);stroke-linecap:round;fill:rgb(153,153,30);"/>
<text x="2963.2" y="1769.0" font-size="46.8px" font-family="CMUBright-Roman" style="text-anchor:middle;fill:rgb(0,0,0);" transform="rotate(-79.6,2963.2,1769.0)">height</text>
<line x1='2850.0' y1='1500.0' x2='2870.0' y2='1500.0' style="stroke-width:3.0;stroke:rgb(0,0,0);stroke-linecap:round;fill:none;"/>
<text x="2874.9" y="1512.0" font-size="31.2px" font-family="CMUBright-Roman" style="text-anchor:start;fill:rgb(0,0,0);" transform="rotate(360.0,2874.9,1512.0)">0</text>
<line x1='2761.7' y1='1980.1' x2='2780.4' y2='1987.2' style="stroke-width:3.0;stroke:rgb(0,0,0);stroke-linecap:round;fill:none;"/>
<path d="M2750.000,1500.000 A1250.000,1250.000 40.000 0,1 2668.274,1944.563 L2761.736,1980.129 A1350.000,1350.000 0.000 0,0 2850.000,1500.000 Z" style="stroke-width:2.0;stroke:rgb(0,0,0);stroke-linecap:round;fill:none;"/>
<path d="M2383.883,2383.883 A1250.000,1250.000 40.000 0,1 2011.740,2640.448 L2052.680,2731.684 A1350.000,1350.000 0.000 0,0 2454.594,2454.594 Z" style="stroke-width:2.0;stroke:rgb(0,0,0);stroke-linecap:round;fill:rgb(204,0,0);"/>
<text x="2346.7" y="2728.2" font-size="46.8px" font-family="CMUBright-Roman" style="text-anchor:middle;fill:rgb(0,0,0);" transform="rotate(-34.6,2346.7,2728.2)">whole_weight</text>
<line x1='2454.6' y1='2454.6' x2='2468.7' y2='2468.7' style="stroke-width:3.0;stroke:rgb(0,0,0);stroke-linecap:round;fill:none;"/>
<text x="2463.7" y="2480.7" font-size="31.2px" font-family="CMUBright-Roman" style="text-anchor:start;fill:rgb(0,0,0);" transform="rotate(45.0,2463.7,2480.7)">0</text>
<line x1='2052.7' y1='2731.7' x2='2060.9' y2='2749.9' style="stroke-width:3.0;stroke:rgb(0,0,0);stroke-linecap:round;fill:none;"/>
<path d="M2383.883,2383.883 A1250.000,1250.000 40.000 0,1 2011.740,2640.448 L2052.680,2731.684 A1350.000,1350.000 0.000 0,0 2454.594,2454.594 Z" style="stroke-width:2.0;stroke:rgb(0,0,0);stroke-linecap:round;fill:none;"/>
<path d="M1500.000,2750.000 A1250.000,1250.000 40.000 0,1 1055.437,2668.274 L1019.871,2761.736 A1350.000,1350.000 0.000 0,0 1500.000,2850.000 Z" style="stroke-width:2.0;stroke:rgb(0,0,0);stroke-linecap:round;fill:rgb(255,0,0);"/>
<text x="1230.3" y="2967.2" font-size="46.8px" font-family="CMUBright-Roman" style="text-anchor:middle;fill:rgb(0,0,0);" transform="rotate(10.4,1230.3,2967.2)">shucked_weight</text>
<line x1='1500.0' y1='2850.0' x2='1500.0' y2='2870.0' style="stroke-width:3.0;stroke:rgb(0,0,0);stroke-linecap:round;fill:none;"/>
<text x="1488.0" y="2874.9" font-size="31.2px" font-family="CMUBright-Roman" style="text-anchor:start;fill:rgb(0,0,0);" transform="rotate(90.0,1488.0,2874.9)">0</text>
<line x1='1019.9' y1='2761.7' x2='1012.8' y2='2780.4' style="stroke-width:3.0;stroke:rgb(0,0,0);stroke-linecap:round;fill:none;"/>
<path d="M1500.000,2750.000 A1250.000,1250.000 40.000 0,1 1055.437,2668.274 L1019.871,2761.736 A1350.000,1350.000 0.000 0,0 1500.000,2850.000 Z" style="stroke-width:2.0;stroke:rgb(0,0,0);stroke-linecap:round;fill:none;"/>
<path d="M616.117,2383.883 A1250.000,1250.000 40.000 0,1 359.552,2011.740 L268.316,2052.680 A1350.000,1350.000 0.000 0,0 545.406,2454.594 Z" style="stroke-width:2.0;stroke:rgb(0,0,0);stroke-linecap:round;fill:rgb(255,0,204);"/>
<text x="271.8" y="2346.7" font-size="46.8px" font-family="CMUBright-Roman" style="text-anchor:middle;fill:rgb(0,0,0);" transform="rotate(55.4,271.8,2346.7)">viscera_weight</text>
<line x1='545.4' y1='2454.6' x2='531.3' y2='2468.7' style="stroke-width:3.0;stroke:rgb(0,0,0);stroke-linecap:round;fill:none;"/>
<text x="536.3" y="2480.7" font-size="31.2px" font-family="CMUBright-Roman" style="text-anchor:end;fill:rgb(0,0,0);" transform="rotate(-45.0,536.3,2480.7)">0</text>
<line x1='268.3' y1='2052.7' x2='250.1' y2='2060.9' style="stroke-width:3.0;stroke:rgb(0,0,0);stroke-linecap:round;fill:none;"/>
<path d="M616.117,2383.883 A1250.000,1250.000 40.000 0,1 359.552,2011.740 L268.316,2052.680 A1350.000,1350.000 0.000 0,0 545.406,2454.594 Z" style="stroke-width:2.0;stroke:rgb(0,0,0);stroke-linecap:round;fill:none;"/>
<path d="M250.000,1500.000 A1250.000,1250.000 40.000 0,1 331.726,1055.437 L238.264,1019.871 A1350.000,1350.000 0.000 0,0 150.000,1500.000 Z" style="stroke-width:2.0;stroke:rgb(0,0,0);stroke-linecap:round;fill:rgb(255,204,204);"/>
<text x="80.0" y="1239.0" font-size="46.8px" font-family="CMUBright-Roman" style="text-anchor:middle;fill:rgb(0,0,0);" transform="rotate(-79.6,80.0,1239.0)">shell_weight</text>
<line x1='150.0' y1='1500.0' x2='130.0' y2='1500.0' style="stroke-width:3.0;stroke:rgb(0,0,0);stroke-linecap:round;fill:none;"/>
<text x="125.1" y="1512.0" font-size="31.2px" font-family="CMUBright-Roman" style="text-anchor:end;fill:rgb(0,0,0);" transform="rotate(0.0,125.1,1512.0)">0</text>
<line x1='238.3' y1='1019.9' x2='219.6' y2='1012.8' style="stroke-width:3.0;stroke:rgb(0,0,0);stroke-linecap:round;fill:none;"/>
<path d="M250.000,1500.000 A1250.000,1250.000 40.000 0,1 331.726,1055.437 L238.264,1019.871 A1350.000,1350.000 0.000 0,0 150.000,1500.000 Z" style="stroke-width:2.0;stroke:rgb(0,0,0);stroke-linecap:round;fill:none;"/>
<path d="M616.117,616.117 A1250.000,1250.000 40.000 0,1 988.260,359.552 L947.320,268.316 A1350.000,1350.000 0.000 0,0 545.406,545.406 Z" style="stroke-width:2.0;stroke:rgb(0,0,0);stroke-linecap:round;fill:rgb(255,153,0);"/>
<text x="680.5" y="311.4" font-size="46.8px" font-family="CMUBright-Roman" style="text-anchor:middle;fill:rgb(0,0,0);" transform="rotate(-34.6,680.5,311.4)">rings</text>
<line x1='545.4' y1='545.4' x2='531.3' y2='531.3' style="stroke-width:3.0;stroke:rgb(0,0,0);stroke-linecap:round;fill:none;"/>
<text x="519.3" y="536.3" font-size="31.2px" font-family="CMUBright-Roman" style="text-anchor:end;fill:rgb(0,0,0);" transform="rotate(45.0,519.3,536.3)">0</text>
<line x1='947.3' y1='268.3' x2='939.1' y2='250.1' style="stroke-width:3.0;stroke:rgb(0,0,0);stroke-linecap:round;fill:none;"/>
<path d="M616.117,616.117 A1250.000,1250.000 40.000 0,1 988.260,359.552 L947.320,268.316 A1350.000,1350.000 0.000 0,0 545.406,545.406 Z" style="stroke-width:2.0;stroke:rgb(0,0,0);stroke-linecap:round;fill:none;"/>
</g>
<g id="track_0">
<path d="M 1720.4,301.3 L 1718.3,320.6 1719.4,339.7 1723.2,358.5 1729.6,377.2 1738.6,395.8 1749.8,414.3 1763.0,432.8 1778.3,451.2 1795.3,469.6 1813.8,488.1 1833.9,506.6 1855.2,525.0 1877.8,543.5 1901.3,561.9 1925.7,580.3 1950.9,598.5 1976.6,616.7 2002.9,634.7 2029.6,652.4 2056.5,669.8 2083.6,686.9 2110.8,703.5 2137.9,719.6 2164.9,735.1 2191.6,749.8 2218.0,763.8 2244.1,776.7 2269.7,788.7 2294.7,799.4 2319.2,808.8 2343.0,816.8 2366.0,823.1 2388.3,827.7 2409.8,830.3 2430.4,830.8 2450.1,829.1 2468.8,824.8 2486.6,818.0 2503.4,808.2  " style="stroke-opacity: 0.666667; stroke-width: 4.0; stroke: rgb(116,196,118); fill: none" />
<path d="M 1720.4,301.3 L 1715.1,341.9 1714.2,382.1 1717.3,422.2 1723.9,462.1 1733.8,501.9 1746.6,541.8 1762.0,581.9 1779.7,622.1 1799.5,662.6 1821.1,703.3 1844.2,744.2 1868.7,785.5 1894.3,827.1 1920.8,868.9 1948.2,911.0 1976.2,953.3 2004.6,995.7 2033.5,1038.2 2062.6,1080.8 2091.9,1123.3 2121.3,1165.6 2150.8,1207.7 2180.3,1249.4 2209.9,1290.6 2239.5,1331.1 2269.2,1370.8 2298.9,1409.5 2328.8,1447.1 2358.8,1483.3 2389.2,1517.9 2420.0,1550.8 2451.3,1581.7 2483.2,1610.3 2516.0,1636.5 2549.7,1659.9 2584.6,1680.2 2621.0,1697.3 2658.9,1710.8 2698.7,1720.4  " style="stroke-opacity: 0.666667; stroke-width: 4.0; stroke: rgb(116,196,118); fill: none" />
<path d="M 1720.4,301.3 L 1701.2,408.1 1684.2,507.8 1669.1,600.9 1655.8,687.8 1644.0,768.8 1633.5,844.2 1624.2,914.5 1615.9,979.9 1608.4,1041.0 1601.6,1098.0 1595.4,1151.3 1589.5,1201.3 1583.9,1248.3 1578.5,1292.8 1573.0,1335.1 1567.5,1375.5 1561.8,1414.6 1555.8,1452.6 1549.4,1489.9 1542.6,1527.0 1535.3,1564.2 1527.4,1601.8 1518.8,1640.3 1509.6,1680.1 1499.6,1721.6 1488.9,1765.1 1477.4,1811.1 1465.1,1859.9 1452.0,1911.9 1438.1,1967.6 1423.3,2027.3 1407.8,2091.4 1391.5,2160.4 1374.5,2234.6 1356.7,2314.5 1338.3,2400.4 1319.3,2492.8 1299.7,2592.1 1279.6,2698.7  " style="stroke-opacity: 0.666667; stroke-width: 4.0; stroke: rgb(116,196,118); fill: none" />
<path d="M 1720.4,301.3 L 1705.6,372.2 1688.1,439.4 1668.4,503.5 1646.7,564.6 1623.3,623.1 1598.4,679.2 1572.4,733.3 1545.3,785.4 1517.6,836.0 1489.2,885.1 1460.5,933.0 1431.5,979.9 1402.3,1025.9 1373.1,1071.3 1343.9,1116.2 1314.9,1160.7 1285.9,1204.9 1257.2,1249.0 1228.5,1293.0 1200.0,1337.1 1171.6,1381.2 1143.1,1425.5 1114.6,1470.0 1086.0,1514.8 1057.0,1559.7 1027.5,1605.0 997.4,1650.4 966.5,1696.1 934.6,1741.9 901.3,1787.9 866.6,1833.9 830.1,1879.9 791.5,1925.8 750.4,1971.4 706.7,2016.8 659.8,2061.6 609.4,2105.8 555.2,2149.3 496.6,2191.8  " style="stroke-opacity: 0.666667; stroke-width: 4.0; stroke: rgb(116,196,118); fill: none" />
<path d="M 2503.4,808.2 L 2488.3,820.5 2475.6,834.6 2465.0,850.7 2456.3,868.5 2449.5,887.9 2444.3,908.9 2440.7,931.3 2438.4,955.1 2437.3,980.2 2437.4,1006.4 2438.6,1033.6 2440.6,1061.8 2443.5,1090.7 2447.1,1120.4 2451.4,1150.7 2456.2,1181.4 2461.6,1212.4 2467.5,1243.7 2473.8,1275.1 2480.5,1306.5 2487.6,1337.7 2495.1,1368.7 2502.9,1399.2 2511.0,1429.2 2519.5,1458.6 2528.3,1487.1 2537.6,1514.7 2547.2,1541.3 2557.4,1566.6 2568.0,1590.5 2579.2,1612.9 2591.0,1633.7 2603.5,1652.7 2616.9,1669.7 2631.0,1684.7 2646.2,1697.4 2662.5,1707.6 2679.9,1715.4 2698.7,1720.4  " style="stroke-opacity: 0.666667; stroke-width: 4.0; stroke: rgb(116,196,118); fill: none" />
<path d="M 2503.4,808.2 L 2442.9,847.8 2383.0,883.1 2323.7,914.4 2265.1,942.3 2207.2,967.1 2149.9,989.2 2093.3,1009.0 2037.3,1026.8 1982.0,1042.9 1927.2,1057.6 1873.0,1071.1 1819.3,1083.8 1766.1,1095.7 1713.4,1107.2 1661.0,1118.3 1609.0,1129.2 1557.3,1140.0 1505.8,1150.8 1454.4,1161.7 1403.1,1172.6 1351.8,1183.8 1300.3,1195.0 1248.7,1206.3 1196.8,1217.7 1144.5,1229.0 1091.7,1240.1 1038.3,1251.0 984.1,1261.4 929.1,1271.2 873.1,1280.3 816.0,1288.2 757.7,1294.9 697.9,1300.1 636.6,1303.3 573.6,1304.4 508.7,1303.0 441.9,1298.6 372.8,1291.0 301.3,1279.6  " style="stroke-opacity: 0.666667; stroke-width: 4.0; stroke: rgb(116,196,118); fill: none" />
<path d="M 2503.4,808.2 L 2468.5,829.6 2432.2,846.9 2394.4,860.5 2355.3,870.8 2314.9,878.1 2273.2,882.8 2230.4,885.1 2186.4,885.4 2141.4,883.9 2095.5,880.9 2048.6,876.6 2000.9,871.1 1952.5,864.8 1903.5,857.7 1853.9,850.0 1803.9,841.7 1753.5,833.2 1702.9,824.3 1652.1,815.1 1601.4,805.8 1550.7,796.3 1500.2,786.6 1450.1,776.7 1400.4,766.6 1351.3,756.2 1303.0,745.4 1255.5,734.1 1209.0,722.2 1163.6,709.6 1119.6,696.1 1077.0,681.5 1036.0,665.6 996.8,648.1 959.6,628.9 924.4,607.7 891.5,584.2 861.1,558.1 833.2,529.0 808.2,496.6  " style="stroke-opacity: 0.666667; stroke-width: 4.0; stroke: rgb(116,196,118); fill: none" />
<path d="M 2698.7,1720.4 L 2627.2,1709.0 2558.1,1701.4 2491.3,1697.0 2426.4,1695.6 2363.4,1696.7 2302.1,1699.9 2242.3,1705.1 2184.0,1711.8 2126.9,1719.7 2070.9,1728.8 2015.9,1738.6 1961.7,1749.0 1908.3,1759.9 1855.5,1771.0 1803.2,1782.3 1751.3,1793.7 1699.7,1805.0 1648.2,1816.2 1596.9,1827.4 1545.6,1838.3 1494.2,1849.2 1442.7,1860.0 1391.0,1870.8 1339.0,1881.7 1286.6,1892.8 1233.9,1904.3 1180.7,1916.2 1127.0,1928.9 1072.8,1942.4 1018.0,1957.1 962.7,1973.2 906.7,1991.0 850.1,2010.8 792.8,2032.9 734.9,2057.7 676.3,2085.6 617.0,2116.9 557.1,2152.2 496.6,2191.8  " style="stroke-opacity: 0.666667; stroke-width: 4.0; stroke: rgb(116,196,118); fill: none" />
<path d="M 2698.7,1720.4 L 2591.9,1701.2 2492.2,1684.2 2399.1,1669.1 2312.2,1655.8 2231.2,1644.0 2155.8,1633.5 2085.5,1624.2 2020.1,1615.9 1959.0,1608.4 1902.0,1601.6 1848.7,1595.4 1798.7,1589.5 1751.7,1583.9 1707.2,1578.5 1664.9,1573.0 1624.5,1567.5 1585.4,1561.8 1547.4,1555.8 1510.1,1549.4 1473.0,1542.6 1435.8,1535.3 1398.2,1527.4 1359.7,1518.8 1319.9,1509.6 1278.4,1499.6 1234.9,1488.9 1188.9,1477.4 1140.1,1465.1 1088.1,1452.0 1032.4,1438.1 972.7,1423.3 908.6,1407.8 839.6,1391.5 765.4,1374.5 685.5,1356.7 599.6,1338.3 507.2,1319.3 407.9,1299.7 301.3,1279.6  " style="stroke-opacity: 0.666667; stroke-width: 4.0; stroke: rgb(116,196,118); fill: none" />
<path d="M 2698.7,1720.4 L 2627.8,1705.6 2560.6,1688.1 2496.5,1668.4 2435.4,1646.7 2376.9,1623.3 2320.8,1598.4 2266.7,1572.4 2214.6,1545.3 2164.0,1517.6 2114.9,1489.2 2067.0,1460.5 2020.1,1431.5 1974.1,1402.3 1928.7,1373.1 1883.8,1343.9 1839.3,1314.9 1795.1,1285.9 1751.0,1257.2 1707.0,1228.5 1662.9,1200.0 1618.8,1171.6 1574.5,1143.1 1530.0,1114.6 1485.2,1086.0 1440.3,1057.0 1395.0,1027.5 1349.6,997.4 1303.9,966.5 1258.1,934.6 1212.1,901.3 1166.1,866.6 1120.1,830.1 1074.2,791.5 1028.6,750.4 983.2,706.7 938.4,659.8 894.2,609.4 850.7,555.2 808.2,496.6  " style="stroke-opacity: 0.666667; stroke-width: 4.0; stroke: rgb(116,196,118); fill: none" />
<path d="M 2191.8,2503.4 L 2179.5,2488.3 2165.4,2475.6 2149.3,2465.0 2131.5,2456.3 2112.1,2449.5 2091.1,2444.3 2068.7,2440.7 2044.9,2438.4 2019.8,2437.3 1993.6,2437.4 1966.4,2438.6 1938.2,2440.6 1909.3,2443.5 1879.6,2447.1 1849.3,2451.4 1818.6,2456.2 1787.6,2461.6 1756.3,2467.5 1724.9,2473.8 1693.5,2480.5 1662.3,2487.6 1631.3,2495.1 1600.8,2502.9 1570.8,2511.0 1541.4,2519.5 1512.9,2528.3 1485.3,2537.6 1458.7,2547.2 1433.4,2557.4 1409.5,2568.0 1387.1,2579.2 1366.3,2591.0 1347.3,2603.5 1330.3,2616.9 1315.3,2631.0 1302.6,2646.2 1292.4,2662.5 1284.6,2679.9 1279.6,2698.7  " style="stroke-opacity: 0.666667; stroke-width: 4.0; stroke: rgb(116,196,118); fill: none" />
<path d="M 2191.8,2503.4 L 2166.8,2471.0 2138.9,2441.9 2108.5,2415.8 2075.6,2392.3 2040.4,2371.1 2003.2,2351.9 1964.0,2334.4 1923.0,2318.5 1880.4,2303.9 1836.4,2290.4 1791.0,2277.8 1744.5,2265.9 1697.0,2254.6 1648.7,2243.8 1599.6,2233.4 1549.9,2223.3 1499.8,2213.4 1449.3,2203.7 1398.6,2194.2 1347.9,2184.9 1297.1,2175.7 1246.5,2166.8 1196.1,2158.3 1146.1,2150.0 1096.5,2142.3 1047.5,2135.2 999.1,2128.9 951.4,2123.4 904.5,2119.1 858.6,2116.1 813.6,2114.6 769.6,2114.9 726.8,2117.2 685.1,2121.9 644.7,2129.2 605.6,2139.5 567.8,2153.1 531.5,2170.4 496.6,2191.8  " style="stroke-opacity: 0.666667; stroke-width: 4.0; stroke: rgb(116,196,118); fill: none" />
<path d="M 2191.8,2503.4 L 2149.3,2444.8 2105.8,2390.6 2061.6,2340.2 2016.8,2293.3 1971.4,2249.6 1925.8,2208.5 1879.9,2169.9 1833.9,2133.4 1787.9,2098.7 1741.9,2065.4 1696.1,2033.5 1650.4,2002.6 1605.0,1972.5 1559.7,1943.0 1514.8,1914.0 1470.0,1885.4 1425.5,1856.9 1381.2,1828.4 1337.1,1800.0 1293.0,1771.5 1249.0,1742.8 1204.9,1714.1 1160.7,1685.1 1116.2,1656.1 1071.3,1626.9 1025.9,1597.7 979.9,1568.5 933.0,1539.5 885.1,1510.8 836.0,1482.4 785.4,1454.7 733.3,1427.6 679.2,1401.6 623.1,1376.7 564.6,1353.3 503.5,1331.6 439.4,1311.9 372.2,1294.4 301.3,1279.6  " style="stroke-opacity: 0.666667; stroke-width: 4.0; stroke: rgb(116,196,118); fill: none" />
<path d="M 1279.6,2698.7 L 1284.9,2658.1 1285.8,2617.9 1282.7,2577.8 1276.1,2537.9 1266.2,2498.1 1253.4,2458.2 1238.0,2418.1 1220.3,2377.9 1200.5,2337.4 1178.9,2296.7 1155.8,2255.8 1131.3,2214.5 1105.7,2172.9 1079.2,2131.1 1051.8,2089.0 1023.8,2046.7 995.4,2004.3 966.5,1961.8 937.4,1919.2 908.1,1876.7 878.7,1834.4 849.2,1792.3 819.7,1750.6 790.1,1709.4 760.5,1668.9 730.8,1629.2 701.1,1590.5 671.2,1552.9 641.2,1516.7 610.8,1482.1 580.0,1449.2 548.7,1418.3 516.8,1389.7 484.0,1363.5 450.3,1340.1 415.4,1319.8 379.0,1302.7 341.1,1289.2 301.3,1279.6  " style="stroke-opacity: 0.666667; stroke-width: 4.0; stroke: rgb(116,196,118); fill: none" />
<path d="M 1279.6,2698.7 L 1291.0,2627.2 1298.6,2558.1 1303.0,2491.3 1304.4,2426.4 1303.3,2363.4 1300.1,2302.1 1294.9,2242.3 1288.2,2184.0 1280.3,2126.9 1271.2,2070.9 1261.4,2015.9 1251.0,1961.7 1240.1,1908.3 1229.0,1855.5 1217.7,1803.2 1206.3,1751.3 1195.0,1699.7 1183.8,1648.2 1172.6,1596.9 1161.7,1545.6 1150.8,1494.2 1140.0,1442.7 1129.2,1391.0 1118.3,1339.0 1107.2,1286.6 1095.7,1233.9 1083.8,1180.7 1071.1,1127.0 1057.6,1072.8 1042.9,1018.0 1026.8,962.7 1009.0,906.7 989.2,850.1 967.1,792.8 942.3,734.9 914.4,676.3 883.1,617.0 847.8,557.1 808.2,496.6  " style="stroke-opacity: 0.666667; stroke-width: 4.0; stroke: rgb(116,196,118); fill: none" />
<path d="M 301.3,1279.6 L 320.6,1281.7 339.7,1280.6 358.5,1276.8 377.2,1270.4 395.8,1261.4 414.3,1250.2 432.8,1237.0 451.2,1221.7 469.6,1204.7 488.1,1186.2 506.6,1166.1 525.0,1144.8 543.5,1122.2 561.9,1098.7 580.3,1074.3 598.5,1049.1 616.7,1023.4 634.7,997.1 652.4,970.4 669.8,943.5 686.9,916.4 703.5,889.2 719.6,862.1 735.1,835.1 749.8,808.4 763.8,782.0 776.7,755.9 788.7,730.3 799.4,705.3 808.8,680.8 816.8,657.0 823.1,634.0 827.7,611.7 830.3,590.2 830.8,569.6 829.1,549.9 824.8,531.2 818.0,513.4 808.2,496.6  " style="stroke-opacity: 0.666667; stroke-width: 4.0; stroke: rgb(116,196,118); fill: none" />
</g>
</svg>
