<?xml version="1.0" encoding="utf-8" standalone="no"?>
<!DOCTYPE svg PUBLIC "-//W3C//DTD SVG 1.1//EN" "http://www.w3.org/Graphics/SVG/1.1/DTD/svg11.dtd">
<svg width="3000px" height="3000px" version="1.1" xmlns="http://www.w3.org/2000/svg" xmlns:xlink="http://www.w3.org/1999/xlink">
<g id="ideograms">
<path d="M1500.000,250.000 A1250.000,1250.000 40.000 0,1 1552.345,251.096 L1556.532,151.184 A1350.000,1350.000 0.000 0,0 1500.000,150.000 Z" style="stroke-width:2.0;stroke:rgb(0,0,0);stroke-linecap:round;fill:rgb(153,102,0);"/>
<text x="1530.2" y="56.6" font-size="46.8px" font-family="CMUBright-Roman" style="text-anchor:middle;fill:rgb(0,0,0);" transform="rotate(361.2,1530.2,56.6)">v1</text>
<line x1='1500.0' y1='150.0' x2='1500.0' y2='130.0' style="stroke-width:3.0;stroke:rgb(0,0,0);stroke-linecap:round;fill:none;"/>
<text x="1512.0" y="125.1" font-size="31.2px" font-family="CMUBright-Roman" style="text-anchor:start;fill:rgb(0,0,0);" transform="rotate(270.0,1512.0,125.1)">0</text>
<line x1='1556.5' y1='151.2' x2='1557.4' y2='131.2' style="stroke-width:3.0;stroke:rgb(0,0,0);stroke-linecap:round;fill:none;"/>
<path d="M1500.000,250.000 A1250.000,1250.000 40.000 0,1 1552.345,251.096 L1556.532,151.184 A1350.000,1350.000 0.000 0,0 1500.000,150.000 Z" style="stroke-width:2.0;stroke:rgb(0,0,0);stroke-linecap:round;fill:none;"/>
<path d="M1656.667,259.857 A1250.000,1250.000 40.000 0,1 1708.461,267.505 L1725.138,168.905 A1350.000,1350.000 0.000 0,0 1669.200,160.645 Z" style="stroke-width:2.0;stroke:rgb(0,0,0);stroke-linecap:round;fill:rgb(102,102,0);"/>
<text x="1710.9" y="71.7" font-size="46.8px" font-family="CMUBright-Roman" style="text-anchor:middle;fill:rgb(0,0,0);" transform="rotate(368.4,1710.9,71.7)">v2</text>
<line x1='1669.2' y1='160.6' x2='1671.7' y2='140.8' style="stroke-width:3.0;stroke:rgb(0,0,0);stroke-linecap:round;fill:none;"/>
<text x="1684.2" y="137.4" font-size="31.2px" font-family="CMUBright-Roman" style="text-anchor:start;fill:rgb(0,0,0);" transform="rotate(277.2,1684.2,137.4)">0</text>
<line x1='1725.1' y1='168.9' x2='1728.5' y2='149.2' style="stroke-width:3.0;stroke:rgb(0,0,0);stroke-linecap:round;fill:none;"/>
<path d="M1656.667,259.857 A1250.000,1250.000 40.000 0,1 1708.461,267.505 L1725.138,168.905 A1350.000,1350.000 0.000 0,0 1669.200,160.645 Z" style="stroke-width:2.0;stroke:rgb(0,0,0);stroke-linecap:round;fill:none;"/>
<path d="M1810.862,289.271 A1250.000,1250.000 40.000 0,1 1861.290,303.351 L1890.193,207.619 A1350.000,1350.000 0.000 0,0 1835.731,192.413 Z" style="stroke-width:2.0;stroke:rgb(0,0,0);stroke-linecap:round;fill:rgb(153,153,30);"/>
<text x="1888.3" y="109.4" font-size="46.8px" font-family="CMUBright-Roman" style="text-anchor:middle;fill:rgb(0,0,0);" transform="rotate(375.6,1888.3,109.4)">v3</text>
<line x1='1835.7' y1='192.4' x2='1840.7' y2='173.0' style="stroke-width:3.0;stroke:rgb(0,0,0);stroke-linecap:round;fill:none;"/>
<text x="1853.6" y="171.2" font-size="31.2px" font-family="CMUBright-Roman" style="text-anchor:start;fill:rgb(0,0,0);" transform="rotate(284.4,1853.6,171.2)">0</text>
<line x1='1890.2' y1='207.6' x2='1896.0' y2='188.5' style="stroke-width:3.0;stroke:rgb(0,0,0);stroke-linecap:round;fill:none;"/>
<path d="M1810.862,289.271 A1250.000,1250.000 40.000 0,1 1861.290,303.351 L1890.193,207.619 A1350.000,1350.000 0.000 0,0 1835.731,192.413 Z" style="stroke-width:2.0;stroke:rgb(0,0,0);stroke-linecap:round;fill:none;"/>
<path d="M1960.156,337.779 A1250.000,1250.000 40.000 0,1 2008.421,358.068 L2049.094,266.714 A1350.000,1350.000 0.000 0,0 1996.968,244.802 Z" style="stroke-width:2.0;stroke:rgb(0,0,0);stroke-linecap:round;fill:rgb(204,0,0);"/>
<text x="2059.5" y="169.1" font-size="46.8px" font-family="CMUBright-Roman" style="text-anchor:middle;fill:rgb(0,0,0);" transform="rotate(382.8,2059.5,169.1)">v4</text>
<line x1='1997.0' y1='244.8' x2='2004.3' y2='226.2' style="stroke-width:3.0;stroke:rgb(0,0,0);stroke-linecap:round;fill:none;"/>
<text x="2017.3" y="226.0" font-size="31.2px" font-family="CMUBright-Roman" style="text-anchor:start;fill:rgb(0,0,0);" transform="rotate(291.6,2017.3,226.0)">0</text>
<line x1='2049.1' y1='266.7' x2='2057.2' y2='248.4' style="stroke-width:3.0;stroke:rgb(0,0,0);stroke-linecap:round;fill:none;"/>
<path d="M1960.156,337.779 A1250.000,1250.000 40.000 0,1 2008.421,358.068 L2049.094,266.714 A1350.000,1350.000 0.000 0,0 1996.968,244.802 Z" style="stroke-width:2.0;stroke:rgb(0,0,0);stroke-linecap:round;fill:none;"/>
<path d="M2102.192,404.617 A1250.000,1250.000 40.000 0,1 2147.534,430.795 L2199.336,345.258 A1350.000,1350.000 0.000 0,0 2150.367,316.986 Z" style="stroke-width:2.0;stroke:rgb(0,0,0);stroke-linecap:round;fill:rgb(255,0,0);"/>
<text x="2221.9" y="249.7" font-size="46.8px" font-family="CMUBright-Roman" style="text-anchor:middle;fill:rgb(0,0,0);" transform="rotate(390.0,2221.9,249.7)">v5</text>
<line x1='2150.4' y1='317.0' x2='2160.0' y2='299.5' style="stroke-width:3.0;stroke:rgb(0,0,0);stroke-linecap:round;fill:none;"/>
<text x="2172.9" y="300.9" font-size="31.2px" font-family="CMUBright-Roman" style="text-anchor:start;fill:rgb(0,0,0);" transform="rotate(298.8,2172.9,300.9)">0</text>
<line x1='2199.3' y1='345.3' x2='2209.7' y2='328.2' style="stroke-width:3.0;stroke:rgb(0,0,0);stroke-linecap:round;fill:none;"/>
<path d="M2102.192,404.617 A1250.000,1250.000 40.000 0,1 2147.534,430.795 L2199.336,345.258 A1350.000,1350.000 0.000 0,0 2150.367,316.986 Z" style="stroke-width:2.0;stroke:rgb(0,0,0);stroke-linecap:round;fill:none;"/>
<path d="M2234.732,488.729 A1250.000,1250.000 40.000 0,1 2276.435,520.383 L2338.550,442.014 A1350.000,1350.000 0.000 0,0 2293.510,407.827 Z" style="stroke-width:2.0;stroke:rgb(0,0,0);stroke-linecap:round;fill:rgb(255,0,204);"/>
<text x="2372.9" y="350.0" font-size="46.8px" font-family="CMUBright-Roman" style="text-anchor:middle;fill:rgb(0,0,0);" transform="rotate(397.2,2372.9,350.0)">v6</text>
<line x1='2293.5' y1='407.8' x2='2305.3' y2='391.6' style="stroke-width:3.0;stroke:rgb(0,0,0);stroke-linecap:round;fill:none;"/>
<text x="2317.9" y="394.7" font-size="31.2px" font-family="CMUBright-Roman" style="text-anchor:start;fill:rgb(0,0,0);" transform="rotate(306.0,2317.9,394.7)">0</text>
<line x1='2338.5' y1='442.0' x2='2351.0' y2='426.3' style="stroke-width:3.0;stroke:rgb(0,0,0);stroke-linecap:round;fill:none;"/>
<path d="M2234.732,488.729 A1250.000,1250.000 40.000 0,1 2276.435,520.383 L2338.550,442.014 A1350.000,1350.000 0.000 0,0 2293.510,407.827 Z" style="stroke-width:2.0;stroke:rgb(0,0,0);stroke-linecap:round;fill:none;"/>
<path d="M2355.684,588.789 A1250.000,1250.000 40.000 0,1 2393.091,625.421 L2464.538,555.454 A1350.000,1350.000 0.000 0,0 2424.139,515.892 Z" style="stroke-width:2.0;stroke:rgb(0,0,0);stroke-linecap:round;fill:rgb(255,204,204);"/>
<text x="2510.1" y="468.5" font-size="46.8px" font-family="CMUBright-Roman" style="text-anchor:middle;fill:rgb(0,0,0);" transform="rotate(404.4,2510.1,468.5)">v7</text>
<line x1='2424.1' y1='515.9' x2='2437.8' y2='501.3' style="stroke-width:3.0;stroke:rgb(0,0,0);stroke-linecap:round;fill:none;"/>
<text x="2450.0" y="505.9" font-size="31.2px" font-family="CMUBright-Roman" style="text-anchor:start;fill:rgb(0,0,0);" transform="rotate(313.2,2450.0,505.9)">0</text>
<line x1='2464.5' y1='555.5' x2='2478.8' y2='541.5' style="stroke-width:3.0;stroke:rgb(0,0,0);stroke-linecap:round;fill:none;"/>
<path d="M2355.684,588.789 A1250.000,1250.000 40.000 0,1 2393.091,625.421 L2464.538,555.454 A1350.000,1350.000 0.000 0,0 2424.139,515.892 Z" style="stroke-width:2.0;stroke:rgb(0,0,0);stroke-linecap:round;fill:none;"/>
<path d="M2463.142,703.220 A1250.000,1250.000 40.000 0,1 2495.662,744.251 L2575.315,683.791 A1350.000,1350.000 0.000 0,0 2540.193,639.478 Z" style="stroke-width:2.0;stroke:rgb(0,0,0);stroke-linecap:round;fill:rgb(255,153,0);"/>
<text x="2631.5" y="603.2" font-size="46.8px" font-family="CMUBright-Roman" style="text-anchor:middle;fill:rgb(0,0,0);" transform="rotate(411.6,2631.5,603.2)">v8</text>
<line x1='2540.2' y1='639.5' x2='2555.6' y2='626.7' style="stroke-width:3.0;stroke:rgb(0,0,0);stroke-linecap:round;fill:none;"/>
<text x="2567.1" y="632.8" font-size="31.2px" font-family="CMUBright-Roman" style="text-anchor:start;fill:rgb(0,0,0);" transform="rotate(320.4,2567.1,632.8)">0</text>
<line x1='2575.3' y1='683.8' x2='2591.2' y2='671.7' style="stroke-width:3.0;stroke:rgb(0,0,0);stroke-linecap:round;fill:none;"/>
<path d="M2463.142,703.220 A1250.000,1250.000 40.000 0,1 2495.662,744.251 L2575.315,683.791 A1350.000,1350.000 0.000 0,0 2540.193,639.478 Z" style="stroke-width:2.0;stroke:rgb(0,0,0);stroke-linecap:round;fill:none;"/>
<path d="M2555.410,830.217 A1250.000,1250.000 40.000 0,1 2582.532,875.000 L2669.134,825.000 A1350.000,1350.000 0.000 0,0 2639.843,776.634 Z" style="stroke-width:2.0;stroke:rgb(0,0,0);stroke-linecap:round;fill:rgb(255,204,0);"/>
<text x="2734.9" y="752.1" font-size="46.8px" font-family="CMUBright-Roman" style="text-anchor:middle;fill:rgb(0,0,0);" transform="rotate(418.8,2734.9,752.1)">v9</text>
<line x1='2639.8' y1='776.6' x2='2656.7' y2='765.9' style="stroke-width:3.0;stroke:rgb(0,0,0);stroke-linecap:round;fill:none;"/>
<text x="2667.3" y="773.4" font-size="31.2px" font-family="CMUBright-Roman" style="text-anchor:start;fill:rgb(0,0,0);" transform="rotate(327.6,2667.3,773.4)">0</text>
<line x1='2669.1' y1='825.0' x2='2686.5' y2='815.0' style="stroke-width:3.0;stroke:rgb(0,0,0);stroke-linecap:round;fill:none;"/>
<path d="M2555.410,830.217 A1250.000,1250.000 40.000 0,1 2582.532,875.000 L2669.134,825.000 A1350.000,1350.000 0.000 0,0 2639.843,776.634 Z" style="stroke-width:2.0;stroke:rgb(0,0,0);stroke-linecap:round;fill:none;"/>
<path d="M2631.034,967.776 A1250.000,1250.000 40.000 0,1 2652.329,1015.606 L2744.515,976.854 A1350.000,1350.000 0.000 0,0 2721.517,925.198 Z" style="stroke-width:2.0;stroke:rgb(0,0,0);stroke-linecap:round;fill:rgb(255,255,0);"/>
<text x="2818.9" y="912.8" font-size="46.8px" font-family="CMUBright-Roman" style="text-anchor:middle;fill:rgb(0,0,0);" transform="rotate(426.0,2818.9,912.8)">v10</text>
<line x1='2721.5' y1='925.2' x2='2739.6' y2='916.7' style="stroke-width:3.0;stroke:rgb(0,0,0);stroke-linecap:round;fill:none;"/>
<text x="2749.2" y="925.4" font-size="31.2px" font-family="CMUBright-Roman" style="text-anchor:start;fill:rgb(0,0,0);" transform="rotate(334.8,2749.2,925.4)">0</text>
<line x1='2744.5' y1='976.9' x2='2763.0' y2='969.1' style="stroke-width:3.0;stroke:rgb(0,0,0);stroke-linecap:round;fill:none;"/>
<path d="M2631.034,967.776 A1250.000,1250.000 40.000 0,1 2652.329,1015.606 L2744.515,976.854 A1350.000,1350.000 0.000 0,0 2721.517,925.198 Z" style="stroke-width:2.0;stroke:rgb(0,0,0);stroke-linecap:round;fill:none;"/>
<path d="M2688.821,1113.729 A1250.000,1250.000 40.000 0,1 2703.953,1163.850 L2800.269,1136.958 A1350.000,1350.000 0.000 0,0 2783.926,1082.827 Z" style="stroke-width:2.0;stroke:rgb(0,0,0);stroke-linecap:round;fill:rgb(204,255,0);"/>
<text x="2882.1" y="1082.7" font-size="46.8px" font-family="CMUBright-Roman" style="text-anchor:middle;fill:rgb(0,0,0);" transform="rotate(433.2,2882.1,1082.7)">v11</text>
<line x1='2783.9' y1='1082.8' x2='2802.9' y2='1076.6' style="stroke-width:3.0;stroke:rgb(0,0,0);stroke-linecap:round;fill:none;"/>
<text x="2811.4" y="1086.5" font-size="31.2px" font-family="CMUBright-Roman" style="text-anchor:start;fill:rgb(0,0,0);" transform="rotate(342.0,2811.4,1086.5)">0</text>
<line x1='2800.3' y1='1137.0' x2='2819.5' y2='1131.6' style="stroke-width:3.0;stroke:rgb(0,0,0);stroke-linecap:round;fill:none;"/>
<path d="M2688.821,1113.729 A1250.000,1250.000 40.000 0,1 2703.953,1163.850 L2800.269,1136.958 A1350.000,1350.000 0.000 0,0 2783.926,1082.827 Z" style="stroke-width:2.0;stroke:rgb(0,0,0);stroke-linecap:round;fill:none;"/>
<path d="M2727.859,1265.773 A1250.000,1250.000 40.000 0,1 2736.590,1317.396 L2835.518,1302.788 A1350.000,1350.000 0.000 0,0 2826.088,1247.035 Z" style="stroke-width:2.0;stroke:rgb(0,0,0);stroke-linecap:round;fill:rgb(0,255,0);"/>
<text x="2923.5" y="1259.2" font-size="46.8px" font-family="CMUBright-Roman" style="text-anchor:middle;fill:rgb(0,0,0);" transform="rotate(440.4,2923.5,1259.2)">v12</text>
<line x1='2826.1' y1='1247.0' x2='2845.7' y2='1243.3' style="stroke-width:3.0;stroke:rgb(0,0,0);stroke-linecap:round;fill:none;"/>
<text x="2852.8" y="1254.1" font-size="31.2px" font-family="CMUBright-Roman" style="text-anchor:start;fill:rgb(0,0,0);" transform="rotate(349.2,2852.8,1254.1)">0</text>
<line x1='2835.5' y1='1302.8' x2='2855.3' y2='1299.9' style="stroke-width:3.0;stroke:rgb(0,0,0);stroke-linecap:round;fill:none;"/>
<path d="M2727.859,1265.773 A1250.000,1250.000 40.000 0,1 2736.590,1317.396 L2835.518,1302.788 A1350.000,1350.000 0.000 0,0 2826.088,1247.035 Z" style="stroke-width:2.0;stroke:rgb(0,0,0);stroke-linecap:round;fill:none;"/>
<path d="M2747.533,1421.512 A1250.000,1250.000 40.000 0,1 2749.726,1473.822 L2849.704,1471.728 A1350.000,1350.000 0.000 0,0 2847.336,1415.233 Z" style="stroke-width:2.0;stroke:rgb(0,0,0);stroke-linecap:round;fill:rgb(53,128,0);"/>
<text x="2942.5" y="1439.5" font-size="46.8px" font-family="CMUBright-Roman" style="text-anchor:middle;fill:rgb(0,0,0);" transform="rotate(447.6,2942.5,1439.5)">v13</text>
<line x1='2847.3' y1='1415.2' x2='2867.3' y2='1414.0' style="stroke-width:3.0;stroke:rgb(0,0,0);stroke-linecap:round;fill:none;"/>
<text x="2873.0" y="1425.6" font-size="31.2px" font-family="CMUBright-Roman" style="text-anchor:start;fill:rgb(0,0,0);" transform="rotate(356.4,2873.0,1425.6)">0</text>
<line x1='2849.7' y1='1471.7' x2='2869.7' y2='1471.3' style="stroke-width:3.0;stroke:rgb(0,0,0);stroke-linecap:round;fill:none;"/>
<path d="M2747.533,1421.512 A1250.000,1250.000 40.000 0,1 2749.726,1473.822 L2849.704,1471.728 A1350.000,1350.000 0.000 0,0 2847.336,1415.233 Z" style="stroke-width:2.0;stroke:rgb(0,0,0);stroke-linecap:round;fill:none;"/>
<path d="M2747.533,1578.488 A1250.000,1250.000 40.000 0,1 2743.152,1630.661 L2842.605,1641.113 A1350.000,1350.000 0.000 0,0 2847.336,1584.767 Z" style="stroke-width:2.0;stroke:rgb(0,0,0);stroke-linecap:round;fill:rgb(0,0,204);"/>
<text x="2972.6" y="1623.7" font-size="46.8px" font-family="CMUBright-Roman" style="text-anchor:middle;fill:rgb(0,0,0);" transform="rotate(-85.2,2972.6,1623.7)">v14</text>
<line x1='2847.3' y1='1584.8' x2='2867.3' y2='1586.0' style="stroke-width:3.0;stroke:rgb(0,0,0);stroke-linecap:round;fill:none;"/>
<text x="2871.5" y="1598.3" font-size="31.2px" font-family="CMUBright-Roman" style="text-anchor:start;fill:rgb(0,0,0);" transform="rotate(3.6,2871.5,1598.3)">0</text>
<line x1='2842.6' y1='1641.1' x2='2862.5' y2='1643.2' style="stroke-width:3.0;stroke:rgb(0,0,0);stroke-linecap:round;fill:none;"/>
<path d="M2747.533,1578.488 A1250.000,1250.000 40.000 0,1 2743.152,1630.661 L2842.605,1641.113 A1350.000,1350.000 0.000 0,0 2847.336,1584.767 Z" style="stroke-width:2.0;stroke:rgb(0,0,0);stroke-linecap:round;fill:none;"/>
<path d="M2727.859,1734.227 A1250.000,1250.000 40.000 0,1 2716.974,1785.439 L2814.332,1808.274 A1350.000,1350.000 0.000 0,0 2826.088,1752.965 Z" style="stroke-width:2.0;stroke:rgb(0,0,0);stroke-linecap:round;fill:rgb(102,153,255);"/>
<text x="2946.4" y="1807.4" font-size="46.8px" font-family="CMUBright-Roman" style="text-anchor:middle;fill:rgb(0,0,0);" transform="rotate(-78.0,2946.4,1807.4)">v15</text>
<line x1='2826.1' y1='1753.0' x2='2845.7' y2='1756.7' style="stroke-width:3.0;stroke:rgb(0,0,0);stroke-linecap:round;fill:none;"/>
<text x="2848.3" y="1769.4" font-size="31.2px" font-family="CMUBright-Roman" style="text-anchor:start;fill:rgb(0,0,0);" transform="rotate(10.8,2848.3,1769.4)">0</text>
<line x1='2814.3' y1='1808.3' x2='2833.8' y2='1812.8' style="stroke-width:3.0;stroke:rgb(0,0,0);stroke-linecap:round;fill:none;"/>
<path d="M2727.859,1734.227 A1250.000,1250.000 40.000 0,1 2716.974,1785.439 L2814.332,1808.274 A1350.000,1350.000 0.000 0,0 2826.088,1752.965 Z" style="stroke-width:2.0;stroke:rgb(0,0,0);stroke-linecap:round;fill:none;"/>
<path d="M2688.821,1886.271 A1250.000,1250.000 40.000 0,1 2671.602,1935.715 L2765.331,1970.572 A1350.000,1350.000 0.000 0,0 2783.926,1917.173 Z" style="stroke-width:2.0;stroke:rgb(0,0,0);stroke-linecap:round;fill:rgb(153,204,255);"/>
<text x="2896.5" y="1986.3" font-size="46.8px" font-family="CMUBright-Roman" style="text-anchor:middle;fill:rgb(0,0,0);" transform="rotate(-70.8,2896.5,1986.3)">v16</text>
<line x1='2783.9' y1='1917.2' x2='2802.9' y2='1923.4' style="stroke-width:3.0;stroke:rgb(0,0,0);stroke-linecap:round;fill:none;"/>
<text x="2803.9" y="1936.3" font-size="31.2px" font-family="CMUBright-Roman" style="text-anchor:start;fill:rgb(0,0,0);" transform="rotate(18.0,2803.9,1936.3)">0</text>
<line x1='2765.3' y1='1970.6' x2='2784.1' y2='1977.5' style="stroke-width:3.0;stroke:rgb(0,0,0);stroke-linecap:round;fill:none;"/>
<path d="M2688.821,1886.271 A1250.000,1250.000 40.000 0,1 2671.602,1935.715 L2765.331,1970.572 A1350.000,1350.000 0.000 0,0 2783.926,1917.173 Z" style="stroke-width:2.0;stroke:rgb(0,0,0);stroke-linecap:round;fill:none;"/>
<path d="M2631.034,2032.224 A1250.000,1250.000 40.000 0,1 2607.754,2079.120 L2696.375,2125.450 A1350.000,1350.000 0.000 0,0 2721.517,2074.802 Z" style="stroke-width:2.0;stroke:rgb(0,0,0);stroke-linecap:round;fill:rgb(0,255,255);"/>
<text x="2823.6" y="2157.1" font-size="46.8px" font-family="CMUBright-Roman" style="text-anchor:middle;fill:rgb(0,0,0);" transform="rotate(-63.6,2823.6,2157.1)">v17</text>
<line x1='2721.5' y1='2074.8' x2='2739.6' y2='2083.3' style="stroke-width:3.0;stroke:rgb(0,0,0);stroke-linecap:round;fill:none;"/>
<text x="2739.0" y="2096.3" font-size="31.2px" font-family="CMUBright-Roman" style="text-anchor:start;fill:rgb(0,0,0);" transform="rotate(25.2,2739.0,2096.3)">0</text>
<line x1='2696.4' y1='2125.4' x2='2714.1' y2='2134.7' style="stroke-width:3.0;stroke:rgb(0,0,0);stroke-linecap:round;fill:none;"/>
<path d="M2631.034,2032.224 A1250.000,1250.000 40.000 0,1 2607.754,2079.120 L2696.375,2125.450 A1350.000,1350.000 0.000 0,0 2721.517,2074.802 Z" style="stroke-width:2.0;stroke:rgb(0,0,0);stroke-linecap:round;fill:none;"/>
<path d="M2555.410,2169.783 A1250.000,1250.000 40.000 0,1 2526.437,2213.392 L2608.551,2270.463 A1350.000,1350.000 0.000 0,0 2639.843,2223.366 Z" style="stroke-width:2.0;stroke:rgb(0,0,0);stroke-linecap:round;fill:rgb(204,255,255);"/>
<text x="2731.7" y="2318.3" font-size="46.8px" font-family="CMUBright-Roman" style="text-anchor:middle;fill:rgb(0,0,0);" transform="rotate(-56.4,2731.7,2318.3)">v18</text>
<line x1='2639.8' y1='2223.4' x2='2656.7' y2='2234.1' style="stroke-width:3.0;stroke:rgb(0,0,0);stroke-linecap:round;fill:none;"/>
<text x="2654.5" y="2246.9" font-size="31.2px" font-family="CMUBright-Roman" style="text-anchor:start;fill:rgb(0,0,0);" transform="rotate(32.4,2654.5,2246.9)">0</text>
<line x1='2608.6' y1='2270.5' x2='2625.0' y2='2281.9' style="stroke-width:3.0;stroke:rgb(0,0,0);stroke-linecap:round;fill:none;"/>
<path d="M2555.410,2169.783 A1250.000,1250.000 40.000 0,1 2526.437,2213.392 L2608.551,2270.463 A1350.000,1350.000 0.000 0,0 2639.843,2223.366 Z" style="stroke-width:2.0;stroke:rgb(0,0,0);stroke-linecap:round;fill:none;"/>
<path d="M2463.142,2296.780 A1250.000,1250.000 40.000 0,1 2428.931,2336.413 L2503.246,2403.326 A1350.000,1350.000 0.000 0,0 2540.193,2360.522 Z" style="stroke-width:2.0;stroke:rgb(0,0,0);stroke-linecap:round;fill:rgb(153,0,204);"/>
<text x="2619.4" y="2466.2" font-size="46.8px" font-family="CMUBright-Roman" style="text-anchor:middle;fill:rgb(0,0,0);" transform="rotate(-49.2,2619.4,2466.2)">v19</text>
<line x1='2540.2' y1='2360.5' x2='2555.6' y2='2373.3' style="stroke-width:3.0;stroke:rgb(0,0,0);stroke-linecap:round;fill:none;"/>
<text x="2551.8" y="2385.7" font-size="31.2px" font-family="CMUBright-Roman" style="text-anchor:start;fill:rgb(0,0,0);" transform="rotate(39.6,2551.8,2385.7)">0</text>
<line x1='2503.2' y1='2403.3' x2='2518.1' y2='2416.7' style="stroke-width:3.0;stroke:rgb(0,0,0);stroke-linecap:round;fill:none;"/>
<path d="M2463.142,2296.780 A1250.000,1250.000 40.000 0,1 2428.931,2336.413 L2503.246,2403.326 A1350.000,1350.000 0.000 0,0 2540.193,2360.522 Z" style="stroke-width:2.0;stroke:rgb(0,0,0);stroke-linecap:round;fill:none;"/>
<path d="M2355.684,2411.211 A1250.000,1250.000 40.000 0,1 2316.776,2446.244 L2382.118,2521.943 A1350.000,1350.000 0.000 0,0 2424.139,2484.108 Z" style="stroke-width:2.0;stroke:rgb(0,0,0);stroke-linecap:round;fill:rgb(204,51,255);"/>
<text x="2488.8" y="2598.2" font-size="46.8px" font-family="CMUBright-Roman" style="text-anchor:middle;fill:rgb(0,0,0);" transform="rotate(-42.0,2488.8,2598.2)">v20</text>
<line x1='2424.1' y1='2484.1' x2='2437.8' y2='2498.7' style="stroke-width:3.0;stroke:rgb(0,0,0);stroke-linecap:round;fill:none;"/>
<text x="2432.5" y="2510.5" font-size="31.2px" font-family="CMUBright-Roman" style="text-anchor:start;fill:rgb(0,0,0);" transform="rotate(46.8,2432.5,2510.5)">0</text>
<line x1='2382.1' y1='2521.9' x2='2395.2' y2='2537.1' style="stroke-width:3.0;stroke:rgb(0,0,0);stroke-linecap:round;fill:none;"/>
<path d="M2355.684,2411.211 A1250.000,1250.000 40.000 0,1 2316.776,2446.244 L2382.118,2521.943 A1350.000,1350.000 0.000 0,0 2424.139,2484.108 Z" style="stroke-width:2.0;stroke:rgb(0,0,0);stroke-linecap:round;fill:none;"/>
<path d="M2234.732,2511.271 A1250.000,1250.000 40.000 0,1 2191.739,2541.152 L2247.079,2624.444 A1350.000,1350.000 0.000 0,0 2293.510,2592.173 Z" style="stroke-width:2.0;stroke:rgb(0,0,0);stroke-linecap:round;fill:rgb(204,153,255);"/>
<text x="2343.4" y="2713.5" font-size="46.8px" font-family="CMUBright-Roman" style="text-anchor:middle;fill:rgb(0,0,0);" transform="rotate(-34.8,2343.4,2713.5)">v21</text>
<line x1='2293.5' y1='2592.2' x2='2305.3' y2='2608.4' style="stroke-width:3.0;stroke:rgb(0,0,0);stroke-linecap:round;fill:none;"/>
<text x="2298.5" y="2619.4" font-size="31.2px" font-family="CMUBright-Roman" style="text-anchor:start;fill:rgb(0,0,0);" transform="rotate(54.0,2298.5,2619.4)">0</text>
<line x1='2247.1' y1='2624.4' x2='2258.1' y2='2641.1' style="stroke-width:3.0;stroke:rgb(0,0,0);stroke-linecap:round;fill:none;"/>
<path d="M2234.732,2511.271 A1250.000,1250.000 40.000 0,1 2191.739,2541.152 L2247.079,2624.444 A1350.000,1350.000 0.000 0,0 2293.510,2592.173 Z" style="stroke-width:2.0;stroke:rgb(0,0,0);stroke-linecap:round;fill:none;"/>
<path d="M2102.192,2595.383 A1250.000,1250.000 40.000 0,1 2055.794,2619.640 L2100.257,2709.211 A1350.000,1350.000 0.000 0,0 2150.367,2683.014 Z" style="stroke-width:2.0;stroke:rgb(0,0,0);stroke-linecap:round;fill:rgb(102,102,102);"/>
<text x="2184.2" y="2808.7" font-size="46.8px" font-family="CMUBright-Roman" style="text-anchor:middle;fill:rgb(0,0,0);" transform="rotate(-27.6,2184.2,2808.7)">v22</text>
<line x1='2150.4' y1='2683.0' x2='2160.0' y2='2700.5' style="stroke-width:3.0;stroke:rgb(0,0,0);stroke-linecap:round;fill:none;"/>
<text x="2151.9" y="2710.7" font-size="31.2px" font-family="CMUBright-Roman" style="text-anchor:start;fill:rgb(0,0,0);" transform="rotate(61.2,2151.9,2710.7)">0</text>
<line x1='2100.3' y1='2709.2' x2='2109.2' y2='2727.1' style="stroke-width:3.0;stroke:rgb(0,0,0);stroke-linecap:round;fill:none;"/>
<path d="M2102.192,2595.383 A1250.000,1250.000 40.000 0,1 2055.794,2619.640 L2100.257,2709.211 A1350.000,1350.000 0.000 0,0 2150.367,2683.014 Z" style="stroke-width:2.0;stroke:rgb(0,0,0);stroke-linecap:round;fill:none;"/>
<path d="M1960.156,2662.221 A1250.000,1250.000 40.000 0,1 1911.083,2680.470 L1943.970,2774.908 A1350.000,1350.000 0.000 0,0 1996.968,2755.198 Z" style="stroke-width:2.0;stroke:rgb(0,0,0);stroke-linecap:round;fill:rgb(153,153,153);"/>
<text x="2015.1" y="2885.1" font-size="46.8px" font-family="CMUBright-Roman" style="text-anchor:middle;fill:rgb(0,0,0);" transform="rotate(-20.4,2015.1,2885.1)">v23</text>
<line x1='1997.0' y1='2755.2' x2='2004.3' y2='2773.8' style="stroke-width:3.0;stroke:rgb(0,0,0);stroke-linecap:round;fill:none;"/>
<text x="1995.0" y="2782.8" font-size="31.2px" font-family="CMUBright-Roman" style="text-anchor:start;fill:rgb(0,0,0);" transform="rotate(68.4,1995.0,2782.8)">0</text>
<line x1='1944.0' y1='2774.9' x2='1950.5' y2='2793.8' style="stroke-width:3.0;stroke:rgb(0,0,0);stroke-linecap:round;fill:none;"/>
<path d="M1960.156,2662.221 A1250.000,1250.000 40.000 0,1 1911.083,2680.470 L1943.970,2774.908 A1350.000,1350.000 0.000 0,0 1996.968,2755.198 Z" style="stroke-width:2.0;stroke:rgb(0,0,0);stroke-linecap:round;fill:none;"/>
<path d="M1810.862,2710.729 A1250.000,1250.000 40.000 0,1 1759.890,2722.685 L1780.681,2820.499 A1350.000,1350.000 0.000 0,0 1835.731,2807.587 Z" style="stroke-width:2.0;stroke:rgb(0,0,0);stroke-linecap:round;fill:rgb(204,204,153);"/>
<text x="1837.2" y="2937.7" font-size="46.8px" font-family="CMUBright-Roman" style="text-anchor:middle;fill:rgb(0,0,0);" transform="rotate(-13.2,1837.2,2937.7)">v24</text>
<line x1='1835.7' y1='2807.6' x2='1840.7' y2='2827.0' style="stroke-width:3.0;stroke:rgb(0,0,0);stroke-linecap:round;fill:none;"/>
<text x="1830.3" y="2834.7" font-size="31.2px" font-family="CMUBright-Roman" style="text-anchor:start;fill:rgb(0,0,0);" transform="rotate(75.6,1830.3,2834.7)">0</text>
<line x1='1780.7' y1='2820.5' x2='1784.8' y2='2840.1' style="stroke-width:3.0;stroke:rgb(0,0,0);stroke-linecap:round;fill:none;"/>
<path d="M1810.862,2710.729 A1250.000,1250.000 40.000 0,1 1759.890,2722.685 L1780.681,2820.499 A1350.000,1350.000 0.000 0,0 1835.731,2807.587 Z" style="stroke-width:2.0;stroke:rgb(0,0,0);stroke-linecap:round;fill:none;"/>
<path d="M1656.667,2740.143 A1250.000,1250.000 40.000 0,1 1604.597,2745.616 L1612.965,2845.265 A1350.000,1350.000 0.000 0,0 1669.200,2839.355 Z" style="stroke-width:2.0;stroke:rgb(0,0,0);stroke-linecap:round;fill:rgb(153,102,0);"/>
<text x="1654.5" y="2969.7" font-size="46.8px" font-family="CMUBright-Roman" style="text-anchor:middle;fill:rgb(0,0,0);" transform="rotate(-6.0,1654.5,2969.7)">v25</text>
<line x1='1669.2' y1='2839.4' x2='1671.7' y2='2859.2' style="stroke-width:3.0;stroke:rgb(0,0,0);stroke-linecap:round;fill:none;"/>
<text x="1660.4" y="2865.6" font-size="31.2px" font-family="CMUBright-Roman" style="text-anchor:start;fill:rgb(0,0,0);" transform="rotate(82.8,1660.4,2865.6)">0</text>
<line x1='1613.0' y1='2845.3' x2='1614.6' y2='2865.2' style="stroke-width:3.0;stroke:rgb(0,0,0);stroke-linecap:round;fill:none;"/>
<path d="M1656.667,2740.143 A1250.000,1250.000 40.000 0,1 1604.597,2745.616 L1612.965,2845.265 A1350.000,1350.000 0.000 0,0 1669.200,2839.355 Z" style="stroke-width:2.0;stroke:rgb(0,0,0);stroke-linecap:round;fill:none;"/>
<path d="M1500.000,2750.000 A1250.000,1250.000 40.000 0,1 1447.655,2748.904 L1443.468,2848.816 A1350.000,1350.000 0.000 0,0 1500.000,2850.000 Z" style="stroke-width:2.0;stroke:rgb(0,0,0);stroke-linecap:round;fill:rgb(102,102,0);"/>
<text x="1469.1" y="2977.4" font-size="46.8px" font-family="CMUBright-Roman" style="text-anchor:middle;fill:rgb(0,0,0);" transform="rotate(1.2,1469.1,2977.4)">v26</text>
<line x1='1500.0' y1='2850.0' x2='1500.0' y2='2870.0' style="stroke-width:3.0;stroke:rgb(0,0,0);stroke-linecap:round;fill:none;"/>
<text x="1488.0" y="2874.9" font-size="31.2px" font-family="CMUBright-Roman" style="text-anchor:start;fill:rgb(0,0,0);" transform="rotate(90.0,1488.0,2874.9)">0</text>
<line x1='1443.5' y1='2848.8' x2='1442.6' y2='2868.8' style="stroke-width:3.0;stroke:rgb(0,0,0);stroke-linecap:round;fill:none;"/>
<path d="M1500.000,2750.000 A1250.000,1250.000 40.000 0,1 1447.655,2748.904 L1443.468,2848.816 A1350.000,1350.000 0.000 0,0 1500.000,2850.000 Z" style="stroke-width:2.0;stroke:rgb(0,0,0);stroke-linecap:round;fill:none;"/>
<path d="M1343.333,2740.143 A1250.000,1250.000 40.000 0,1 1291.539,2732.495 L1274.862,2831.095 A1350.000,1350.000 0.000 0,0 1330.800,2839.355 Z" style="stroke-width:2.0;stroke:rgb(0,0,0);stroke-linecap:round;fill:rgb(153,153,30);"/>
<text x="1284.3" y="2960.9" font-size="46.8px" font-family="CMUBright-Roman" style="text-anchor:middle;fill:rgb(0,0,0);" transform="rotate(8.4,1284.3,2960.9)">v27</text>
<line x1='1330.8' y1='2839.4' x2='1328.3' y2='2859.2' style="stroke-width:3.0;stroke:rgb(0,0,0);stroke-linecap:round;fill:none;"/>
<text x="1339.6" y="2865.6" font-size="31.2px" font-family="CMUBright-Roman" style="text-anchor:end;fill:rgb(0,0,0);" transform="rotate(-82.8,1339.6,2865.6)">0</text>
<line x1='1274.9' y1='2831.1' x2='1271.5' y2='2850.8' style="stroke-width:3.0;stroke:rgb(0,0,0);stroke-linecap:round;fill:none;"/>
<path d="M1343.333,2740.143 A1250.000,1250.000 40.000 0,1 1291.539,2732.495 L1274.862,2831.095 A1350.000,1350.000 0.000 0,0 1330.800,2839.355 Z" style="stroke-width:2.0;stroke:rgb(0,0,0);stroke-linecap:round;fill:none;"/>
<path d="M1189.138,2710.729 A1250.000,1250.000 40.000 0,1 1138.710,2696.649 L1109.807,2792.381 A1350.000,1350.000 0.000 0,0 1164.269,2807.587 Z" style="stroke-width:2.0;stroke:rgb(0,0,0);stroke-linecap:round;fill:rgb(204,0,0);"/>
<text x="1102.6" y="2923.3" font-size="46.8px" font-family="CMUBright-Roman" style="text-anchor:middle;fill:rgb(0,0,0);" transform="rotate(15.6,1102.6,2923.3)">v28</text>
<line x1='1164.3' y1='2807.6' x2='1159.3' y2='2827.0' style="stroke-width:3.0;stroke:rgb(0,0,0);stroke-linecap:round;fill:none;"/>
<text x="1169.7" y="2834.7" font-size="31.2px" font-family="CMUBright-Roman" style="text-anchor:end;fill:rgb(0,0,0);" transform="rotate(-75.6,1169.7,2834.7)">0</text>
<line x1='1109.8' y1='2792.4' x2='1104.0' y2='2811.5' style="stroke-width:3.0;stroke:rgb(0,0,0);stroke-linecap:round;fill:none;"/>
<path d="M1189.138,2710.729 A1250.000,1250.000 40.000 0,1 1138.710,2696.649 L1109.807,2792.381 A1350.000,1350.000 0.000 0,0 1164.269,2807.587 Z" style="stroke-width:2.0;stroke:rgb(0,0,0);stroke-linecap:round;fill:none;"/>
<path d="M1039.844,2662.221 A1250.000,1250.000 40.000 0,1 991.579,2641.932 L950.906,2733.286 A1350.000,1350.000 0.000 0,0 1003.032,2755.198 Z" style="stroke-width:2.0;stroke:rgb(0,0,0);stroke-linecap:round;fill:rgb(255,0,0);"/>
<text x="927.3" y="2862.3" font-size="46.8px" font-family="CMUBright-Roman" style="text-anchor:middle;fill:rgb(0,0,0);" transform="rotate(22.8,927.3,2862.3)">v29</text>
<line x1='1003.0' y1='2755.2' x2='995.7' y2='2773.8' style="stroke-width:3.0;stroke:rgb(0,0,0);stroke-linecap:round;fill:none;"/>
<text x="1005.0" y="2782.8" font-size="31.2px" font-family="CMUBright-Roman" style="text-anchor:end;fill:rgb(0,0,0);" transform="rotate(-68.4,1005.0,2782.8)">0</text>
<line x1='950.9' y1='2733.3' x2='942.8' y2='2751.6' style="stroke-width:3.0;stroke:rgb(0,0,0);stroke-linecap:round;fill:none;"/>
<path d="M1039.844,2662.221 A1250.000,1250.000 40.000 0,1 991.579,2641.932 L950.906,2733.286 A1350.000,1350.000 0.000 0,0 1003.032,2755.198 Z" style="stroke-width:2.0;stroke:rgb(0,0,0);stroke-linecap:round;fill:none;"/>
<path d="M897.808,2595.383 A1250.000,1250.000 40.000 0,1 852.466,2569.205 L800.664,2654.742 A1350.000,1350.000 0.000 0,0 849.633,2683.014 Z" style="stroke-width:2.0;stroke:rgb(0,0,0);stroke-linecap:round;fill:rgb(255,0,204);"/>
<text x="761.1" y="2779.8" font-size="46.8px" font-family="CMUBright-Roman" style="text-anchor:middle;fill:rgb(0,0,0);" transform="rotate(30.0,761.1,2779.8)">v30</text>
<line x1='849.6' y1='2683.0' x2='840.0' y2='2700.5' style="stroke-width:3.0;stroke:rgb(0,0,0);stroke-linecap:round;fill:none;"/>
<text x="848.1" y="2710.7" font-size="31.2px" font-family="CMUBright-Roman" style="text-anchor:end;fill:rgb(0,0,0);" transform="rotate(-61.2,848.1,2710.7)">0</text>
<line x1='800.7' y1='2654.7' x2='790.3' y2='2671.8' style="stroke-width:3.0;stroke:rgb(0,0,0);stroke-linecap:round;fill:none;"/>
<path d="M897.808,2595.383 A1250.000,1250.000 40.000 0,1 852.466,2569.205 L800.664,2654.742 A1350.000,1350.000 0.000 0,0 849.633,2683.014 Z" style="stroke-width:2.0;stroke:rgb(0,0,0);stroke-linecap:round;fill:none;"/>
<path d="M765.268,2511.271 A1250.000,1250.000 40.000 0,1 723.565,2479.617 L661.450,2557.986 A1350.000,1350.000 0.000 0,0 706.490,2592.173 Z" style="stroke-width:2.0;stroke:rgb(0,0,0);stroke-linecap:round;fill:rgb(255,204,204);"/>
<text x="605.9" y="2677.9" font-size="46.8px" font-family="CMUBright-Roman" style="text-anchor:middle;fill:rgb(0,0,0);" transform="rotate(37.2,605.9,2677.9)">v31</text>
<line x1='706.5' y1='2592.2' x2='694.7' y2='2608.4' style="stroke-width:3.0;stroke:rgb(0,0,0);stroke-linecap:round;fill:none;"/>
<text x="701.5" y="2619.4" font-size="31.2px" font-family="CMUBright-Roman" style="text-anchor:end;fill:rgb(0,0,0);" transform="rotate(-54.0,701.5,2619.4)">0</text>
<line x1='661.5' y1='2558.0' x2='649.0' y2='2573.7' style="stroke-width:3.0;stroke:rgb(0,0,0);stroke-linecap:round;fill:none;"/>
<path d="M765.268,2511.271 A1250.000,1250.000 40.000 0,1 723.565,2479.617 L661.450,2557.986 A1350.000,1350.000 0.000 0,0 706.490,2592.173 Z" style="stroke-width:2.0;stroke:rgb(0,0,0);stroke-linecap:round;fill:none;"/>
<path d="M644.316,2411.211 A1250.000,1250.000 40.000 0,1 606.909,2374.579 L535.462,2444.546 A1350.000,1350.000 0.000 0,0 575.861,2484.108 Z" style="stroke-width:2.0;stroke:rgb(0,0,0);stroke-linecap:round;fill:rgb(255,153,0);"/>
<text x="466.1" y="2555.8" font-size="46.8px" font-family="CMUBright-Roman" style="text-anchor:middle;fill:rgb(0,0,0);" transform="rotate(44.4,466.1,2555.8)">v32</text>
<line x1='575.9' y1='2484.1' x2='562.2' y2='2498.7' style="stroke-width:3.0;stroke:rgb(0,0,0);stroke-linecap:round;fill:none;"/>
<text x="567.5" y="2510.5" font-size="31.2px" font-family="CMUBright-Roman" style="text-anchor:end;fill:rgb(0,0,0);" transform="rotate(-46.8,567.5,2510.5)">0</text>
<line x1='535.5' y1='2444.5' x2='521.2' y2='2458.5' style="stroke-width:3.0;stroke:rgb(0,0,0);stroke-linecap:round;fill:none;"/>
<path d="M644.316,2411.211 A1250.000,1250.000 40.000 0,1 606.909,2374.579 L535.462,2444.546 A1350.000,1350.000 0.000 0,0 575.861,2484.108 Z" style="stroke-width:2.0;stroke:rgb(0,0,0);stroke-linecap:round;fill:none;"/>
<path d="M536.858,2296.780 A1250.000,1250.000 40.000 0,1 504.338,2255.749 L424.685,2316.209 A1350.000,1350.000 0.000 0,0 459.807,2360.522 Z" style="stroke-width:2.0;stroke:rgb(0,0,0);stroke-linecap:round;fill:rgb(255,204,0);"/>
<text x="341.9" y="2417.9" font-size="46.8px" font-family="CMUBright-Roman" style="text-anchor:middle;fill:rgb(0,0,0);" transform="rotate(51.6,341.9,2417.9)">v33</text>
<line x1='459.8' y1='2360.5' x2='444.4' y2='2373.3' style="stroke-width:3.0;stroke:rgb(0,0,0);stroke-linecap:round;fill:none;"/>
<text x="448.2" y="2385.7" font-size="31.2px" font-family="CMUBright-Roman" style="text-anchor:end;fill:rgb(0,0,0);" transform="rotate(-39.6,448.2,2385.7)">0</text>
<line x1='424.7' y1='2316.2' x2='408.8' y2='2328.3' style="stroke-width:3.0;stroke:rgb(0,0,0);stroke-linecap:round;fill:none;"/>
<path d="M536.858,2296.780 A1250.000,1250.000 40.000 0,1 504.338,2255.749 L424.685,2316.209 A1350.000,1350.000 0.000 0,0 459.807,2360.522 Z" style="stroke-width:2.0;stroke:rgb(0,0,0);stroke-linecap:round;fill:none;"/>
<path d="M444.590,2169.783 A1250.000,1250.000 40.000 0,1 417.468,2125.000 L330.866,2175.000 A1350.000,1350.000 0.000 0,0 360.157,2223.366 Z" style="stroke-width:2.0;stroke:rgb(0,0,0);stroke-linecap:round;fill:rgb(255,255,0);"/>
<text x="236.0" y="2265.5" font-size="46.8px" font-family="CMUBright-Roman" style="text-anchor:middle;fill:rgb(0,0,0);" transform="rotate(58.8,236.0,2265.5)">v34</text>
<line x1='360.2' y1='2223.4' x2='343.3' y2='2234.1' style="stroke-width:3.0;stroke:rgb(0,0,0);stroke-linecap:round;fill:none;"/>
<text x="345.5" y="2246.9" font-size="31.2px" font-family="CMUBright-Roman" style="text-anchor:end;fill:rgb(0,0,0);" transform="rotate(-32.4,345.5,2246.9)">0</text>
<line x1='330.9' y1='2175.0' x2='313.5' y2='2185.0' style="stroke-width:3.0;stroke:rgb(0,0,0);stroke-linecap:round;fill:none;"/>
<path d="M444.590,2169.783 A1250.000,1250.000 40.000 0,1 417.468,2125.000 L330.866,2175.000 A1350.000,1350.000 0.000 0,0 360.157,2223.366 Z" style="stroke-width:2.0;stroke:rgb(0,0,0);stroke-linecap:round;fill:none;"/>
<path d="M368.966,2032.224 A1250.000,1250.000 40.000 0,1 347.671,1984.394 L255.485,2023.146 A1350.000,1350.000 0.000 0,0 278.483,2074.802 Z" style="stroke-width:2.0;stroke:rgb(0,0,0);stroke-linecap:round;fill:rgb(204,255,0);"/>
<text x="150.0" y="2101.1" font-size="46.8px" font-family="CMUBright-Roman" style="text-anchor:middle;fill:rgb(0,0,0);" transform="rotate(66.0,150.0,2101.1)">v35</text>
<line x1='278.5' y1='2074.8' x2='260.4' y2='2083.3' style="stroke-width:3.0;stroke:rgb(0,0,0);stroke-linecap:round;fill:none;"/>
<text x="261.0" y="2096.3" font-size="31.2px" font-family="CMUBright-Roman" style="text-anchor:end;fill:rgb(0,0,0);" transform="rotate(-25.2,261.0,2096.3)">0</text>
<line x1='255.5' y1='2023.1' x2='237.0' y2='2030.9' style="stroke-width:3.0;stroke:rgb(0,0,0);stroke-linecap:round;fill:none;"/>
<path d="M368.966,2032.224 A1250.000,1250.000 40.000 0,1 347.671,1984.394 L255.485,2023.146 A1350.000,1350.000 0.000 0,0 278.483,2074.802 Z" style="stroke-width:2.0;stroke:rgb(0,0,0);stroke-linecap:round;fill:none;"/>
<path d="M311.179,1886.271 A1250.000,1250.000 40.000 0,1 296.047,1836.150 L199.731,1863.042 A1350.000,1350.000 0.000 0,0 216.074,1917.173 Z" style="stroke-width:2.0;stroke:rgb(0,0,0);stroke-linecap:round;fill:rgb(0,255,0);"/>
<text x="85.3" y="1927.1" font-size="46.8px" font-family="CMUBright-Roman" style="text-anchor:middle;fill:rgb(0,0,0);" transform="rotate(73.2,85.3,1927.1)">v36</text>
<line x1='216.1' y1='1917.2' x2='197.1' y2='1923.4' style="stroke-width:3.0;stroke:rgb(0,0,0);stroke-linecap:round;fill:none;"/>
<text x="196.1" y="1936.3" font-size="31.2px" font-family="CMUBright-Roman" style="text-anchor:end;fill:rgb(0,0,0);" transform="rotate(-18.0,196.1,1936.3)">0</text>
<line x1='199.7' y1='1863.0' x2='180.5' y2='1868.4' style="stroke-width:3.0;stroke:rgb(0,0,0);stroke-linecap:round;fill:none;"/>
<path d="M311.179,1886.271 A1250.000,1250.000 40.000 0,1 296.047,1836.150 L199.731,1863.042 A1350.000,1350.000 0.000 0,0 216.074,1917.173 Z" style="stroke-width:2.0;stroke:rgb(0,0,0);stroke-linecap:round;fill:none;"/>
<path d="M272.141,1734.227 A1250.000,1250.000 40.000 0,1 263.410,1682.604 L164.482,1697.212 A1350.000,1350.000 0.000 0,0 173.912,1752.965 Z" style="stroke-width:2.0;stroke:rgb(0,0,0);stroke-linecap:round;fill:rgb(53,128,0);"/>
<text x="42.9" y="1746.4" font-size="46.8px" font-family="CMUBright-Roman" style="text-anchor:middle;fill:rgb(0,0,0);" transform="rotate(80.4,42.9,1746.4)">v37</text>
<line x1='173.9' y1='1753.0' x2='154.3' y2='1756.7' style="stroke-width:3.0;stroke:rgb(0,0,0);stroke-linecap:round;fill:none;"/>
<text x="151.7" y="1769.4" font-size="31.2px" font-family="CMUBright-Roman" style="text-anchor:end;fill:rgb(0,0,0);" transform="rotate(-10.8,151.7,1769.4)">0</text>
<line x1='164.5' y1='1697.2' x2='144.7' y2='1700.1' style="stroke-width:3.0;stroke:rgb(0,0,0);stroke-linecap:round;fill:none;"/>
<path d="M272.141,1734.227 A1250.000,1250.000 40.000 0,1 263.410,1682.604 L164.482,1697.212 A1350.000,1350.000 0.000 0,0 173.912,1752.965 Z" style="stroke-width:2.0;stroke:rgb(0,0,0);stroke-linecap:round;fill:none;"/>
<path d="M252.467,1578.488 A1250.000,1250.000 40.000 0,1 250.274,1526.178 L150.296,1528.272 A1350.000,1350.000 0.000 0,0 152.664,1584.767 Z" style="stroke-width:2.0;stroke:rgb(0,0,0);stroke-linecap:round;fill:rgb(0,0,204);"/>
<text x="23.5" y="1561.9" font-size="46.8px" font-family="CMUBright-Roman" style="text-anchor:middle;fill:rgb(0,0,0);" transform="rotate(87.6,23.5,1561.9)">v38</text>
<line x1='152.7' y1='1584.8' x2='132.7' y2='1586.0' style="stroke-width:3.0;stroke:rgb(0,0,0);stroke-linecap:round;fill:none;"/>
<text x="128.5" y="1598.3" font-size="31.2px" font-family="CMUBright-Roman" style="text-anchor:end;fill:rgb(0,0,0);" transform="rotate(-3.6,128.5,1598.3)">0</text>
<line x1='150.3' y1='1528.3' x2='130.3' y2='1528.7' style="stroke-width:3.0;stroke:rgb(0,0,0);stroke-linecap:round;fill:none;"/>
<path d="M252.467,1578.488 A1250.000,1250.000 40.000 0,1 250.274,1526.178 L150.296,1528.272 A1350.000,1350.000 0.000 0,0 152.664,1584.767 Z" style="stroke-width:2.0;stroke:rgb(0,0,0);stroke-linecap:round;fill:none;"/>
<path d="M252.467,1421.512 A1250.000,1250.000 40.000 0,1 256.848,1369.339 L157.395,1358.887 A1350.000,1350.000 0.000 0,0 152.664,1415.233 Z" style="stroke-width:2.0;stroke:rgb(0,0,0);stroke-linecap:round;fill:rgb(102,153,255);"/>
<text x="61.3" y="1379.2" font-size="46.8px" font-family="CMUBright-Roman" style="text-anchor:middle;fill:rgb(0,0,0);" transform="rotate(-85.2,61.3,1379.2)">v39</text>
<line x1='152.7' y1='1415.2' x2='132.7' y2='1414.0' style="stroke-width:3.0;stroke:rgb(0,0,0);stroke-linecap:round;fill:none;"/>
<text x="127.0" y="1425.6" font-size="31.2px" font-family="CMUBright-Roman" style="text-anchor:end;fill:rgb(0,0,0);" transform="rotate(3.6,127.0,1425.6)">0</text>
<line x1='157.4' y1='1358.9' x2='137.5' y2='1356.8' style="stroke-width:3.0;stroke:rgb(0,0,0);stroke-linecap:round;fill:none;"/>
<path d="M252.467,1421.512 A1250.000,1250.000 40.000 0,1 256.848,1369.339 L157.395,1358.887 A1350.000,1350.000 0.000 0,0 152.664,1415.233 Z" style="stroke-width:2.0;stroke:rgb(0,0,0);stroke-linecap:round;fill:none;"/>
<path d="M272.141,1265.773 A1250.000,1250.000 40.000 0,1 283.026,1214.561 L185.668,1191.726 A1350.000,1350.000 0.000 0,0 173.912,1247.035 Z" style="stroke-width:2.0;stroke:rgb(0,0,0);stroke-linecap:round;fill:rgb(153,204,255);"/>
<text x="87.8" y="1199.8" font-size="46.8px" font-family="CMUBright-Roman" style="text-anchor:middle;fill:rgb(0,0,0);" transform="rotate(-78.0,87.8,1199.8)">v40</text>
<line x1='173.9' y1='1247.0' x2='154.3' y2='1243.3' style="stroke-width:3.0;stroke:rgb(0,0,0);stroke-linecap:round;fill:none;"/>
<text x="147.2" y="1254.1" font-size="31.2px" font-family="CMUBright-Roman" style="text-anchor:end;fill:rgb(0,0,0);" transform="rotate(10.8,147.2,1254.1)">0</text>
<line x1='185.7' y1='1191.7' x2='166.2' y2='1187.2' style="stroke-width:3.0;stroke:rgb(0,0,0);stroke-linecap:round;fill:none;"/>
<path d="M272.141,1265.773 A1250.000,1250.000 40.000 0,1 283.026,1214.561 L185.668,1191.726 A1350.000,1350.000 0.000 0,0 173.912,1247.035 Z" style="stroke-width:2.0;stroke:rgb(0,0,0);stroke-linecap:round;fill:none;"/>
<path d="M311.179,1113.729 A1250.000,1250.000 40.000 0,1 328.398,1064.285 L234.669,1029.428 A1350.000,1350.000 0.000 0,0 216.074,1082.827 Z" style="stroke-width:2.0;stroke:rgb(0,0,0);stroke-linecap:round;fill:rgb(0,255,255);"/>
<text x="136.6" y="1025.2" font-size="46.8px" font-family="CMUBright-Roman" style="text-anchor:middle;fill:rgb(0,0,0);" transform="rotate(-70.8,136.6,1025.2)">v41</text>
<line x1='216.1' y1='1082.8' x2='197.1' y2='1076.6' style="stroke-width:3.0;stroke:rgb(0,0,0);stroke-linecap:round;fill:none;"/>
<text x="188.6" y="1086.5" font-size="31.2px" font-family="CMUBright-Roman" style="text-anchor:end;fill:rgb(0,0,0);" transform="rotate(18.0,188.6,1086.5)">0</text>
<line x1='234.7' y1='1029.4' x2='215.9' y2='1022.5' style="stroke-width:3.0;stroke:rgb(0,0,0);stroke-linecap:round;fill:none;"/>
<path d="M311.179,1113.729 A1250.000,1250.000 40.000 0,1 328.398,1064.285 L234.669,1029.428 A1350.000,1350.000 0.000 0,0 216.074,1082.827 Z" style="stroke-width:2.0;stroke:rgb(0,0,0);stroke-linecap:round;fill:none;"/>
<path d="M368.966,967.776 A1250.000,1250.000 40.000 0,1 392.246,920.880 L303.625,874.550 A1350.000,1350.000 0.000 0,0 278.483,925.198 Z" style="stroke-width:2.0;stroke:rgb(0,0,0);stroke-linecap:round;fill:rgb(204,255,255);"/>
<text x="206.8" y="858.1" font-size="46.8px" font-family="CMUBright-Roman" style="text-anchor:middle;fill:rgb(0,0,0);" transform="rotate(-63.6,206.8,858.1)">v42</text>
<line x1='278.5' y1='925.2' x2='260.4' y2='916.7' style="stroke-width:3.0;stroke:rgb(0,0,0);stroke-linecap:round;fill:none;"/>
<text x="250.8" y="925.4" font-size="31.2px" font-family="CMUBright-Roman" style="text-anchor:end;fill:rgb(0,0,0);" transform="rotate(25.2,250.8,925.4)">0</text>
<line x1='303.6' y1='874.6' x2='285.9' y2='865.3' style="stroke-width:3.0;stroke:rgb(0,0,0);stroke-linecap:round;fill:none;"/>
<path d="M368.966,967.776 A1250.000,1250.000 40.000 0,1 392.246,920.880 L303.625,874.550 A1350.000,1350.000 0.000 0,0 278.483,925.198 Z" style="stroke-width:2.0;stroke:rgb(0,0,0);stroke-linecap:round;fill:none;"/>
<path d="M444.590,830.217 A1250.000,1250.000 40.000 0,1 473.563,786.608 L391.449,729.537 A1350.000,1350.000 0.000 0,0 360.157,776.634 Z" style="stroke-width:2.0;stroke:rgb(0,0,0);stroke-linecap:round;fill:rgb(153,0,204);"/>
<text x="297.5" y="701.0" font-size="46.8px" font-family="CMUBright-Roman" style="text-anchor:middle;fill:rgb(0,0,0);" transform="rotate(-56.4,297.5,701.0)">v43</text>
<line x1='360.2' y1='776.6' x2='343.3' y2='765.9' style="stroke-width:3.0;stroke:rgb(0,0,0);stroke-linecap:round;fill:none;"/>
<text x="332.7" y="773.4" font-size="31.2px" font-family="CMUBright-Roman" style="text-anchor:end;fill:rgb(0,0,0);" transform="rotate(32.4,332.7,773.4)">0</text>
<line x1='391.4' y1='729.5' x2='375.0' y2='718.1' style="stroke-width:3.0;stroke:rgb(0,0,0);stroke-linecap:round;fill:none;"/>
<path d="M444.590,830.217 A1250.000,1250.000 40.000 0,1 473.563,786.608 L391.449,729.537 A1350.000,1350.000 0.000 0,0 360.157,776.634 Z" style="stroke-width:2.0;stroke:rgb(0,0,0);stroke-linecap:round;fill:none;"/>
<path d="M536.858,703.220 A1250.000,1250.000 40.000 0,1 571.069,663.587 L496.754,596.674 A1350.000,1350.000 0.000 0,0 459.807,639.478 Z" style="stroke-width:2.0;stroke:rgb(0,0,0);stroke-linecap:round;fill:rgb(204,51,255);"/>
<text x="407.1" y="556.6" font-size="46.8px" font-family="CMUBright-Roman" style="text-anchor:middle;fill:rgb(0,0,0);" transform="rotate(-49.2,407.1,556.6)">v44</text>
<line x1='459.8' y1='639.5' x2='444.4' y2='626.7' style="stroke-width:3.0;stroke:rgb(0,0,0);stroke-linecap:round;fill:none;"/>
<text x="432.9" y="632.8" font-size="31.2px" font-family="CMUBright-Roman" style="text-anchor:end;fill:rgb(0,0,0);" transform="rotate(39.6,432.9,632.8)">0</text>
<line x1='496.8' y1='596.7' x2='481.9' y2='583.3' style="stroke-width:3.0;stroke:rgb(0,0,0);stroke-linecap:round;fill:none;"/>
<path d="M536.858,703.220 A1250.000,1250.000 40.000 0,1 571.069,663.587 L496.754,596.674 A1350.000,1350.000 0.000 0,0 459.807,639.478 Z" style="stroke-width:2.0;stroke:rgb(0,0,0);stroke-linecap:round;fill:none;"/>
<path d="M644.316,588.789 A1250.000,1250.000 40.000 0,1 683.224,553.756 L617.882,478.057 A1350.000,1350.000 0.000 0,0 575.861,515.892 Z" style="stroke-width:2.0;stroke:rgb(0,0,0);stroke-linecap:round;fill:rgb(204,153,255);"/>
<text x="533.9" y="427.1" font-size="46.8px" font-family="CMUBright-Roman" style="text-anchor:middle;fill:rgb(0,0,0);" transform="rotate(-42.0,533.9,427.1)">v45</text>
<line x1='575.9' y1='515.9' x2='562.2' y2='501.3' style="stroke-width:3.0;stroke:rgb(0,0,0);stroke-linecap:round;fill:none;"/>
<text x="550.0" y="505.9" font-size="31.2px" font-family="CMUBright-Roman" style="text-anchor:end;fill:rgb(0,0,0);" transform="rotate(46.8,550.0,505.9)">0</text>
<line x1='617.9' y1='478.1' x2='604.8' y2='462.9' style="stroke-width:3.0;stroke:rgb(0,0,0);stroke-linecap:round;fill:none;"/>
<path d="M644.316,588.789 A1250.000,1250.000 40.000 0,1 683.224,553.756 L617.882,478.057 A1350.000,1350.000 0.000 0,0 575.861,515.892 Z" style="stroke-width:2.0;stroke:rgb(0,0,0);stroke-linecap:round;fill:none;"/>
<path d="M765.268,488.729 A1250.000,1250.000 40.000 0,1 808.261,458.848 L752.921,375.556 A1350.000,1350.000 0.000 0,0 706.490,407.827 Z" style="stroke-width:2.0;stroke:rgb(0,0,0);stroke-linecap:round;fill:rgb(102,102,102);"/>
<text x="676.0" y="314.5" font-size="46.8px" font-family="CMUBright-Roman" style="text-anchor:middle;fill:rgb(0,0,0);" transform="rotate(-34.8,676.0,314.5)">v46</text>
<line x1='706.5' y1='407.8' x2='694.7' y2='391.6' style="stroke-width:3.0;stroke:rgb(0,0,0);stroke-linecap:round;fill:none;"/>
<text x="682.1" y="394.7" font-size="31.2px" font-family="CMUBright-Roman" style="text-anchor:end;fill:rgb(0,0,0);" transform="rotate(54.0,682.1,394.7)">0</text>
<line x1='752.9' y1='375.6' x2='741.9' y2='358.9' style="stroke-width:3.0;stroke:rgb(0,0,0);stroke-linecap:round;fill:none;"/>
<path d="M765.268,488.729 A1250.000,1250.000 40.000 0,1 808.261,458.848 L752.921,375.556 A1350.000,1350.000 0.000 0,0 706.490,407.827 Z" style="stroke-width:2.0;stroke:rgb(0,0,0);stroke-linecap:round;fill:none;"/>
<path d="M897.808,404.617 A1250.000,1250.000 40.000 0,1 944.206,380.360 L899.743,290.789 A1350.000,1350.000 0.000 0,0 849.633,316.986 Z" style="stroke-width:2.0;stroke:rgb(0,0,0);stroke-linecap:round;fill:rgb(153,153,153);"/>
<text x="831.1" y="220.5" font-size="46.8px" font-family="CMUBright-Roman" style="text-anchor:middle;fill:rgb(0,0,0);" transform="rotate(-27.6,831.1,220.5)">v47</text>
<line x1='849.6' y1='317.0' x2='840.0' y2='299.5' style="stroke-width:3.0;stroke:rgb(0,0,0);stroke-linecap:round;fill:none;"/>
<text x="827.1" y="300.9" font-size="31.2px" font-family="CMUBright-Roman" style="text-anchor:end;fill:rgb(0,0,0);" transform="rotate(61.2,827.1,300.9)">0</text>
<line x1='899.7' y1='290.8' x2='890.8' y2='272.9' style="stroke-width:3.0;stroke:rgb(0,0,0);stroke-linecap:round;fill:none;"/>
<path d="M897.808,404.617 A1250.000,1250.000 40.000 0,1 944.206,380.360 L899.743,290.789 A1350.000,1350.000 0.000 0,0 849.633,316.986 Z" style="stroke-width:2.0;stroke:rgb(0,0,0);stroke-linecap:round;fill:none;"/>
<path d="M1039.844,337.779 A1250.000,1250.000 40.000 0,1 1088.917,319.530 L1056.030,225.092 A1350.000,1350.000 0.000 0,0 1003.032,244.802 Z" style="stroke-width:2.0;stroke:rgb(0,0,0);stroke-linecap:round;fill:rgb(204,204,153);"/>
<text x="996.7" y="146.8" font-size="46.8px" font-family="CMUBright-Roman" style="text-anchor:middle;fill:rgb(0,0,0);" transform="rotate(-20.4,996.7,146.8)">v48</text>
<line x1='1003.0' y1='244.8' x2='995.7' y2='226.2' style="stroke-width:3.0;stroke:rgb(0,0,0);stroke-linecap:round;fill:none;"/>
<text x="982.7" y="226.0" font-size="31.2px" font-family="CMUBright-Roman" style="text-anchor:end;fill:rgb(0,0,0);" transform="rotate(68.4,982.7,226.0)">0</text>
<line x1='1056.0' y1='225.1' x2='1049.5' y2='206.2' style="stroke-width:3.0;stroke:rgb(0,0,0);stroke-linecap:round;fill:none;"/>
<path d="M1039.844,337.779 A1250.000,1250.000 40.000 0,1 1088.917,319.530 L1056.030,225.092 A1350.000,1350.000 0.000 0,0 1003.032,244.802 Z" style="stroke-width:2.0;stroke:rgb(0,0,0);stroke-linecap:round;fill:none;"/>
<path d="M1189.138,289.271 A1250.000,1250.000 40.000 0,1 1240.110,277.316 L1219.319,179.501 A1350.000,1350.000 0.000 0,0 1164.269,192.413 Z" style="stroke-width:2.0;stroke:rgb(0,0,0);stroke-linecap:round;fill:rgb(153,102,0);"/>
<text x="1170.3" y="94.4" font-size="46.8px" font-family="CMUBright-Roman" style="text-anchor:middle;fill:rgb(0,0,0);" transform="rotate(-13.2,1170.3,94.4)">v49</text>
<line x1='1164.3' y1='192.4' x2='1159.3' y2='173.0' style="stroke-width:3.0;stroke:rgb(0,0,0);stroke-linecap:round;fill:none;"/>
<text x="1146.4" y="171.2" font-size="31.2px" font-family="CMUBright-Roman" style="text-anchor:end;fill:rgb(0,0,0);" transform="rotate(75.6,1146.4,171.2)">0</text>
<line x1='1219.3' y1='179.5' x2='1215.2' y2='159.9' style="stroke-width:3.0;stroke:rgb(0,0,0);stroke-linecap:round;fill:none;"/>
<path d="M1189.138,289.271 A1250.000,1250.000 40.000 0,1 1240.110,277.316 L1219.319,179.501 A1350.000,1350.000 0.000 0,0 1164.269,192.413 Z" style="stroke-width:2.0;stroke:rgb(0,0,0);stroke-linecap:round;fill:none;"/>
<path d="M1343.333,259.857 A1250.000,1250.000 40.000 0,1 1395.403,254.384 L1387.035,154.735 A1350.000,1350.000 0.000 0,0 1330.800,160.645 Z" style="stroke-width:2.0;stroke:rgb(0,0,0);stroke-linecap:round;fill:rgb(102,102,0);"/>
<text x="1349.1" y="64.2" font-size="46.8px" font-family="CMUBright-Roman" style="text-anchor:middle;fill:rgb(0,0,0);" transform="rotate(-6.0,1349.1,64.2)">v50</text>
<line x1='1330.8' y1='160.6' x2='1328.3' y2='140.8' style="stroke-width:3.0;stroke:rgb(0,0,0);stroke-linecap:round;fill:none;"/>
<text x="1315.8" y="137.4" font-size="31.2px" font-family="CMUBright-Roman" style="text-anchor:end;fill:rgb(0,0,0);" transform="rotate(82.8,1315.8,137.4)">0</text>
<line x1='1387.0' y1='154.7' x2='1385.4' y2='134.8' style="stroke-width:3.0;stroke:rgb(0,0,0);stroke-linecap:round;fill:none;"/>
<path d="M1343.333,259.857 A1250.000,1250.000 40.000 0,1 1395.403,254.384 L1387.035,154.735 A1350.000,1350.000 0.000 0,0 1330.800,160.645 Z" style="stroke-width:2.0;stroke:rgb(0,0,0);stroke-linecap:round;fill:none;"/>
</g>
<g id="track_0">
<path d="M 1525.5,281.5 L 1525.5,293.4 1526.1,304.5 1527.2,314.7 1528.7,324.1 1530.7,332.8 1533.1,340.8 1535.9,348.1 1539.0,354.7 1542.5,360.7 1546.4,366.2 1550.5,371.1 1554.8,375.4 1559.4,379.2 1564.2,382.5 1569.2,385.3 1574.3,387.7 1579.5,389.5 1584.9,390.9 1590.3,391.8 1595.8,392.3 1601.3,392.3 1606.8,391.8 1612.3,390.9 1617.7,389.4 1623.1,387.5 1628.4,385.0 1633.5,382.0 1638.5,378.5 1643.4,374.3 1648.0,369.6 1652.5,364.2 1656.7,358.2 1660.7,351.5 1664.4,344.0 1667.8,335.8 1670.9,326.8 1673.6,316.9 1676.0,306.1 1678.0,294.3  " style="stroke-opacity: 0.666667; stroke-width: 4.0; stroke: rgb(116,196,118); fill: none" />
<path d="M 1525.5,281.5 L 1525.8,294.0 1527.1,305.7 1529.4,316.6 1532.6,326.7 1536.7,336.0 1541.6,344.7 1547.3,352.8 1553.7,360.2 1560.8,367.1 1568.4,373.4 1576.6,379.2 1585.3,384.5 1594.4,389.3 1603.9,393.6 1613.8,397.5 1624.0,400.9 1634.4,403.8 1644.9,406.3 1655.7,408.4 1666.5,410.0 1677.4,411.1 1688.2,411.8 1699.0,411.9 1709.7,411.6 1720.3,410.8 1730.6,409.4 1740.8,407.5 1750.6,404.9 1760.1,401.7 1769.3,397.9 1778.0,393.4 1786.3,388.1 1794.0,382.0 1801.3,375.1 1807.9,367.3 1813.9,358.6 1819.2,348.8 1823.9,338.1 1827.7,326.1  " style="stroke-opacity: 0.666667; stroke-width: 4.0; stroke: rgb(116,196,118); fill: none" />
<path d="M 1525.5,281.5 L 1526.6,300.3 1530.5,318.4 1537.1,335.7 1546.2,352.5 1557.6,368.8 1571.2,384.6 1586.7,400.1 1604.2,415.2 1623.3,429.9 1644.0,444.5 1666.1,458.7 1689.4,472.8 1713.8,486.6 1739.2,500.2 1765.5,513.6 1792.5,526.8 1820.0,539.7 1848.0,552.3 1876.4,564.7 1904.9,576.7 1933.6,588.3 1962.2,599.5 1990.7,610.1 2019.0,620.2 2046.9,629.5 2074.5,638.2 2101.4,646.0 2127.8,652.8 2153.4,658.6 2178.3,663.2 2202.2,666.5 2225.2,668.4 2247.1,668.8 2267.9,667.4 2287.5,664.2 2305.9,658.9 2322.9,651.4 2338.5,641.6 2352.7,629.2  " style="stroke-opacity: 0.666667; stroke-width: 4.0; stroke: rgb(116,196,118); fill: none" />
<path d="M 1525.5,281.5 L 1526.7,302.8 1531.1,323.4 1538.5,343.3 1548.7,362.7 1561.5,381.6 1576.7,400.1 1594.2,418.3 1613.7,436.2 1635.0,453.9 1658.1,471.4 1682.7,488.8 1708.6,506.0 1735.8,523.0 1764.1,540.0 1793.2,556.8 1823.1,573.4 1853.6,589.9 1884.7,606.2 1916.1,622.2 1947.7,637.9 1979.4,653.2 2011.1,668.1 2042.7,682.4 2074.0,696.2 2105.0,709.3 2135.6,721.5 2165.6,732.8 2195.0,743.1 2223.7,752.2 2251.6,760.0 2278.6,766.3 2304.7,771.0 2329.7,773.9 2353.7,774.8 2376.5,773.5 2398.1,769.9 2418.4,763.8 2437.4,754.9 2455.1,743.0  " style="stroke-opacity: 0.666667; stroke-width: 4.0; stroke: rgb(116,196,118); fill: none" />
<path d="M 1525.5,281.5 L 1526.8,305.7 1531.7,329.1 1539.8,351.8 1550.9,374.1 1564.9,396.0 1581.4,417.5 1600.4,438.7 1621.6,459.7 1644.8,480.6 1669.8,501.4 1696.4,522.1 1724.5,542.7 1753.9,563.3 1784.3,583.8 1815.8,604.2 1848.0,624.6 1880.9,644.8 1914.2,664.9 1948.0,684.8 1982.0,704.5 2016.1,723.7 2050.2,742.6 2084.1,760.9 2117.9,778.7 2151.3,795.7 2184.3,811.8 2216.8,826.9 2248.7,840.9 2279.9,853.7 2310.4,864.9 2340.1,874.6 2368.9,882.4 2396.8,888.2 2423.7,891.8 2449.6,893.0 2474.5,891.5 2498.2,887.1 2520.9,879.6 2542.5,868.7  " style="stroke-opacity: 0.666667; stroke-width: 4.0; stroke: rgb(116,196,118); fill: none" />
<path d="M 1525.5,281.5 L 1526.9,308.8 1532.1,335.4 1540.7,361.4 1552.6,386.8 1567.5,411.9 1585.1,436.6 1605.3,461.1 1627.8,485.5 1652.4,509.8 1678.9,534.0 1707.0,558.2 1736.7,582.4 1767.7,606.6 1799.8,630.8 1832.8,655.0 1866.7,679.3 1901.2,703.4 1936.3,727.5 1971.7,751.4 2007.3,775.1 2043.1,798.4 2078.9,821.4 2114.5,843.9 2150.0,865.7 2185.1,886.8 2219.9,907.0 2254.2,926.2 2288.0,944.2 2321.2,960.7 2353.8,975.8 2385.7,989.0 2416.9,1000.3 2447.3,1009.4 2477.0,1016.1 2505.8,1020.1 2533.9,1021.2 2561.2,1019.2 2587.7,1013.6 2613.4,1004.3  " style="stroke-opacity: 0.666667; stroke-width: 4.0; stroke: rgb(116,196,118); fill: none" />
<path d="M 1525.5,281.5 L 1526.9,312.3 1532.3,342.4 1541.4,371.8 1553.8,400.7 1569.4,429.1 1587.8,457.3 1608.9,485.3 1632.3,513.1 1657.8,540.9 1685.3,568.7 1714.5,596.5 1745.1,624.4 1777.1,652.3 1810.2,680.3 1844.3,708.4 1879.1,736.5 1914.6,764.6 1950.6,792.6 1986.9,820.5 2023.5,848.3 2060.2,875.8 2096.9,902.9 2133.5,929.5 2169.9,955.5 2206.1,980.8 2242.0,1005.1 2277.5,1028.4 2312.5,1050.5 2347.2,1071.1 2381.3,1090.1 2414.9,1107.2 2448.1,1122.3 2480.7,1135.0 2512.8,1145.2 2544.4,1152.5 2575.5,1156.7 2606.3,1157.6 2636.7,1154.7 2666.7,1147.7  " style="stroke-opacity: 0.666667; stroke-width: 4.0; stroke: rgb(116,196,118); fill: none" />
<path d="M 1525.5,281.5 L 1526.9,316.2 1532.5,349.9 1541.8,383.0 1554.6,415.5 1570.6,447.6 1589.5,479.4 1611.0,511.0 1634.9,542.4 1661.0,573.8 1688.9,605.2 1718.6,636.6 1749.7,668.1 1782.1,699.7 1815.6,731.5 1850.0,763.3 1885.1,795.2 1920.9,827.1 1957.1,859.1 1993.6,891.0 2030.4,922.7 2067.3,954.2 2104.2,985.3 2141.0,1016.0 2177.7,1046.1 2214.2,1075.5 2250.5,1104.0 2286.5,1131.4 2322.2,1157.6 2357.6,1182.4 2392.8,1205.4 2427.6,1226.6 2462.2,1245.7 2496.6,1262.4 2530.8,1276.5 2564.9,1287.6 2598.9,1295.5 2633.0,1299.9 2667.2,1300.4 2701.7,1296.8  " style="stroke-opacity: 0.666667; stroke-width: 4.0; stroke: rgb(116,196,118); fill: none" />
<path d="M 1525.5,281.5 L 1526.9,320.3 1532.5,358.0 1541.9,395.0 1554.8,431.4 1571.0,467.2 1590.0,502.7 1611.7,537.9 1635.7,573.0 1661.9,607.9 1689.9,642.9 1719.5,677.9 1750.5,713.0 1782.7,748.2 1816.0,783.5 1850.1,819.0 1884.9,854.5 1920.2,890.1 1956.0,925.7 1992.0,961.3 2028.2,996.8 2064.6,1032.1 2101.0,1067.1 2137.3,1101.7 2173.6,1135.7 2209.7,1169.1 2245.7,1201.6 2281.6,1233.1 2317.3,1263.4 2352.9,1292.2 2388.5,1319.5 2424.0,1344.9 2459.5,1368.2 2495.2,1389.1 2531.1,1407.4 2567.3,1422.8 2603.9,1435.0 2641.0,1443.6 2678.9,1448.4 2717.7,1449.0  " style="stroke-opacity: 0.666667; stroke-width: 4.0; stroke: rgb(116,196,118); fill: none" />
<path d="M 1525.5,281.5 L 1526.8,324.6 1532.4,366.6 1541.7,407.7 1554.6,448.0 1570.7,487.7 1589.6,527.0 1611.0,565.9 1634.8,604.5 1660.6,643.0 1688.1,681.5 1717.2,719.9 1747.6,758.4 1779.1,797.0 1811.5,835.7 1844.7,874.5 1878.5,913.4 1912.8,952.4 1947.5,991.4 1982.4,1030.4 2017.4,1069.3 2052.6,1108.1 2087.8,1146.7 2123.0,1184.9 2158.1,1222.6 2193.2,1259.6 2228.3,1295.9 2263.4,1331.3 2298.5,1365.6 2333.7,1398.5 2369.0,1429.9 2404.6,1459.6 2440.6,1487.2 2477.1,1512.6 2514.1,1535.5 2551.9,1555.7 2590.7,1572.7 2630.6,1586.3 2671.7,1596.2 2714.5,1602.0  " style="stroke-opacity: 0.666667; stroke-width: 4.0; stroke: rgb(116,196,118); fill: none" />
<path d="M 1525.5,281.5 L 1526.7,329.2 1532.1,375.7 1541.3,421.0 1553.9,465.4 1569.6,509.0 1588.1,552.0 1609.0,594.6 1632.1,636.8 1657.1,678.7 1683.8,720.5 1711.8,762.2 1741.1,803.9 1771.4,845.5 1802.5,887.3 1834.3,929.1 1866.5,971.0 1899.2,1013.0 1932.2,1055.0 1965.3,1097.0 1998.6,1139.0 2031.9,1180.9 2065.3,1222.6 2098.7,1263.9 2132.1,1304.9 2165.6,1345.4 2199.1,1385.2 2232.8,1424.2 2266.7,1462.2 2300.9,1499.1 2335.5,1534.6 2370.6,1568.5 2406.4,1600.6 2443.0,1630.7 2480.7,1658.5 2519.6,1683.8 2559.9,1706.2 2602.0,1725.5 2645.9,1741.3 2692.1,1753.4  " style="stroke-opacity: 0.666667; stroke-width: 4.0; stroke: rgb(116,196,118); fill: none" />
<path d="M 1525.5,281.5 L 1526.6,334.1 1531.7,385.1 1540.6,434.8 1552.7,483.3 1567.8,530.9 1585.6,577.7 1605.7,623.8 1627.8,669.4 1651.7,714.6 1677.0,759.5 1703.7,804.2 1731.4,848.7 1760.0,893.2 1789.3,937.6 1819.1,982.0 1849.3,1026.5 1879.9,1071.0 1910.6,1115.6 1941.5,1160.1 1972.4,1204.7 2003.5,1249.1 2034.5,1293.5 2065.6,1337.6 2096.7,1381.5 2128.0,1424.9 2159.4,1467.8 2191.1,1510.1 2223.2,1551.6 2255.8,1592.2 2289.0,1631.6 2323.0,1669.7 2358.0,1706.4 2394.3,1741.3 2431.9,1774.2 2471.3,1805.0 2512.5,1833.3 2556.0,1858.9 2602.1,1881.5 2651.0,1900.8  " style="stroke-opacity: 0.666667; stroke-width: 4.0; stroke: rgb(116,196,118); fill: none" />
<path d="M 2591.6,2041.9 L 2580.9,2036.8 2570.6,2032.6 2560.9,2029.2 2551.8,2026.6 2543.1,2024.7 2534.8,2023.5 2527.0,2022.9 2519.7,2023.0 2512.7,2023.6 2506.2,2024.7 2500.0,2026.3 2494.2,2028.4 2488.8,2030.9 2483.8,2033.9 2479.1,2037.2 2474.8,2040.8 2470.9,2044.8 2467.4,2049.0 2464.3,2053.5 2461.5,2058.3 2459.2,2063.3 2457.3,2068.5 2455.8,2073.8 2454.8,2079.4 2454.2,2085.1 2454.2,2090.9 2454.7,2096.8 2455.8,2102.9 2457.5,2109.0 2459.8,2115.3 2462.7,2121.6 2466.4,2128.0 2470.8,2134.4 2475.9,2141.0 2481.9,2147.5 2488.8,2154.2 2496.6,2160.9 2505.3,2167.6 2515.1,2174.4  " style="stroke-opacity: 0.666667; stroke-width: 4.0; stroke: rgb(116,196,118); fill: none" />
<path d="M 2591.6,2041.9 L 2580.2,2036.8 2569.1,2033.0 2558.3,2030.5 2547.8,2029.1 2537.5,2028.8 2527.6,2029.6 2517.9,2031.3 2508.4,2033.9 2499.2,2037.3 2490.2,2041.6 2481.5,2046.5 2473.0,2052.1 2464.8,2058.3 2456.8,2065.1 2449.1,2072.4 2441.7,2080.2 2434.7,2088.3 2427.9,2096.8 2421.5,2105.7 2415.4,2114.8 2409.8,2124.1 2404.5,2133.6 2399.8,2143.3 2395.5,2153.2 2391.8,2163.1 2388.6,2173.0 2386.0,2183.0 2384.1,2193.0 2383.0,2203.0 2382.5,2212.9 2382.9,2222.7 2384.2,2232.5 2386.4,2242.1 2389.6,2251.6 2393.8,2260.9 2399.1,2270.0 2405.7,2279.0 2413.5,2287.8 2422.6,2296.4  " style="stroke-opacity: 0.666667; stroke-width: 4.0; stroke: rgb(116,196,118); fill: none" />
<path d="M 2591.6,2041.9 L 2579.2,2036.6 2566.9,2033.0 2554.6,2031.1 2542.4,2030.8 2530.3,2031.8 2518.2,2034.3 2506.2,2037.9 2494.3,2042.8 2482.5,2048.8 2470.7,2055.7 2459.0,2063.6 2447.4,2072.3 2435.9,2081.8 2424.6,2092.0 2413.5,2102.9 2402.5,2114.2 2391.8,2126.1 2381.3,2138.4 2371.1,2151.0 2361.3,2164.0 2351.9,2177.2 2342.8,2190.6 2334.3,2204.1 2326.3,2217.7 2318.9,2231.3 2312.1,2245.0 2306.0,2258.6 2300.7,2272.1 2296.3,2285.5 2292.8,2298.7 2290.2,2311.7 2288.7,2324.5 2288.4,2337.1 2289.3,2349.3 2291.5,2361.3 2295.2,2372.9 2300.3,2384.2 2307.1,2395.1 2315.5,2405.7  " style="stroke-opacity: 0.666667; stroke-width: 4.0; stroke: rgb(116,196,118); fill: none" />
<path d="M 2591.6,2041.9 L 2577.9,2036.2 2564.0,2032.7 2549.9,2031.2 2535.7,2031.5 2521.4,2033.7 2506.9,2037.5 2492.3,2042.8 2477.6,2049.6 2462.8,2057.7 2447.8,2066.9 2432.8,2077.3 2417.8,2088.7 2402.8,2101.0 2387.7,2114.1 2372.8,2127.9 2357.9,2142.4 2343.2,2157.4 2328.6,2172.9 2314.3,2188.8 2300.4,2205.0 2286.7,2221.4 2273.5,2238.1 2260.8,2254.8 2248.7,2271.7 2237.2,2288.5 2226.4,2305.3 2216.5,2322.0 2207.4,2338.5 2199.3,2354.8 2192.3,2371.0 2186.5,2386.8 2182.0,2402.4 2178.8,2417.6 2177.2,2432.5 2177.1,2447.0 2178.8,2461.1 2182.4,2474.7 2187.9,2488.0 2195.6,2500.8  " style="stroke-opacity: 0.666667; stroke-width: 4.0; stroke: rgb(116,196,118); fill: none" />
<path d="M 2591.6,2041.9 L 2576.2,2035.6 2560.4,2031.9 2544.2,2030.5 2527.8,2031.4 2510.9,2034.3 2493.8,2039.2 2476.3,2045.8 2458.5,2054.1 2440.4,2063.8 2422.1,2075.0 2403.5,2087.4 2384.8,2100.9 2365.9,2115.5 2346.9,2130.9 2327.8,2147.2 2308.8,2164.1 2289.8,2181.7 2270.9,2199.7 2252.2,2218.2 2233.8,2237.0 2215.7,2256.1 2198.1,2275.3 2180.9,2294.7 2164.4,2314.1 2148.5,2333.5 2133.5,2352.8 2119.3,2372.0 2106.2,2391.0 2094.2,2409.8 2083.4,2428.4 2074.0,2446.7 2066.1,2464.6 2059.9,2482.3 2055.4,2499.5 2052.8,2516.4 2052.3,2532.9 2054.0,2549.0 2058.1,2564.7 2064.6,2580.1  " style="stroke-opacity: 0.666667; stroke-width: 4.0; stroke: rgb(116,196,118); fill: none" />
<path d="M 2591.6,2041.9 L 2574.2,2034.9 2556.2,2030.7 2537.7,2029.3 2518.6,2030.3 2499.0,2033.7 2478.9,2039.3 2458.3,2046.8 2437.2,2056.2 2415.7,2067.2 2393.8,2079.7 2371.5,2093.6 2348.8,2108.7 2325.9,2125.0 2302.8,2142.2 2279.5,2160.2 2256.1,2179.0 2232.7,2198.4 2209.3,2218.4 2186.0,2238.8 2163.0,2259.5 2140.3,2280.5 2118.0,2301.6 2096.3,2322.9 2075.1,2344.2 2054.7,2365.5 2035.2,2386.7 2016.7,2407.8 1999.3,2428.8 1983.1,2449.5 1968.3,2470.0 1955.1,2490.2 1943.6,2510.2 1934.0,2529.9 1926.4,2549.3 1921.0,2568.5 1917.9,2587.3 1917.4,2605.9 1919.7,2624.2 1924.8,2642.3  " style="stroke-opacity: 0.666667; stroke-width: 4.0; stroke: rgb(116,196,118); fill: none" />
<path d="M 2591.6,2041.9 L 2566.3,2031.5 2540.1,2024.9 2512.9,2021.6 2484.8,2021.6 2455.8,2024.4 2425.9,2029.8 2395.2,2037.6 2363.5,2047.6 2331.1,2059.5 2297.9,2073.2 2264.1,2088.4 2229.5,2104.9 2194.4,2122.6 2158.8,2141.3 2122.8,2160.9 2086.5,2181.3 2049.9,2202.2 2013.2,2223.7 1976.5,2245.5 1939.9,2267.7 1903.5,2290.1 1867.5,2312.7 1832.0,2335.4 1797.2,2358.2 1763.1,2381.0 1730.0,2403.9 1698.1,2426.8 1667.4,2449.7 1638.3,2472.7 1610.8,2495.8 1585.2,2519.0 1561.7,2542.4 1540.5,2566.0 1521.9,2590.0 1505.9,2614.4 1493.0,2639.3 1483.3,2664.9 1477.0,2691.2 1474.5,2718.5  " style="stroke-opacity: 0.666667; stroke-width: 4.0; stroke: rgb(116,196,118); fill: none" />
<path d="M 2591.6,2041.9 L 2563.1,2030.1 2533.7,2022.1 2503.2,2017.8 2471.8,2016.8 2439.4,2018.7 2406.1,2023.4 2371.8,2030.5 2336.6,2039.9 2300.6,2051.2 2263.8,2064.2 2226.2,2078.7 2187.9,2094.6 2149.0,2111.7 2109.6,2129.7 2069.7,2148.6 2029.5,2168.1 1988.9,2188.3 1948.2,2208.9 1907.5,2229.9 1866.8,2251.1 1826.3,2272.6 1786.1,2294.3 1746.5,2316.1 1707.4,2338.0 1669.2,2360.0 1631.9,2382.1 1595.7,2404.3 1560.8,2426.6 1527.4,2449.2 1495.7,2472.0 1465.8,2495.1 1438.1,2518.7 1412.7,2542.7 1389.8,2567.4 1369.7,2592.9 1352.7,2619.3 1338.8,2646.8 1328.5,2675.5 1322.0,2705.7  " style="stroke-opacity: 0.666667; stroke-width: 4.0; stroke: rgb(116,196,118); fill: none" />
<path d="M 2591.6,2041.9 L 2556.0,2026.7 2519.5,2015.6 2482.0,2008.4 2443.6,2004.6 2404.3,2004.0 2364.1,2006.1 2323.0,2010.7 2281.0,2017.5 2238.2,2026.3 2194.7,2036.7 2150.4,2048.6 2105.4,2061.7 2059.9,2075.9 2013.8,2091.0 1967.2,2106.7 1920.2,2123.1 1872.9,2139.9 1825.5,2157.1 1777.9,2174.5 1730.4,2192.2 1683.0,2210.1 1635.8,2228.1 1589.0,2246.2 1542.8,2264.5 1497.2,2283.1 1452.5,2301.8 1408.7,2320.8 1366.1,2340.3 1324.8,2360.2 1285.0,2380.8 1247.0,2402.1 1210.7,2424.3 1176.6,2447.7 1144.8,2472.4 1115.4,2498.6 1088.8,2526.5 1065.2,2556.5 1044.7,2588.7 1027.7,2623.5  " style="stroke-opacity: 0.666667; stroke-width: 4.0; stroke: rgb(116,196,118); fill: none" />
<path d="M 2591.6,2041.9 L 2552.1,2024.7 2511.7,2011.9 2470.6,2002.8 2428.6,1997.3 2385.8,1994.9 2342.3,1995.3 2297.9,1998.2 2252.9,2003.2 2207.0,2010.1 2160.5,2018.7 2113.3,2028.6 2065.6,2039.7 2017.3,2051.8 1968.4,2064.7 1919.2,2078.2 1869.6,2092.3 1819.7,2106.7 1769.7,2121.4 1719.5,2136.4 1669.3,2151.6 1619.3,2166.9 1569.4,2182.3 1519.9,2197.9 1470.8,2213.6 1422.3,2229.6 1374.5,2245.9 1327.6,2262.5 1281.7,2279.7 1236.9,2297.6 1193.4,2316.2 1151.4,2335.8 1111.1,2356.5 1072.6,2378.7 1036.0,2402.5 1001.7,2428.1 969.9,2455.9 940.6,2486.2 914.1,2519.3 890.6,2555.5  " style="stroke-opacity: 0.666667; stroke-width: 4.0; stroke: rgb(116,196,118); fill: none" />
<path d="M 2591.6,2041.9 L 2548.0,2022.7 2503.7,2007.8 2458.8,1996.8 2413.2,1989.3 2367.0,1984.9 2320.2,1983.3 2272.8,1984.1 2224.8,1987.1 2176.2,1991.8 2127.1,1998.2 2077.4,2005.8 2027.2,2014.6 1976.6,2024.2 1925.6,2034.6 1874.2,2045.5 1822.6,2056.9 1770.7,2068.6 1718.6,2080.5 1666.5,2092.6 1614.4,2104.8 1562.3,2117.2 1510.3,2129.6 1458.7,2142.2 1407.3,2155.0 1356.5,2168.1 1306.2,2181.5 1256.5,2195.3 1207.7,2209.8 1159.8,2225.0 1113.0,2241.2 1067.3,2258.5 1023.0,2277.3 980.2,2297.6 939.0,2319.9 899.6,2344.3 862.1,2371.3 826.8,2401.1 793.7,2434.1 763.1,2470.8  " style="stroke-opacity: 0.666667; stroke-width: 4.0; stroke: rgb(116,196,118); fill: none" />
<path d="M 2591.6,2041.9 L 2539.2,2018.2 2486.6,1998.8 2434.1,1983.3 2381.4,1971.2 2328.7,1962.3 2275.9,1956.0 2223.0,1952.0 2169.9,1950.0 2116.8,1949.8 2063.5,1950.9 2010.1,1953.3 1956.5,1956.6 1902.9,1960.6 1849.1,1965.2 1795.3,1970.2 1741.3,1975.5 1687.3,1981.0 1633.2,1986.6 1579.1,1992.3 1525.0,1998.0 1470.9,2003.7 1416.8,2009.5 1362.8,2015.3 1309.0,2021.3 1255.2,2027.6 1201.7,2034.3 1148.4,2041.5 1095.3,2049.4 1042.6,2058.2 990.2,2068.2 938.3,2079.5 886.8,2092.4 835.9,2107.3 785.5,2124.5 735.8,2144.2 686.8,2166.9 638.6,2193.0 591.3,2222.9 544.9,2257.0  " style="stroke-opacity: 0.666667; stroke-width: 4.0; stroke: rgb(116,196,118); fill: none" />
<path d="M 457.5,2131.3 L 467.6,2124.9 476.6,2118.6 484.7,2112.2 491.8,2105.8 498.1,2099.5 503.5,2093.2 508.2,2087.0 512.1,2080.7 515.3,2074.5 517.8,2068.4 519.8,2062.3 521.1,2056.3 521.9,2050.4 522.1,2044.6 521.8,2038.9 521.0,2033.3 519.8,2027.9 518.1,2022.6 516.0,2017.5 513.4,2012.7 510.5,2008.0 507.1,2003.6 503.4,1999.5 499.2,1995.7 494.7,1992.2 489.8,1989.1 484.5,1986.3 478.8,1984.0 472.7,1982.1 466.2,1980.7 459.3,1979.8 452.0,1979.5 444.2,1979.7 435.9,1980.6 427.1,1982.1 417.8,1984.4 408.0,1987.3 397.6,1991.1 386.6,1995.7  " style="stroke-opacity: 0.666667; stroke-width: 4.0; stroke: rgb(116,196,118); fill: none" />
<path d="M 457.5,2131.3 L 468.0,2124.4 477.1,2117.1 485.0,2109.3 491.8,2101.2 497.6,2092.7 502.3,2083.9 506.0,2074.7 508.9,2065.4 510.9,2055.7 512.2,2045.9 512.7,2035.9 512.5,2025.7 511.6,2015.4 510.2,2005.1 508.1,1994.7 505.5,1984.3 502.5,1973.9 498.9,1963.6 494.9,1953.5 490.4,1943.5 485.6,1933.7 480.3,1924.2 474.7,1915.0 468.7,1906.1 462.3,1897.6 455.6,1889.6 448.5,1882.1 441.1,1875.2 433.3,1868.8 425.2,1863.2 416.7,1858.2 407.8,1854.1 398.5,1850.8 388.8,1848.4 378.7,1847.0 368.1,1846.6 357.0,1847.3 345.4,1849.1 333.3,1852.3  " style="stroke-opacity: 0.666667; stroke-width: 4.0; stroke: rgb(116,196,118); fill: none" />
<path d="M 457.5,2131.3 L 468.7,2123.7 478.3,2115.2 486.5,2105.8 493.3,2095.7 498.9,2084.9 503.3,2073.5 506.6,2061.4 508.9,2048.7 510.2,2035.5 510.7,2021.8 510.3,2007.7 509.1,1993.2 507.2,1978.5 504.7,1963.4 501.5,1948.2 497.8,1932.9 493.5,1917.5 488.8,1902.1 483.5,1886.7 477.9,1871.5 471.8,1856.4 465.3,1841.6 458.5,1827.2 451.3,1813.1 443.7,1799.5 435.8,1786.5 427.6,1774.1 419.0,1762.4 410.1,1751.5 400.9,1741.4 391.2,1732.3 381.2,1724.1 370.8,1717.1 360.0,1711.3 348.7,1706.8 336.9,1703.6 324.6,1701.9 311.8,1701.8 298.3,1703.2  " style="stroke-opacity: 0.666667; stroke-width: 4.0; stroke: rgb(116,196,118); fill: none" />
<path d="M 457.5,2131.3 L 469.7,2122.8 480.2,2112.9 489.0,2101.9 496.2,2089.7 502.1,2076.4 506.6,2062.2 510.0,2047.0 512.1,2030.9 513.3,2014.1 513.4,1996.5 512.7,1978.3 511.1,1959.5 508.8,1940.2 505.8,1920.5 502.2,1900.4 497.9,1880.1 493.1,1859.6 487.9,1839.1 482.1,1818.5 475.9,1798.0 469.3,1777.7 462.3,1757.6 455.0,1737.9 447.3,1718.7 439.2,1699.9 430.8,1681.9 422.1,1664.5 413.0,1648.0 403.5,1632.4 393.7,1617.9 383.4,1604.4 372.7,1592.3 361.5,1581.5 349.8,1572.1 337.6,1564.3 324.8,1558.2 311.4,1553.9 297.2,1551.4 282.3,1551.0  " style="stroke-opacity: 0.666667; stroke-width: 4.0; stroke: rgb(116,196,118); fill: none" />
<path d="M 457.5,2131.3 L 471.1,2121.7 482.7,2110.3 492.5,2097.4 500.6,2083.0 507.2,2067.2 512.3,2050.2 516.0,2031.8 518.6,2012.4 520.0,1991.9 520.4,1970.4 519.9,1948.1 518.5,1925.1 516.4,1901.3 513.5,1877.0 510.0,1852.2 505.9,1827.0 501.3,1801.6 496.1,1776.0 490.5,1750.3 484.5,1724.7 478.1,1699.2 471.3,1674.0 464.2,1649.1 456.7,1624.7 448.8,1601.0 440.5,1577.9 431.9,1555.7 422.9,1534.4 413.4,1514.2 403.5,1495.1 393.1,1477.4 382.2,1461.1 370.7,1446.4 358.5,1433.4 345.6,1422.1 332.0,1412.9 317.4,1405.7 302.0,1400.7 285.5,1398.0  " style="stroke-opacity: 0.666667; stroke-width: 4.0; stroke: rgb(116,196,118); fill: none" />
<path d="M 457.5,2131.3 L 472.8,2120.4 486.0,2107.4 497.1,2092.5 506.4,2075.9 514.0,2057.5 520.1,2037.6 524.8,2016.1 528.2,1993.3 530.4,1969.3 531.6,1944.0 531.8,1917.7 531.2,1890.5 529.8,1862.5 527.6,1833.7 524.9,1804.4 521.6,1774.5 517.7,1744.4 513.4,1713.9 508.6,1683.4 503.5,1652.8 497.9,1622.4 492.0,1592.3 485.7,1562.5 479.0,1533.2 472.0,1504.6 464.5,1476.8 456.7,1449.8 448.3,1423.9 439.5,1399.1 430.1,1375.7 420.0,1353.7 409.3,1333.3 397.9,1314.6 385.5,1297.7 372.3,1282.9 358.0,1270.3 342.6,1259.9 325.9,1251.9 307.9,1246.6  " style="stroke-opacity: 0.666667; stroke-width: 4.0; stroke: rgb(116,196,118); fill: none" />
<path d="M 457.5,2131.3 L 477.2,2117.3 494.4,2100.7 509.3,2081.6 522.1,2060.3 533.1,2036.8 542.4,2011.3 550.1,1983.9 556.5,1954.7 561.7,1924.0 565.9,1891.7 569.1,1858.2 571.4,1823.4 573.1,1787.6 574.1,1750.9 574.5,1713.4 574.4,1675.3 573.9,1636.7 573.0,1597.7 571.7,1558.5 570.0,1519.3 568.1,1480.2 565.7,1441.3 563.0,1402.8 559.9,1364.8 556.3,1327.5 552.2,1291.0 547.6,1255.4 542.4,1221.0 536.4,1187.8 529.6,1156.0 521.8,1125.8 513.0,1097.3 502.9,1070.6 491.6,1046.0 478.7,1023.5 464.1,1003.3 447.6,985.6 429.1,970.5 408.4,958.1  " style="stroke-opacity: 0.666667; stroke-width: 4.0; stroke: rgb(116,196,118); fill: none" />
<path d="M 457.5,2131.3 L 479.8,2115.5 499.5,2096.9 516.8,2075.7 531.9,2052.1 545.1,2026.1 556.5,1997.9 566.4,1967.7 574.9,1935.7 582.2,1901.9 588.5,1866.6 593.8,1829.9 598.4,1791.9 602.2,1752.7 605.5,1712.6 608.2,1671.7 610.5,1630.2 612.4,1588.0 614.0,1545.6 615.2,1502.9 616.1,1460.1 616.7,1417.4 616.9,1374.9 616.8,1332.7 616.2,1291.1 615.2,1250.1 613.6,1209.9 611.4,1170.6 608.4,1132.5 604.6,1095.6 599.9,1060.0 594.0,1026.0 586.8,993.6 578.2,963.0 568.0,934.4 555.9,907.9 541.8,883.6 525.4,861.7 506.5,842.3 484.9,825.6  " style="stroke-opacity: 0.666667; stroke-width: 4.0; stroke: rgb(116,196,118); fill: none" />
<path d="M 457.5,2131.3 L 482.8,2113.6 505.3,2093.0 525.2,2069.6 543.0,2043.6 558.7,2015.2 572.6,1984.5 584.9,1951.8 595.9,1917.1 605.7,1880.6 614.4,1842.6 622.2,1803.1 629.3,1762.2 635.8,1720.3 641.7,1677.3 647.1,1633.5 652.2,1589.0 656.9,1544.0 661.3,1498.6 665.4,1453.0 669.3,1407.2 672.8,1361.5 676.0,1316.0 678.9,1270.8 681.3,1226.1 683.3,1182.0 684.6,1138.7 685.3,1096.2 685.1,1054.8 683.9,1014.5 681.7,975.5 678.1,938.0 673.1,901.9 666.4,867.6 657.8,835.0 647.0,804.4 633.9,775.8 618.1,749.4 599.4,725.3 577.4,703.6  " style="stroke-opacity: 0.666667; stroke-width: 4.0; stroke: rgb(116,196,118); fill: none" />
<path d="M 457.5,2131.3 L 486.0,2111.6 511.6,2088.8 534.5,2063.2 555.1,2035.0 573.6,2004.3 590.4,1971.3 605.5,1936.2 619.2,1899.2 631.7,1860.4 643.2,1819.9 653.9,1778.1 663.8,1734.9 673.2,1690.6 682.0,1645.3 690.4,1599.2 698.5,1552.5 706.4,1505.2 713.9,1457.5 721.3,1409.5 728.4,1361.5 735.2,1313.5 741.7,1265.7 747.9,1218.1 753.7,1171.0 758.9,1124.4 763.5,1078.5 767.4,1033.4 770.4,989.2 772.3,946.1 772.9,904.0 772.2,863.3 769.7,823.8 765.4,785.9 758.9,749.5 750.1,714.7 738.5,681.8 723.9,650.6 706.1,621.4 684.5,594.3  " style="stroke-opacity: 0.666667; stroke-width: 4.0; stroke: rgb(116,196,118); fill: none" />
<path d="M 457.5,2131.3 L 489.5,2109.4 518.4,2084.5 544.6,2056.7 568.3,2026.3 590.0,1993.5 609.7,1958.4 627.8,1921.2 644.5,1882.1 660.1,1841.3 674.6,1798.9 688.3,1755.2 701.3,1710.2 713.8,1664.1 725.8,1617.1 737.4,1569.3 748.8,1520.9 759.9,1472.0 770.8,1422.7 781.6,1373.2 792.1,1323.6 802.4,1274.0 812.5,1224.5 822.2,1175.3 831.5,1126.5 840.3,1078.1 848.5,1030.3 855.8,983.1 862.3,936.7 867.6,891.2 871.5,846.6 873.9,803.0 874.5,760.5 873.1,719.1 869.3,679.1 862.9,640.3 853.6,602.8 841.0,566.8 824.7,532.3 804.4,499.2  " style="stroke-opacity: 0.666667; stroke-width: 4.0; stroke: rgb(116,196,118); fill: none" />
<path d="M 457.5,2131.3 L 493.2,2107.1 525.7,2080.0 555.4,2050.1 582.5,2017.6 607.5,1982.7 630.5,1945.8 651.8,1906.8 671.7,1866.0 690.4,1823.6 708.1,1779.8 725.0,1734.6 741.2,1688.3 756.9,1641.0 772.2,1592.9 787.2,1544.1 801.9,1494.7 816.4,1444.9 830.8,1394.7 845.0,1344.3 859.1,1293.9 873.0,1243.4 886.7,1193.0 900.1,1142.9 913.1,1093.0 925.6,1043.5 937.5,994.4 948.5,945.9 958.6,897.9 967.6,850.5 975.2,803.8 981.1,757.8 985.2,712.7 987.1,668.3 986.6,624.7 983.3,582.0 976.9,540.2 967.1,499.2 953.3,459.1 935.4,419.9  " style="stroke-opacity: 0.666667; stroke-width: 4.0; stroke: rgb(116,196,118); fill: none" />
<path d="M 457.5,2131.3 L 497.2,2104.8 533.5,2075.3 566.8,2043.3 597.6,2008.9 626.0,1972.2 652.4,1933.6 677.1,1893.1 700.4,1851.0 722.4,1807.4 743.4,1762.5 763.5,1716.5 783.0,1669.4 802.0,1621.5 820.6,1572.9 838.9,1523.7 857.0,1474.0 874.9,1423.9 892.7,1373.6 910.4,1323.1 928.0,1272.5 945.5,1221.9 962.8,1171.3 979.9,1121.0 996.6,1070.8 1012.8,1020.8 1028.5,971.2 1043.4,921.9 1057.3,872.9 1070.1,824.3 1081.5,776.1 1091.4,728.2 1099.3,680.8 1105.1,633.7 1108.4,587.0 1108.9,540.6 1106.2,494.6 1099.9,448.8 1089.7,403.1 1075.2,357.7  " style="stroke-opacity: 0.666667; stroke-width: 4.0; stroke: rgb(116,196,118); fill: none" />
<path d="M 457.5,2131.3 L 501.3,2102.3 541.7,2070.6 578.9,2036.5 613.4,2000.2 645.4,1962.0 675.4,1921.9 703.6,1880.2 730.3,1837.1 755.6,1792.8 779.9,1747.3 803.4,1700.9 826.1,1653.6 848.3,1605.6 870.1,1557.1 891.7,1508.1 913.0,1458.8 934.3,1409.1 955.4,1359.3 976.5,1309.3 997.5,1259.3 1018.4,1209.3 1039.2,1159.4 1059.9,1109.5 1080.2,1059.7 1100.1,1010.0 1119.5,960.5 1138.2,911.0 1156.1,861.7 1172.9,812.5 1188.4,763.3 1202.3,714.2 1214.5,665.0 1224.5,615.7 1232.2,566.2 1237.1,516.5 1238.9,466.5 1237.2,416.1 1231.6,365.1 1221.7,313.5  " style="stroke-opacity: 0.666667; stroke-width: 4.0; stroke: rgb(116,196,118); fill: none" />
<path d="M 457.5,2131.3 L 505.7,2099.7 550.2,2065.8 591.5,2029.7 629.8,1991.7 665.7,1952.0 699.3,1910.8 731.0,1868.2 761.1,1824.5 789.8,1779.8 817.3,1734.1 844.0,1687.8 869.9,1640.8 895.2,1593.4 920.1,1545.5 944.8,1497.3 969.2,1448.9 993.5,1400.4 1017.7,1351.7 1041.9,1303.0 1066.1,1254.3 1090.3,1205.5 1114.4,1156.8 1138.4,1108.1 1162.2,1059.3 1185.7,1010.6 1208.7,961.8 1231.2,912.9 1252.9,863.9 1273.8,814.7 1293.4,765.1 1311.7,715.2 1328.4,664.8 1343.1,613.8 1355.6,562.1 1365.6,509.6 1372.6,456.1 1376.4,401.4 1376.5,345.4 1372.6,287.9  " style="stroke-opacity: 0.666667; stroke-width: 4.0; stroke: rgb(116,196,118); fill: none" />
</g>
</svg>
